<svg xmlns="http://www.w3.org/2000/svg" xmlns:xlink="http://www.w3.org/1999/xlink" contentStyleType="text/css" height="560px" preserveAspectRatio="none" style="width:819px;height:560px;background:#FFFFFF;" version="1.1" viewBox="0 0 819 560" width="819px" zoomAndPan="magnify"><defs/><g><line style="stroke:#181818;stroke-width:0.5;stroke-dasharray:5.0,5.0;" x1="39" x2="39" y1="81.2969" y2="480.0234"/><line style="stroke:#181818;stroke-width:0.5;stroke-dasharray:5.0,5.0;" x1="284.0366" x2="284.0366" y1="81.2969" y2="480.0234"/><line style="stroke:#181818;stroke-width:0.5;stroke-dasharray:5.0,5.0;" x1="531.6963" x2="531.6963" y1="81.2969" y2="480.0234"/><line style="stroke:#181818;stroke-width:0.5;stroke-dasharray:5.0,5.0;" x1="702.3062" x2="702.3062" y1="81.2969" y2="480.0234"/><line style="stroke:#181818;stroke-width:0.5;stroke-dasharray:5.0,5.0;" x1="777.9272" x2="777.9272" y1="81.2969" y2="480.0234"/><text fill="#000000" font-family="sans-serif" font-size="14" lengthAdjust="spacing" textLength="63.1709" x="5" y="77.9951">Benutzer</text><ellipse cx="39.5854" cy="13.5" fill="#E2E2F0" rx="8" ry="8" style="stroke:#181818;stroke-width:0.5;"/><path d="M39.5854,21.5 L39.5854,48.5 M26.5854,29.5 L52.5854,29.5 M39.5854,48.5 L26.5854,63.5 M39.5854,48.5 L52.5854,63.5 " fill="none" style="stroke:#181818;stroke-width:0.5;"/><text fill="#000000" font-family="sans-serif" font-size="14" lengthAdjust="spacing" textLength="63.1709" x="5" y="492.0186">Benutzer</text><ellipse cx="39.5854" cy="503.8203" fill="#E2E2F0" rx="8" ry="8" style="stroke:#181818;stroke-width:0.5;"/><path d="M39.5854,511.8203 L39.5854,538.8203 M26.5854,519.8203 L52.5854,519.8203 M39.5854,538.8203 L26.5854,553.8203 M39.5854,538.8203 L52.5854,553.8203 " fill="none" style="stroke:#181818;stroke-width:0.5;"/><rect fill="#E2E2F0" height="30.2969" rx="2.5" ry="2.5" style="stroke:#181818;stroke-width:0.5;" width="85.415" x="242.0366" y="50"/><text fill="#000000" font-family="sans-serif" font-size="14" lengthAdjust="spacing" textLength="71.415" x="249.0366" y="69.9951">JogFit-App</text><rect fill="#E2E2F0" height="30.2969" rx="2.5" ry="2.5" style="stroke:#181818;stroke-width:0.5;" width="85.415" x="242.0366" y="479.0234"/><text fill="#000000" font-family="sans-serif" font-size="14" lengthAdjust="spacing" textLength="71.415" x="249.0366" y="499.0186">JogFit-App</text><rect fill="#E2E2F0" height="30.2969" rx="2.5" ry="2.5" style="stroke:#181818;stroke-width:0.5;" width="59.9102" x="502.6963" y="50"/><text fill="#000000" font-family="sans-serif" font-size="14" lengthAdjust="spacing" textLength="45.9102" x="509.6963" y="69.9951">Server</text><rect fill="#E2E2F0" height="30.2969" rx="2.5" ry="2.5" style="stroke:#181818;stroke-width:0.5;" width="59.9102" x="502.6963" y="479.0234"/><text fill="#000000" font-family="sans-serif" font-size="14" lengthAdjust="spacing" textLength="45.9102" x="509.6963" y="499.0186">Server</text><rect fill="#E2E2F0" height="30.2969" rx="2.5" ry="2.5" style="stroke:#181818;stroke-width:0.5;" width="53.9902" x="676.3062" y="50"/><text fill="#000000" font-family="sans-serif" font-size="14" lengthAdjust="spacing" textLength="39.9902" x="683.3062" y="69.9951">Cloud</text><rect fill="#E2E2F0" height="30.2969" rx="2.5" ry="2.5" style="stroke:#181818;stroke-width:0.5;" width="53.9902" x="676.3062" y="479.0234"/><text fill="#000000" font-family="sans-serif" font-size="14" lengthAdjust="spacing" textLength="39.9902" x="683.3062" y="499.0186">Cloud</text><rect fill="#E2E2F0" height="30.2969" rx="2.5" ry="2.5" style="stroke:#181818;stroke-width:0.5;" width="69.3779" x="743.9272" y="50"/><text fill="#000000" font-family="sans-serif" font-size="14" lengthAdjust="spacing" textLength="55.3779" x="750.9272" y="69.9951">GPS-API</text><rect fill="#E2E2F0" height="30.2969" rx="2.5" ry="2.5" style="stroke:#181818;stroke-width:0.5;" width="69.3779" x="743.9272" y="479.0234"/><text fill="#000000" font-family="sans-serif" font-size="14" lengthAdjust="spacing" textLength="55.3779" x="750.9272" y="499.0186">GPS-API</text><polygon fill="#181818" points="272.7441,108.4297,282.7441,112.4297,272.7441,116.4297,276.7441,112.4297" style="stroke:#181818;stroke-width:1;"/><line style="stroke:#181818;stroke-width:1;stroke-dasharray:2.0,2.0;" x1="39.5854" x2="278.7441" y1="112.4297" y2="112.4297"/><text fill="#000000" font-family="sans-serif" font-size="13" lengthAdjust="spacing" textLength="127.4736" x="46.5854" y="107.3638">Login/Registrierung</text><polygon fill="#181818" points="520.6514,137.5625,530.6514,141.5625,520.6514,145.5625,524.6514,141.5625" style="stroke:#181818;stroke-width:1;"/><line style="stroke:#181818;stroke-width:1;stroke-dasharray:2.0,2.0;" x1="284.7441" x2="526.6514" y1="141.5625" y2="141.5625"/><text fill="#000000" font-family="sans-serif" font-size="13" lengthAdjust="spacing" textLength="217.8896" x="291.7441" y="136.4966">Benutzerinformationen speichern</text><polygon fill="#181818" points="766.6162,166.6953,776.6162,170.6953,766.6162,174.6953,770.6162,170.6953" style="stroke:#181818;stroke-width:1;"/><line style="stroke:#181818;stroke-width:1;stroke-dasharray:2.0,2.0;" x1="284.7441" x2="772.6162" y1="170.6953" y2="170.6953"/><text fill="#000000" font-family="sans-serif" font-size="13" lengthAdjust="spacing" textLength="120.3262" x="291.7441" y="165.6294">Laufdaten abrufen</text><polygon fill="#181818" points="295.7441,195.8281,285.7441,199.8281,295.7441,203.8281,291.7441,199.8281" style="stroke:#181818;stroke-width:1;"/><line style="stroke:#181818;stroke-width:1;stroke-dasharray:2.0,2.0;" x1="289.7441" x2="777.6162" y1="199.8281" y2="199.8281"/><text fill="#000000" font-family="sans-serif" font-size="13" lengthAdjust="spacing" textLength="153.772" x="301.7441" y="194.7622">Laufdaten zur&#252;ckgeben</text><polygon fill="#181818" points="520.6514,224.9609,530.6514,228.9609,520.6514,232.9609,524.6514,228.9609" style="stroke:#181818;stroke-width:1;"/><line style="stroke:#181818;stroke-width:1;stroke-dasharray:2.0,2.0;" x1="284.7441" x2="526.6514" y1="228.9609" y2="228.9609"/><text fill="#000000" font-family="sans-serif" font-size="13" lengthAdjust="spacing" textLength="133.3135" x="291.7441" y="223.895">Laufdaten speichern</text><polygon fill="#181818" points="691.3013,254.0938,701.3013,258.0938,691.3013,262.0938,695.3013,258.0938" style="stroke:#181818;stroke-width:1;"/><line style="stroke:#181818;stroke-width:1;stroke-dasharray:2.0,2.0;" x1="532.6514" x2="697.3013" y1="258.0938" y2="258.0938"/><text fill="#000000" font-family="sans-serif" font-size="13" lengthAdjust="spacing" textLength="146.6499" x="539.6514" y="253.0278">Daten synchronisieren</text><polygon fill="#181818" points="50.5854,283.2266,40.5854,287.2266,50.5854,291.2266,46.5854,287.2266" style="stroke:#181818;stroke-width:1;"/><line style="stroke:#181818;stroke-width:1;stroke-dasharray:2.0,2.0;" x1="44.5854" x2="283.7441" y1="287.2266" y2="287.2266"/><text fill="#000000" font-family="sans-serif" font-size="13" lengthAdjust="spacing" textLength="132.5327" x="56.5854" y="282.1606">Statistiken anzeigen</text><polygon fill="#181818" points="272.7441,312.3594,282.7441,316.3594,272.7441,320.3594,276.7441,316.3594" style="stroke:#181818;stroke-width:1;"/><line style="stroke:#181818;stroke-width:1;stroke-dasharray:2.0,2.0;" x1="39.5854" x2="278.7441" y1="316.3594" y2="316.3594"/><text fill="#000000" font-family="sans-serif" font-size="13" lengthAdjust="spacing" textLength="221.1587" x="46.5854" y="311.2935">Erfolge teilen/Freunde hinzuf&#252;gen</text><polygon fill="#181818" points="520.6514,341.4922,530.6514,345.4922,520.6514,349.4922,524.6514,345.4922" style="stroke:#181818;stroke-width:1;"/><line style="stroke:#181818;stroke-width:1;stroke-dasharray:2.0,2.0;" x1="284.7441" x2="526.6514" y1="345.4922" y2="345.4922"/><text fill="#000000" font-family="sans-serif" font-size="13" lengthAdjust="spacing" textLength="157.3965" x="291.7441" y="340.4263">Soziale Daten speichern</text><polygon fill="#181818" points="50.5854,370.625,40.5854,374.625,50.5854,378.625,46.5854,374.625" style="stroke:#181818;stroke-width:1;"/><line style="stroke:#181818;stroke-width:1;stroke-dasharray:2.0,2.0;" x1="44.5854" x2="531.6514" y1="374.625" y2="374.625"/><text fill="#000000" font-family="sans-serif" font-size="13" lengthAdjust="spacing" textLength="200.7319" x="56.5854" y="369.5591">Freundeslisten/Erfolge abrufen</text><polygon fill="#181818" points="766.6162,399.7578,776.6162,403.7578,766.6162,407.7578,770.6162,403.7578" style="stroke:#181818;stroke-width:1;"/><line style="stroke:#181818;stroke-width:1;stroke-dasharray:2.0,2.0;" x1="532.6514" x2="772.6162" y1="403.7578" y2="403.7578"/><text fill="#000000" font-family="sans-serif" font-size="13" lengthAdjust="spacing" textLength="221.9648" x="539.6514" y="398.6919">Daten werden zentral gespeichert</text><polygon fill="#181818" points="520.6514,428.8906,530.6514,432.8906,520.6514,436.8906,524.6514,432.8906" style="stroke:#181818;stroke-width:1;"/><line style="stroke:#181818;stroke-width:1;stroke-dasharray:2.0,2.0;" x1="284.7441" x2="526.6514" y1="432.8906" y2="432.8906"/><text fill="#000000" font-family="sans-serif" font-size="13" lengthAdjust="spacing" textLength="223.9072" x="291.7441" y="427.8247">Soziale Komponente: Privatsph&#228;re</text><polygon fill="#181818" points="520.6514,458.0234,530.6514,462.0234,520.6514,466.0234,524.6514,462.0234" style="stroke:#181818;stroke-width:1;"/><line style="stroke:#181818;stroke-width:1;stroke-dasharray:2.0,2.0;" x1="284.7441" x2="526.6514" y1="462.0234" y2="462.0234"/><text fill="#000000" font-family="sans-serif" font-size="13" lengthAdjust="spacing" textLength="219.8447" x="291.7441" y="456.9575">Daten&#252;bertragung: API-Sicherheit</text><!--SRC=[TP9DRi8m48NtESM8JLSHUrHLegN_NQ3c12QPE2EC7KriK7EU7eCT5-iu8G5KM6NazppVcubLxXt38zhWM-GagHLxogbMriFam-aNykcyhYUW6f3lfPuXRv4xhIylvIVZGj6fNNKflYwpTBvyxsIfa-GEtbIeXROoAfHG87V08HgawKCyW1byEKrs-esQ6i-47AnEeX8TVGun3VV8beutofEpQA6faV8AsOuNX1rR2h9GNXngnQ54cyJpC-Ieju4F-tojSONsF_NaEv6EOlHrUn3RehVysBnYPwcH8QJREEfzcXwvcPVaZQTrJ6PR92q-MLNcMb86uTDjwZYOnskBUkRI6OtWaGpQwGjZi0L2HRODvM6lhqqmT5xSdc8apU3OiZ4IKWW3S5XYJ9fNEvLN8Xl905jgWZB3n6TD-__GKtV8HLorpCNAWCOXXazk1pwjOWPBfgtoJLqTVXcltEamX_rAEhBIydvc86ynpJf8XUJ_0000]--></g></svg>