<svg xmlns="http://www.w3.org/2000/svg" xmlns:xlink="http://www.w3.org/1999/xlink" contentStyleType="text/css" height="578px" preserveAspectRatio="none" style="width:809px;height:578px;background:#FFFFFF;" version="1.1" viewBox="0 0 809 578" width="809px" zoomAndPan="magnify"><defs/><g><line style="stroke:#181818;stroke-width:0.5;stroke-dasharray:5.0,5.0;" x1="39" x2="39" y1="81.2969" y2="498.0234"/><line style="stroke:#181818;stroke-width:0.5;stroke-dasharray:5.0,5.0;" x1="284.0366" x2="284.0366" y1="81.2969" y2="498.0234"/><line style="stroke:#181818;stroke-width:0.5;stroke-dasharray:5.0,5.0;" x1="525.6787" x2="525.6787" y1="81.2969" y2="498.0234"/><line style="stroke:#181818;stroke-width:0.5;stroke-dasharray:5.0,5.0;" x1="696.2886" x2="696.2886" y1="81.2969" y2="498.0234"/><line style="stroke:#181818;stroke-width:0.5;stroke-dasharray:5.0,5.0;" x1="768.2788" x2="768.2788" y1="81.2969" y2="498.0234"/><text fill="#000000" font-family="sans-serif" font-size="14" lengthAdjust="spacing" textLength="63.1709" x="5" y="77.9951">Benutzer</text><ellipse cx="39.5854" cy="13.5" fill="#E2E2F0" rx="8" ry="8" style="stroke:#181818;stroke-width:0.5;"/><path d="M39.5854,21.5 L39.5854,48.5 M26.5854,29.5 L52.5854,29.5 M39.5854,48.5 L26.5854,63.5 M39.5854,48.5 L52.5854,63.5 " fill="none" style="stroke:#181818;stroke-width:0.5;"/><text fill="#000000" font-family="sans-serif" font-size="14" lengthAdjust="spacing" textLength="63.1709" x="5" y="510.0186">Benutzer</text><ellipse cx="39.5854" cy="521.8203" fill="#E2E2F0" rx="8" ry="8" style="stroke:#181818;stroke-width:0.5;"/><path d="M39.5854,529.8203 L39.5854,556.8203 M26.5854,537.8203 L52.5854,537.8203 M39.5854,556.8203 L26.5854,571.8203 M39.5854,556.8203 L52.5854,571.8203 " fill="none" style="stroke:#181818;stroke-width:0.5;"/><rect fill="#E2E2F0" height="30.2969" rx="2.5" ry="2.5" style="stroke:#181818;stroke-width:0.5;" width="85.415" x="242.0366" y="50"/><text fill="#000000" font-family="sans-serif" font-size="14" lengthAdjust="spacing" textLength="71.415" x="249.0366" y="69.9951">JogFit-App</text><rect fill="#E2E2F0" height="30.2969" rx="2.5" ry="2.5" style="stroke:#181818;stroke-width:0.5;" width="85.415" x="242.0366" y="497.0234"/><text fill="#000000" font-family="sans-serif" font-size="14" lengthAdjust="spacing" textLength="71.415" x="249.0366" y="517.0186">JogFit-App</text><rect fill="#E2E2F0" height="30.2969" rx="2.5" ry="2.5" style="stroke:#181818;stroke-width:0.5;" width="59.9102" x="496.6787" y="50"/><text fill="#000000" font-family="sans-serif" font-size="14" lengthAdjust="spacing" textLength="45.9102" x="503.6787" y="69.9951">Server</text><rect fill="#E2E2F0" height="30.2969" rx="2.5" ry="2.5" style="stroke:#181818;stroke-width:0.5;" width="59.9102" x="496.6787" y="497.0234"/><text fill="#000000" font-family="sans-serif" font-size="14" lengthAdjust="spacing" textLength="45.9102" x="503.6787" y="517.0186">Server</text><rect fill="#E2E2F0" height="30.2969" rx="2.5" ry="2.5" style="stroke:#181818;stroke-width:0.5;" width="53.9902" x="670.2886" y="50"/><text fill="#000000" font-family="sans-serif" font-size="14" lengthAdjust="spacing" textLength="39.9902" x="677.2886" y="69.9951">Cloud</text><rect fill="#E2E2F0" height="30.2969" rx="2.5" ry="2.5" style="stroke:#181818;stroke-width:0.5;" width="53.9902" x="670.2886" y="497.0234"/><text fill="#000000" font-family="sans-serif" font-size="14" lengthAdjust="spacing" textLength="39.9902" x="677.2886" y="517.0186">Cloud</text><rect fill="#E2E2F0" height="30.2969" rx="2.5" ry="2.5" style="stroke:#181818;stroke-width:0.5;" width="69.3779" x="734.2788" y="50"/><text fill="#000000" font-family="sans-serif" font-size="14" lengthAdjust="spacing" textLength="55.3779" x="741.2788" y="69.9951">GPS-API</text><rect fill="#E2E2F0" height="30.2969" rx="2.5" ry="2.5" style="stroke:#181818;stroke-width:0.5;" width="69.3779" x="734.2788" y="497.0234"/><text fill="#000000" font-family="sans-serif" font-size="14" lengthAdjust="spacing" textLength="55.3779" x="741.2788" y="517.0186">GPS-API</text><polygon fill="#181818" points="272.7441,108.4297,282.7441,112.4297,272.7441,116.4297,276.7441,112.4297" style="stroke:#181818;stroke-width:1;"/><line style="stroke:#181818;stroke-width:1;stroke-dasharray:2.0,2.0;" x1="39.5854" x2="278.7441" y1="112.4297" y2="112.4297"/><text fill="#000000" font-family="sans-serif" font-size="13" lengthAdjust="spacing" textLength="127.4736" x="46.5854" y="107.3638">Login/Registrierung</text><polygon fill="#181818" points="514.6338,137.5625,524.6338,141.5625,514.6338,145.5625,518.6338,141.5625" style="stroke:#181818;stroke-width:1;"/><line style="stroke:#181818;stroke-width:1;stroke-dasharray:2.0,2.0;" x1="284.7441" x2="520.6338" y1="141.5625" y2="141.5625"/><text fill="#000000" font-family="sans-serif" font-size="13" lengthAdjust="spacing" textLength="217.8896" x="291.7441" y="136.4966">Benutzerinformationen speichern</text><polygon fill="#181818" points="756.9678,166.6953,766.9678,170.6953,756.9678,174.6953,760.9678,170.6953" style="stroke:#181818;stroke-width:1;"/><line style="stroke:#181818;stroke-width:1;stroke-dasharray:2.0,2.0;" x1="284.7441" x2="762.9678" y1="170.6953" y2="170.6953"/><text fill="#000000" font-family="sans-serif" font-size="13" lengthAdjust="spacing" textLength="120.3262" x="291.7441" y="165.6294">Laufdaten abrufen</text><polygon fill="#181818" points="295.7441,195.8281,285.7441,199.8281,295.7441,203.8281,291.7441,199.8281" style="stroke:#181818;stroke-width:1;"/><line style="stroke:#181818;stroke-width:1;stroke-dasharray:2.0,2.0;" x1="289.7441" x2="767.9678" y1="199.8281" y2="199.8281"/><text fill="#000000" font-family="sans-serif" font-size="13" lengthAdjust="spacing" textLength="153.772" x="301.7441" y="194.7622">Laufdaten zur&#252;ckgeben</text><polygon fill="#181818" points="514.6338,224.9609,524.6338,228.9609,514.6338,232.9609,518.6338,228.9609" style="stroke:#181818;stroke-width:1;"/><line style="stroke:#181818;stroke-width:1;stroke-dasharray:2.0,2.0;" x1="284.7441" x2="520.6338" y1="228.9609" y2="228.9609"/><text fill="#000000" font-family="sans-serif" font-size="13" lengthAdjust="spacing" textLength="133.3135" x="291.7441" y="223.895">Laufdaten speichern</text><polygon fill="#181818" points="685.2837,254.0938,695.2837,258.0938,685.2837,262.0938,689.2837,258.0938" style="stroke:#181818;stroke-width:1;"/><line style="stroke:#181818;stroke-width:1;stroke-dasharray:2.0,2.0;" x1="526.6338" x2="691.2837" y1="258.0938" y2="258.0938"/><text fill="#000000" font-family="sans-serif" font-size="13" lengthAdjust="spacing" textLength="146.6499" x="533.6338" y="253.0278">Daten synchronisieren</text><polygon fill="#181818" points="50.5854,283.2266,40.5854,287.2266,50.5854,291.2266,46.5854,287.2266" style="stroke:#181818;stroke-width:1;"/><line style="stroke:#181818;stroke-width:1;stroke-dasharray:2.0,2.0;" x1="44.5854" x2="283.7441" y1="287.2266" y2="287.2266"/><text fill="#000000" font-family="sans-serif" font-size="13" lengthAdjust="spacing" textLength="132.5327" x="56.5854" y="282.1606">Statistiken anzeigen</text><polygon fill="#181818" points="272.7441,312.3594,282.7441,316.3594,272.7441,320.3594,276.7441,316.3594" style="stroke:#181818;stroke-width:1;"/><line style="stroke:#181818;stroke-width:1;stroke-dasharray:2.0,2.0;" x1="39.5854" x2="278.7441" y1="316.3594" y2="316.3594"/><text fill="#000000" font-family="sans-serif" font-size="13" lengthAdjust="spacing" textLength="221.1587" x="46.5854" y="311.2935">Erfolge teilen/Freunde hinzuf&#252;gen</text><polygon fill="#181818" points="514.6338,341.4922,524.6338,345.4922,514.6338,349.4922,518.6338,345.4922" style="stroke:#181818;stroke-width:1;"/><line style="stroke:#181818;stroke-width:1;stroke-dasharray:2.0,2.0;" x1="284.7441" x2="520.6338" y1="345.4922" y2="345.4922"/><text fill="#000000" font-family="sans-serif" font-size="13" lengthAdjust="spacing" textLength="157.3965" x="291.7441" y="340.4263">Soziale Daten speichern</text><polygon fill="#181818" points="50.5854,370.625,40.5854,374.625,50.5854,378.625,46.5854,374.625" style="stroke:#181818;stroke-width:1;"/><line style="stroke:#181818;stroke-width:1;stroke-dasharray:2.0,2.0;" x1="44.5854" x2="525.6338" y1="374.625" y2="374.625"/><text fill="#000000" font-family="sans-serif" font-size="13" lengthAdjust="spacing" textLength="200.7319" x="56.5854" y="369.5591">Freundeslisten/Erfolge abrufen</text><path d="M531,387.625 L531,412.625 L785,412.625 L785,397.625 L775,387.625 L531,387.625 " fill="#FF846A" style="stroke:#181818;stroke-width:0.5;"/><path d="M775,387.625 L775,397.625 L785,397.625 L775,387.625 " fill="#FF846A" style="stroke:#181818;stroke-width:0.5;"/><text fill="#000000" font-family="sans-serif" font-size="13" lengthAdjust="spacing" textLength="233.9238" x="537" y="404.6919">"Daten werden zentral gespeichert"</text><path d="M289,422.7578 L289,447.7578 L545,447.7578 L545,432.7578 L535,422.7578 L289,422.7578 " fill="#FF846A" style="stroke:#181818;stroke-width:0.5;"/><path d="M535,422.7578 L535,432.7578 L545,432.7578 L535,422.7578 " fill="#FF846A" style="stroke:#181818;stroke-width:0.5;"/><text fill="#000000" font-family="sans-serif" font-size="13" lengthAdjust="spacing" textLength="235.8662" x="295" y="439.8247">"Soziale Komponente: Privatsph&#228;re"</text><path d="M289,457.8906 L289,482.8906 L541,482.8906 L541,467.8906 L531,457.8906 L289,457.8906 " fill="#FF846A" style="stroke:#181818;stroke-width:0.5;"/><path d="M531,457.8906 L531,467.8906 L541,467.8906 L531,457.8906 " fill="#FF846A" style="stroke:#181818;stroke-width:0.5;"/><text fill="#000000" font-family="sans-serif" font-size="13" lengthAdjust="spacing" textLength="231.8037" x="295" y="474.9575">"Daten&#252;bertragung: API-Sicherheit"</text><!--SRC=[ZL9BRjim4Dtp50DtqPMGJH44Hb70RU8cQHT6TG9Q6b63C4DXH3gepjDZUEUBTIXRIfoaG5SSy3s-pu2sYa7WAtAA0uendPL85NMM8opkWrjJB5PTjm3RWvxdU8coGncnutWEV_CXrICwJkVWzqrPh3Pt8wopCH_XrgPEtRRUfWPgbD5mYWP5yILVm19-1aTyyGiTzL489R4p6ScCOmubJU-8co2FDb9WPEWxfAf5uVc1UcT9jQnjL8RTIcgGJRv_OJdZGvB3ldfmk4L-w_hCUtOwWPatxa5frqVARwvQ2Kozbb2rkUhdeZZvbb6Jzv4USZ8Ua9poT5Lb6CXwX1_XiSl58hwtg1jfWdS84SaZNwm54zS8BV6GciFUlTTWKhx-TulPQGadoTvhI7MO3ASbvgHL-sIhLc6l6M17VR9-QimX8WYvDa9efWmVrkkhJvShipX6U4Afyzwrf5WF3gTCSM6GQyWQvfLIRZNBlDtL4ZP2EnlxhZty4VnFdJ7EORzLPx5EFzqIz0CNvHYcHNgHvoy0]--></g></svg>