<?xml version="1.0" standalone="no"?>
<!DOCTYPE svg PUBLIC "-//W3C//DTD SVG 20010904//EN"
 "http://www.w3.org/TR/2001/REC-SVG-20010904/DTD/svg10.dtd">
<svg version="1.0" xmlns="http://www.w3.org/2000/svg"
 width="555.000000pt" height="385.000000pt" viewBox="0 0 555.000000 385.000000"
 preserveAspectRatio="xMidYMid meet">

<g transform="translate(0.000000,385.000000) scale(0.100000,-0.100000)"
fill="#000000" stroke="none">
<path d="M0 1925 l0 -1925 2775 0 2775 0 0 1925 0 1925 -2775 0 -2775 0 0
-1925z m407 1869 c-3 -3 -12 -4 -19 -1 -8 3 -5 6 6 6 11 1 17 -2 13 -5z m-47
-7 c0 -2 -10 -12 -22 -23 l-23 -19 19 23 c18 21 26 27 26 19z m95 -17 c10 -11
16 -20 13 -20 -3 0 -13 9 -23 20 -10 11 -16 20 -13 20 3 0 13 -9 23 -20z
m-138 -62 c-3 -8 -6 -5 -6 6 -1 11 2 17 5 13 3 -3 4 -12 1 -19z m160 0 c-3 -8
-6 -5 -6 6 -1 11 2 17 5 13 3 -3 4 -12 1 -19z m-132 -48 c10 -11 16 -20 13
-20 -3 0 -13 9 -23 20 -10 11 -16 20 -13 20 3 0 13 -9 23 -20z m125 17 c0 -2
-10 -12 -22 -23 l-23 -19 19 23 c18 21 26 27 26 19z m-68 -77 l-4 -40 63 -2
64 -2 -62 -3 -63 -4 0 -92 c0 -60 4 -98 13 -107 10 -12 9 -12 -4 -2 -10 8 -19
8 -27 2 -9 -7 -9 -7 -2 2 6 7 10 54 10 105 l0 93 -62 2 -63 2 64 3 63 4 -4 40
c-2 23 1 39 7 39 6 0 9 -16 7 -40z m1936 -257 c-114 -2 -303 -2 -420 0 -117 1
-24 2 207 2 231 0 327 -1 213 -2z m2225 0 c-78 -2 -208 -2 -290 0 -81 1 -17 3
142 3 160 0 226 -2 148 -3z m769 0 c-95 -2 -248 -2 -340 0 -92 1 -14 3 173 3
187 0 262 -2 167 -3z m-3635 -210 c-2 -38 -3 -7 -3 67 0 74 1 105 3 68 2 -38
2 -98 0 -135z m860 0 c-2 -38 -3 -7 -3 67 0 74 1 105 3 68 2 -38 2 -98 0 -135z
m1560 0 c-2 -38 -3 -7 -3 67 0 74 1 105 3 68 2 -38 2 -98 0 -135z m600 0 c-2
-38 -3 -7 -3 67 0 74 1 105 3 68 2 -38 2 -98 0 -135z m100 -5 c-1 -40 -3 -10
-3 67 0 77 1 110 3 73 2 -37 2 -100 0 -140z m690 0 c-1 -40 -3 -10 -3 67 0 77
1 110 3 73 2 -37 2 -100 0 -140z m-5157 179 c0 -2 -10 -12 -22 -23 l-23 -19
19 23 c18 21 26 27 26 19z m115 -17 c10 -11 16 -20 13 -20 -3 0 -13 9 -23 20
-10 11 -16 20 -13 20 3 0 13 -9 23 -20z m1620 -40 c3 -5 1 -10 -4 -10 -6 0
-11 5 -11 10 0 6 2 10 4 10 3 0 8 -4 11 -10z m-285 -53 c0 -50 -12 -77 -34
-77 -6 0 -5 5 2 12 7 7 12 36 12 65 0 29 5 53 10 53 6 0 10 -24 10 -53z m233
46 c-13 -2 -23 -11 -23 -19 0 -8 10 -15 23 -15 l22 -2 -22 -4 c-16 -3 -23 -11
-23 -29 0 -13 -4 -24 -10 -24 -5 0 -10 23 -10 50 l0 50 33 -1 c23 -1 26 -3 10
-6z m103 -8 c9 -8 11 -15 5 -15 -15 0 -14 -57 2 -64 6 -3 3 -5 -8 -3 -16 2
-21 11 -23 50 -3 50 1 56 24 32z m149 -31 c9 -25 14 -48 11 -51 -3 -3 -8 2
-12 11 -8 20 -43 21 -50 1 -4 -8 -10 -15 -15 -15 -5 0 -4 11 1 25 6 14 14 36
20 50 14 36 25 31 45 -21z m1965 39 c-42 -8 -46 -22 -11 -34 24 -9 31 -16 29
-33 -2 -16 -11 -22 -35 -24 -18 -2 -33 1 -33 6 0 5 11 7 24 5 36 -7 41 14 6
32 -47 25 -39 56 14 54 27 -2 28 -2 6 -6z m720 -2 c0 -4 -10 -6 -23 -4 -14 3
-29 -2 -37 -11 -18 -22 2 -66 30 -66 22 0 28 25 8 33 -7 3 -3 6 10 6 19 1 23
-4 20 -21 -4 -27 -50 -37 -74 -17 -17 14 -19 60 -2 77 14 14 68 16 68 3z m95
-21 c0 -18 -6 -26 -22 -28 -15 -2 -23 -10 -23 -23 0 -10 -4 -19 -10 -19 -5 0
-10 23 -10 51 l0 50 33 -3 c27 -2 32 -7 32 -28z m75 23 c-42 -8 -46 -22 -11
-34 24 -9 31 -16 29 -33 -2 -16 -11 -22 -35 -24 -18 -2 -33 1 -33 6 0 5 11 7
24 5 36 -7 41 14 6 32 -47 25 -39 56 14 54 27 -2 28 -2 6 -6z m155 -39 c9 -25
14 -48 11 -51 -3 -3 -8 2 -12 11 -8 20 -43 21 -50 1 -4 -8 -10 -15 -15 -15 -5
0 -4 11 1 25 6 14 14 36 20 50 14 36 25 31 45 -21z m90 16 c0 -18 -6 -26 -22
-28 -15 -2 -23 -10 -23 -23 0 -10 -4 -19 -10 -19 -5 0 -10 23 -10 51 l0 50 33
-3 c27 -2 32 -7 32 -28z m45 -20 c0 -27 -4 -50 -10 -50 -5 0 -10 23 -10 50 0
28 5 50 10 50 6 0 10 -22 10 -50z m-3550 15 c7 -9 10 -25 6 -41 -5 -20 -12
-25 -34 -22 -21 2 -28 9 -30 32 -5 42 32 62 58 31z m68 9 c42 -12 23 -105 -21
-103 -21 0 -21 1 3 11 l25 11 -25 6 c-25 7 -37 38 -26 67 6 16 11 16 44 8z
m142 -40 c0 -19 -4 -34 -10 -34 -5 0 -10 18 -10 41 0 24 4 38 10 34 6 -3 10
-22 10 -41z m280 31 c18 -22 8 -60 -17 -63 -13 -2 -23 -10 -23 -18 0 -8 -4
-14 -10 -14 -5 0 -10 24 -10 53 0 48 2 53 24 55 13 1 29 -5 36 -13z m90 0 c18
-22 8 -60 -17 -63 -13 -2 -23 -10 -23 -18 0 -8 -4 -14 -10 -14 -5 0 -10 24
-10 53 0 48 2 53 24 55 13 1 29 -5 36 -13z m1880 0 c16 -19 4 -35 -28 -35 -28
0 -21 -14 13 -23 12 -3 8 -5 -10 -4 -23 2 -31 7 -33 25 -6 42 33 68 58 37z
m67 4 c-10 -6 -17 -22 -17 -39 0 -17 -4 -30 -10 -30 -5 0 -10 17 -10 38 0 33
3 37 27 39 22 1 24 -1 10 -8z m69 -20 c8 19 17 32 19 29 8 -7 -24 -78 -34 -78
-5 0 -14 14 -20 31 -16 46 -12 60 6 19 l15 -35 14 34z m94 16 c16 -19 4 -35
-28 -35 -28 0 -21 -14 13 -23 12 -3 8 -5 -10 -4 -23 2 -31 7 -33 25 -6 42 33
68 58 37z m67 4 c-10 -6 -17 -22 -17 -39 0 -17 -4 -30 -10 -30 -5 0 -10 17
-10 38 0 33 3 37 27 39 22 1 24 -1 10 -8z m-2440 -35 c-3 -3 -12 -4 -19 -1 -8
3 -5 6 6 6 11 1 17 -2 13 -5z m3010 0 c-3 -3 -12 -4 -19 -1 -8 3 -5 6 6 6 11
1 17 -2 13 -5z m-5082 -39 c1 -11 4 -26 9 -33 12 -19 -13 -42 -45 -42 -28 0
-29 2 -29 51 l0 50 33 -3 c24 -2 32 -8 32 -23z m321 10 c9 -8 11 -15 5 -15 -6
0 -11 -13 -11 -30 0 -39 22 -39 49 -1 l21 30 -22 4 c-17 3 -14 5 10 6 37 1 40
-8 12 -34 -26 -23 -25 -33 3 -38 12 -3 -3 -4 -33 -3 l-55 1 -3 48 c-3 50 1 56
24 32z m-226 -20 c16 -19 4 -35 -28 -35 -28 0 -21 -14 13 -23 12 -3 8 -5 -10
-4 -23 2 -31 7 -33 25 -6 42 33 68 58 37z m78 2 c14 -9 17 -67 3 -67 -6 0 -11
15 -13 33 -2 17 -7 32 -13 32 -5 0 -11 -15 -13 -32 -4 -46 -22 -41 -22 5 0 33
3 38 23 37 12 0 28 -4 35 -8z m52 -28 c0 -19 5 -29 15 -29 10 0 15 10 15 30 0
17 5 30 10 30 6 0 10 -16 10 -36 0 -34 -1 -35 -32 -32 -30 3 -33 6 -36 42 -2
25 0 36 7 31 6 -3 11 -19 11 -36z m260 26 c16 -19 4 -35 -28 -35 -28 0 -21
-14 13 -23 12 -3 8 -5 -10 -4 -23 2 -31 7 -33 25 -6 42 33 68 58 37z m57 4
c-10 -6 -17 -22 -17 -39 0 -17 -4 -30 -10 -30 -5 0 -10 17 -10 38 0 33 3 37
27 39 22 1 24 -1 10 -8z m1666 -96 c-111 -2 -295 -2 -410 0 -114 1 -23 2 202
2 226 0 319 -1 208 -2z m2225 0 c-75 -2 -201 -2 -280 0 -79 1 -17 3 137 3 154
0 218 -2 143 -3z m770 0 c-93 -2 -243 -2 -335 0 -93 1 -17 3 167 3 184 0 260
-2 168 -3z m-4931 -45 c-3 -7 -5 -2 -5 12 0 14 2 19 5 13 2 -7 2 -19 0 -25z
m1720 0 c-3 -7 -5 -2 -5 12 0 14 2 19 5 13 2 -7 2 -19 0 -25z m2290 0 c-3 -7
-5 -2 -5 12 0 14 2 19 5 13 2 -7 2 -19 0 -25z m750 0 c-3 -7 -5 -2 -5 12 0 14
2 19 5 13 2 -7 2 -19 0 -25z m-4760 -100 c-3 -7 -5 -2 -5 12 0 14 2 19 5 13 2
-7 2 -19 0 -25z m1720 0 c-3 -7 -5 -2 -5 12 0 14 2 19 5 13 2 -7 2 -19 0 -25z
m2290 0 c-3 -7 -5 -2 -5 12 0 14 2 19 5 13 2 -7 2 -19 0 -25z m750 0 c-3 -7
-5 -2 -5 12 0 14 2 19 5 13 2 -7 2 -19 0 -25z m-4415 -27 c-7 -4 -12 -12 -11
-17 4 -25 -2 -74 -10 -74 -14 0 -18 62 -6 83 5 9 17 17 25 17 12 0 12 -2 2 -9z
m78 -42 c0 -49 -1 -50 -27 -47 -24 3 -28 8 -28 33 0 23 5 31 23 33 12 2 22 10
22 18 0 8 2 14 5 14 3 0 5 -23 5 -51z m553 44 c-25 -10 -12 -23 22 -23 40 0
44 -9 14 -36 l-21 -19 24 -6 c22 -7 22 -7 -4 -8 -33 -1 -33 1 -12 34 16 24 16
25 -10 25 -22 0 -26 -4 -26 -30 0 -40 -18 -38 -22 3 -4 38 11 67 32 66 10 0
11 -2 3 -6z m300 -25 c18 -2 22 -10 23 -38 l2 -35 -5 33 c-6 42 -35 40 -44 -3
-5 -22 -7 -16 -7 25 0 30 2 47 5 38 2 -9 14 -18 26 -20z m-1173 -17 c0 -33 4
-40 23 -44 16 -3 13 -5 -10 -6 -33 -1 -33 0 -33 44 0 25 5 45 10 45 6 0 10
-18 10 -39z m445 11 c-21 -5 -19 -38 3 -52 16 -10 15 -10 -3 -8 -13 2 -22 13
-26 33 -8 44 -2 57 22 42 16 -10 17 -13 4 -15z m-337 -29 c3 -31 1 -33 -27
-33 -24 0 -31 4 -31 19 0 11 10 22 23 26 l22 7 -25 8 c-24 9 -24 9 5 7 26 -2
30 -6 33 -34z m52 -18 c8 0 18 13 21 30 6 29 7 28 8 -8 1 -36 -1 -38 -26 -35
-24 3 -28 8 -30 38 -1 34 -1 34 5 5 4 -17 14 -30 22 -30z m238 18 c3 -31 1
-33 -27 -33 -24 0 -31 4 -31 19 0 11 10 22 23 26 l22 7 -25 8 c-24 9 -24 9 5
7 26 -2 30 -6 33 -34z m130 15 c3 -14 -3 -18 -24 -18 -30 0 -23 -14 11 -23 12
-3 8 -5 -10 -4 -31 2 -43 23 -31 53 8 21 50 14 54 -8z m78 -13 c1 -30 1 -30
-3 -2 -6 38 -36 32 -44 -8 -6 -29 -7 -28 -8 8 -1 36 1 38 27 35 22 -2 27 -8
28 -33z m122 -2 c3 -31 1 -33 -27 -33 -24 0 -31 4 -31 19 0 11 10 22 23 26
l22 7 -25 8 c-24 9 -24 9 5 7 26 -2 30 -6 33 -34z m52 -18 c8 0 18 13 21 30 6
29 7 28 8 -8 1 -36 -1 -38 -26 -35 -24 3 -28 8 -30 38 -1 34 -1 34 5 5 4 -17
14 -30 22 -30z m228 33 c3 -14 -3 -18 -24 -18 -30 0 -23 -14 11 -23 12 -3 8
-5 -10 -4 -31 2 -43 23 -31 53 8 21 50 14 54 -8z m29 -30 c-2 -13 -4 -5 -4 17
-1 22 1 32 4 23 2 -10 2 -28 0 -40z m66 42 c-13 -5 -23 -16 -23 -25 0 -9 10
-20 23 -25 22 -10 22 -10 -3 -7 -42 4 -40 68 2 66 l23 0 -22 -9z m173 -25 c1
-30 1 -30 -3 -2 -6 38 -36 32 -44 -8 -6 -29 -7 -28 -8 8 -1 36 1 38 27 35 22
-2 27 -8 28 -33z m82 13 c3 -14 -3 -18 -24 -18 -30 0 -23 -14 11 -23 12 -3 8
-5 -10 -4 -31 2 -43 23 -31 53 8 21 50 14 54 -8z m78 -13 c1 -30 1 -30 -3 -2
-6 38 -36 32 -44 -8 -6 -29 -7 -28 -8 8 -1 36 1 38 27 35 22 -2 27 -8 28 -33z
m-1539 -17 c-3 -7 -5 -2 -5 12 0 14 2 19 5 13 2 -7 2 -19 0 -25z m1720 0 c-3
-7 -5 -2 -5 12 0 14 2 19 5 13 2 -7 2 -19 0 -25z m2290 0 c-3 -7 -5 -2 -5 12
0 14 2 19 5 13 2 -7 2 -19 0 -25z m750 0 c-3 -7 -5 -2 -5 12 0 14 2 19 5 13 2
-7 2 -19 0 -25z m-3089 -52 c40 -16 52 -24 51 -40 -1 -17 -2 -18 -6 -3 -6 21
-2 21 -59 -3 -49 -22 -65 -21 -39 0 20 16 19 29 -2 53 -10 11 -13 18 -8 16 6
-2 34 -13 63 -23z m-1654 -24 c-6 -4 -14 -14 -17 -22 -4 -10 -6 -8 -6 8 -1 15
5 22 17 22 10 0 13 -3 6 -8z m43 2 c-3 -3 -12 -4 -19 -1 -8 3 -5 6 6 6 11 1
17 -2 13 -5z m40 0 c-3 -3 -12 -4 -19 -1 -8 3 -5 6 6 6 11 1 17 -2 13 -5z m40
0 c-3 -3 -12 -4 -19 -1 -8 3 -5 6 6 6 11 1 17 -2 13 -5z m40 0 c-3 -3 -12 -4
-19 -1 -8 3 -5 6 6 6 11 1 17 -2 13 -5z m40 0 c-3 -3 -12 -4 -19 -1 -8 3 -5 6
6 6 11 1 17 -2 13 -5z m40 0 c-3 -3 -12 -4 -19 -1 -8 3 -5 6 6 6 11 1 17 -2
13 -5z m40 0 c-3 -3 -12 -4 -19 -1 -8 3 -5 6 6 6 11 1 17 -2 13 -5z m40 0 c-3
-3 -12 -4 -19 -1 -8 3 -5 6 6 6 11 1 17 -2 13 -5z m40 0 c-3 -3 -12 -4 -19 -1
-8 3 -5 6 6 6 11 1 17 -2 13 -5z m40 0 c-3 -3 -12 -4 -19 -1 -8 3 -5 6 6 6 11
1 17 -2 13 -5z m40 0 c-3 -3 -12 -4 -19 -1 -8 3 -5 6 6 6 11 1 17 -2 13 -5z
m40 0 c-3 -3 -12 -4 -19 -1 -8 3 -5 6 6 6 11 1 17 -2 13 -5z m40 0 c-3 -3 -12
-4 -19 -1 -8 3 -5 6 6 6 11 1 17 -2 13 -5z m40 0 c-3 -3 -12 -4 -19 -1 -8 3
-5 6 6 6 11 1 17 -2 13 -5z m40 0 c-3 -3 -12 -4 -19 -1 -8 3 -5 6 6 6 11 1 17
-2 13 -5z m40 0 c-3 -3 -12 -4 -19 -1 -8 3 -5 6 6 6 11 1 17 -2 13 -5z m40 0
c-3 -3 -12 -4 -19 -1 -8 3 -5 6 6 6 11 1 17 -2 13 -5z m40 0 c-3 -3 -12 -4
-19 -1 -8 3 -5 6 6 6 11 1 17 -2 13 -5z m40 0 c-3 -3 -12 -4 -19 -1 -8 3 -5 6
6 6 11 1 17 -2 13 -5z m40 0 c-3 -3 -12 -4 -19 -1 -8 3 -5 6 6 6 11 1 17 -2
13 -5z m40 0 c-3 -3 -12 -4 -19 -1 -8 3 -5 6 6 6 11 1 17 -2 13 -5z m40 0 c-3
-3 -12 -4 -19 -1 -8 3 -5 6 6 6 11 1 17 -2 13 -5z m40 0 c-3 -3 -12 -4 -19 -1
-8 3 -5 6 6 6 11 1 17 -2 13 -5z m40 0 c-3 -3 -12 -4 -19 -1 -8 3 -5 6 6 6 11
1 17 -2 13 -5z m40 0 c-3 -3 -12 -4 -19 -1 -8 3 -5 6 6 6 11 1 17 -2 13 -5z
m40 0 c-3 -3 -12 -4 -19 -1 -8 3 -5 6 6 6 11 1 17 -2 13 -5z m40 0 c-3 -3 -12
-4 -19 -1 -8 3 -5 6 6 6 11 1 17 -2 13 -5z m40 0 c-3 -3 -12 -4 -19 -1 -8 3
-5 6 6 6 11 1 17 -2 13 -5z m40 0 c-3 -3 -12 -4 -19 -1 -8 3 -5 6 6 6 11 1 17
-2 13 -5z m40 0 c-3 -3 -12 -4 -19 -1 -8 3 -5 6 6 6 11 1 17 -2 13 -5z m40 0
c-3 -3 -12 -4 -19 -1 -8 3 -5 6 6 6 11 1 17 -2 13 -5z m40 0 c-3 -3 -12 -4
-19 -1 -8 3 -5 6 6 6 11 1 17 -2 13 -5z m40 0 c-3 -3 -12 -4 -19 -1 -8 3 -5 6
6 6 11 1 17 -2 13 -5z m40 0 c-3 -3 -12 -4 -19 -1 -8 3 -5 6 6 6 11 1 17 -2
13 -5z m40 0 c-3 -3 -12 -4 -19 -1 -8 3 -5 6 6 6 11 1 17 -2 13 -5z m40 0 c-3
-3 -12 -4 -19 -1 -8 3 -5 6 6 6 11 1 17 -2 13 -5z m40 0 c-3 -3 -12 -4 -19 -1
-8 3 -5 6 6 6 11 1 17 -2 13 -5z m40 0 c-3 -3 -12 -4 -19 -1 -8 3 -5 6 6 6 11
1 17 -2 13 -5z m40 0 c-3 -3 -12 -4 -19 -1 -8 3 -5 6 6 6 11 1 17 -2 13 -5z
m40 0 c-3 -3 -12 -4 -19 -1 -8 3 -5 6 6 6 11 1 17 -2 13 -5z m2390 -26 c-3 -7
-5 -2 -5 12 0 14 2 19 5 13 2 -7 2 -19 0 -25z m750 0 c-3 -7 -5 -2 -5 12 0 14
2 19 5 13 2 -7 2 -19 0 -25z m-4760 -100 c-3 -7 -5 -2 -5 12 0 14 2 19 5 13 2
-7 2 -19 0 -25z m1720 0 c-3 -7 -5 -2 -5 12 0 14 2 19 5 13 2 -7 2 -19 0 -25z
m2290 0 c-3 -7 -5 -2 -5 12 0 14 2 19 5 13 2 -7 2 -19 0 -25z m750 0 c-3 -7
-5 -2 -5 12 0 14 2 19 5 13 2 -7 2 -19 0 -25z m-2685 -17 c-7 -4 -12 -12 -11
-17 4 -25 -2 -74 -10 -74 -14 0 -18 62 -6 83 5 9 17 17 25 17 12 0 12 -2 2 -9z
m68 -42 c0 -49 -1 -50 -27 -47 -24 3 -28 8 -28 33 0 23 5 31 23 33 12 2 22 10
22 18 0 8 2 14 5 14 3 0 5 -23 5 -51z m475 21 c14 0 25 -7 28 -19 7 -27 -11
-51 -38 -51 -24 0 -25 3 -24 53 1 28 3 44 6 35 3 -11 14 -18 28 -18z m217 21
c-7 -4 -12 -12 -11 -17 4 -25 -2 -74 -10 -74 -14 0 -18 62 -6 83 5 9 17 17 25
17 12 0 12 -2 2 -9z m-1012 -40 c0 -33 4 -40 23 -44 16 -3 13 -5 -10 -6 -33
-1 -33 0 -33 44 0 25 5 45 10 45 6 0 10 -18 10 -39z m455 11 c-21 -5 -19 -38
3 -52 16 -10 15 -10 -3 -8 -13 2 -22 13 -26 33 -8 44 -2 57 22 42 16 -10 17
-13 4 -15z m-337 -29 c3 -31 1 -33 -27 -33 -24 0 -31 4 -31 19 0 11 10 22 23
26 l22 7 -25 8 c-24 9 -24 9 5 7 26 -2 30 -6 33 -34z m52 -18 c8 0 18 13 21
30 6 29 7 28 8 -8 1 -36 -1 -38 -26 -35 -24 3 -28 8 -30 38 -1 34 -1 34 5 5 4
-17 14 -30 22 -30z m238 18 c3 -31 1 -33 -27 -33 -24 0 -31 4 -31 19 0 11 10
22 23 26 l22 7 -25 8 c-24 9 -24 9 5 7 26 -2 30 -6 33 -34z m130 15 c3 -14 -3
-18 -24 -18 -30 0 -23 -14 11 -23 12 -3 8 -5 -10 -4 -31 2 -43 23 -31 53 8 21
50 14 54 -8z m78 -13 c1 -30 1 -30 -3 -2 -6 38 -36 32 -44 -8 -6 -29 -7 -28
-8 8 -1 36 1 38 27 35 22 -2 27 -8 28 -33z m122 -2 c3 -31 1 -33 -27 -33 -24
0 -31 4 -31 19 0 11 10 22 23 26 l22 7 -25 8 c-24 9 -24 9 5 7 26 -2 30 -6 33
-34z m134 28 c-7 -4 -17 -21 -22 -37 -8 -29 -8 -29 -9 9 -1 32 2 37 22 37 15
0 18 -3 9 -9z m58 -46 c8 0 18 13 21 30 6 29 7 28 8 -8 1 -36 -1 -38 -26 -35
-24 3 -28 8 -30 38 -1 34 -1 34 5 5 4 -17 14 -30 22 -30z m148 33 c3 -14 -3
-18 -24 -18 -30 0 -23 -14 11 -23 12 -3 8 -5 -10 -4 -31 2 -43 23 -31 53 8 21
50 14 54 -8z m78 -13 c1 -30 1 -30 -3 -2 -6 38 -36 32 -44 -8 -6 -29 -7 -28
-8 8 -1 36 1 38 27 35 22 -2 27 -8 28 -33z m-2979 -27 c-3 -7 -5 -2 -5 12 0
14 2 19 5 13 2 -7 2 -19 0 -25z m1720 0 c-3 -7 -5 -2 -5 12 0 14 2 19 5 13 2
-7 2 -19 0 -25z m2290 0 c-3 -7 -5 -2 -5 12 0 14 2 19 5 13 2 -7 2 -19 0 -25z
m750 0 c-3 -7 -5 -2 -5 12 0 14 2 19 5 13 2 -7 2 -19 0 -25z m-52 -42 c45 -20
55 -29 54 -48 l-2 -23 -4 23 c-5 27 -1 26 -58 2 -26 -11 -49 -20 -52 -20 -4 0
2 9 12 20 17 19 17 20 -1 21 -18 1 -18 2 -1 6 18 5 18 6 1 24 -22 25 -16 24
51 -5z m-2967 -23 c-10 -2 -18 -14 -19 -26 0 -12 -3 -16 -6 -9 -8 20 5 42 24
41 17 -1 17 -2 1 -6z m49 1 c-3 -3 -12 -4 -19 -1 -8 3 -5 6 6 6 11 1 17 -2 13
-5z m40 0 c-3 -3 -12 -4 -19 -1 -8 3 -5 6 6 6 11 1 17 -2 13 -5z m40 0 c-3 -3
-12 -4 -19 -1 -8 3 -5 6 6 6 11 1 17 -2 13 -5z m40 0 c-3 -3 -12 -4 -19 -1 -8
3 -5 6 6 6 11 1 17 -2 13 -5z m40 0 c-3 -3 -12 -4 -19 -1 -8 3 -5 6 6 6 11 1
17 -2 13 -5z m40 0 c-3 -3 -12 -4 -19 -1 -8 3 -5 6 6 6 11 1 17 -2 13 -5z m40
0 c-3 -3 -12 -4 -19 -1 -8 3 -5 6 6 6 11 1 17 -2 13 -5z m40 0 c-3 -3 -12 -4
-19 -1 -8 3 -5 6 6 6 11 1 17 -2 13 -5z m40 0 c-3 -3 -12 -4 -19 -1 -8 3 -5 6
6 6 11 1 17 -2 13 -5z m40 0 c-3 -3 -12 -4 -19 -1 -8 3 -5 6 6 6 11 1 17 -2
13 -5z m40 0 c-3 -3 -12 -4 -19 -1 -8 3 -5 6 6 6 11 1 17 -2 13 -5z m40 0 c-3
-3 -12 -4 -19 -1 -8 3 -5 6 6 6 11 1 17 -2 13 -5z m40 0 c-3 -3 -12 -4 -19 -1
-8 3 -5 6 6 6 11 1 17 -2 13 -5z m40 0 c-3 -3 -12 -4 -19 -1 -8 3 -5 6 6 6 11
1 17 -2 13 -5z m40 0 c-3 -3 -12 -4 -19 -1 -8 3 -5 6 6 6 11 1 17 -2 13 -5z
m40 0 c-3 -3 -12 -4 -19 -1 -8 3 -5 6 6 6 11 1 17 -2 13 -5z m40 0 c-3 -3 -12
-4 -19 -1 -8 3 -5 6 6 6 11 1 17 -2 13 -5z m40 0 c-3 -3 -12 -4 -19 -1 -8 3
-5 6 6 6 11 1 17 -2 13 -5z m40 0 c-3 -3 -12 -4 -19 -1 -8 3 -5 6 6 6 11 1 17
-2 13 -5z m40 0 c-3 -3 -12 -4 -19 -1 -8 3 -5 6 6 6 11 1 17 -2 13 -5z m40 0
c-3 -3 -12 -4 -19 -1 -8 3 -5 6 6 6 11 1 17 -2 13 -5z m40 0 c-3 -3 -12 -4
-19 -1 -8 3 -5 6 6 6 11 1 17 -2 13 -5z m40 0 c-3 -3 -12 -4 -19 -1 -8 3 -5 6
6 6 11 1 17 -2 13 -5z m40 0 c-3 -3 -12 -4 -19 -1 -8 3 -5 6 6 6 11 1 17 -2
13 -5z m40 0 c-3 -3 -12 -4 -19 -1 -8 3 -5 6 6 6 11 1 17 -2 13 -5z m40 0 c-3
-3 -12 -4 -19 -1 -8 3 -5 6 6 6 11 1 17 -2 13 -5z m40 0 c-3 -3 -12 -4 -19 -1
-8 3 -5 6 6 6 11 1 17 -2 13 -5z m40 0 c-3 -3 -12 -4 -19 -1 -8 3 -5 6 6 6 11
1 17 -2 13 -5z m40 0 c-3 -3 -12 -4 -19 -1 -8 3 -5 6 6 6 11 1 17 -2 13 -5z
m40 0 c-3 -3 -12 -4 -19 -1 -8 3 -5 6 6 6 11 1 17 -2 13 -5z m40 0 c-3 -3 -12
-4 -19 -1 -8 3 -5 6 6 6 11 1 17 -2 13 -5z m40 0 c-3 -3 -12 -4 -19 -1 -8 3
-5 6 6 6 11 1 17 -2 13 -5z m40 0 c-3 -3 -12 -4 -19 -1 -8 3 -5 6 6 6 11 1 17
-2 13 -5z m40 0 c-3 -3 -12 -4 -19 -1 -8 3 -5 6 6 6 11 1 17 -2 13 -5z m40 0
c-3 -3 -12 -4 -19 -1 -8 3 -5 6 6 6 11 1 17 -2 13 -5z m40 0 c-3 -3 -12 -4
-19 -1 -8 3 -5 6 6 6 11 1 17 -2 13 -5z m40 0 c-3 -3 -12 -4 -19 -1 -8 3 -5 6
6 6 11 1 17 -2 13 -5z m40 0 c-3 -3 -12 -4 -19 -1 -8 3 -5 6 6 6 11 1 17 -2
13 -5z m40 0 c-3 -3 -12 -4 -19 -1 -8 3 -5 6 6 6 11 1 17 -2 13 -5z m40 0 c-3
-3 -12 -4 -19 -1 -8 3 -5 6 6 6 11 1 17 -2 13 -5z m40 0 c-3 -3 -12 -4 -19 -1
-8 3 -5 6 6 6 11 1 17 -2 13 -5z m40 0 c-3 -3 -12 -4 -19 -1 -8 3 -5 6 6 6 11
1 17 -2 13 -5z m40 0 c-3 -3 -12 -4 -19 -1 -8 3 -5 6 6 6 11 1 17 -2 13 -5z
m40 0 c-3 -3 -12 -4 -19 -1 -8 3 -5 6 6 6 11 1 17 -2 13 -5z m40 0 c-3 -3 -12
-4 -19 -1 -8 3 -5 6 6 6 11 1 17 -2 13 -5z m40 0 c-3 -3 -12 -4 -19 -1 -8 3
-5 6 6 6 11 1 17 -2 13 -5z m40 0 c-3 -3 -12 -4 -19 -1 -8 3 -5 6 6 6 11 1 17
-2 13 -5z m40 0 c-3 -3 -12 -4 -19 -1 -8 3 -5 6 6 6 11 1 17 -2 13 -5z m40 0
c-3 -3 -12 -4 -19 -1 -8 3 -5 6 6 6 11 1 17 -2 13 -5z m40 0 c-3 -3 -12 -4
-19 -1 -8 3 -5 6 6 6 11 1 17 -2 13 -5z m40 0 c-3 -3 -12 -4 -19 -1 -8 3 -5 6
6 6 11 1 17 -2 13 -5z m40 0 c-3 -3 -12 -4 -19 -1 -8 3 -5 6 6 6 11 1 17 -2
13 -5z m40 0 c-3 -3 -12 -4 -19 -1 -8 3 -5 6 6 6 11 1 17 -2 13 -5z m40 0 c-3
-3 -12 -4 -19 -1 -8 3 -5 6 6 6 11 1 17 -2 13 -5z m40 0 c-3 -3 -12 -4 -19 -1
-8 3 -5 6 6 6 11 1 17 -2 13 -5z m40 0 c-3 -3 -12 -4 -19 -1 -8 3 -5 6 6 6 11
1 17 -2 13 -5z m37 -2 c-7 -4 -14 -16 -17 -27 -4 -15 -5 -14 -6 8 -1 20 4 27
17 27 11 0 13 -3 6 -8z m43 2 c-3 -3 -12 -4 -19 -1 -8 3 -5 6 6 6 11 1 17 -2
13 -5z m40 0 c-3 -3 -12 -4 -19 -1 -8 3 -5 6 6 6 11 1 17 -2 13 -5z m40 0 c-3
-3 -12 -4 -19 -1 -8 3 -5 6 6 6 11 1 17 -2 13 -5z m40 0 c-3 -3 -12 -4 -19 -1
-8 3 -5 6 6 6 11 1 17 -2 13 -5z m40 0 c-3 -3 -12 -4 -19 -1 -8 3 -5 6 6 6 11
1 17 -2 13 -5z m40 0 c-3 -3 -12 -4 -19 -1 -8 3 -5 6 6 6 11 1 17 -2 13 -5z
m40 0 c-3 -3 -12 -4 -19 -1 -8 3 -5 6 6 6 11 1 17 -2 13 -5z m40 0 c-3 -3 -12
-4 -19 -1 -8 3 -5 6 6 6 11 1 17 -2 13 -5z m40 0 c-3 -3 -12 -4 -19 -1 -8 3
-5 6 6 6 11 1 17 -2 13 -5z m40 0 c-3 -3 -12 -4 -19 -1 -8 3 -5 6 6 6 11 1 17
-2 13 -5z m40 0 c-3 -3 -12 -4 -19 -1 -8 3 -5 6 6 6 11 1 17 -2 13 -5z m40 0
c-3 -3 -12 -4 -19 -1 -8 3 -5 6 6 6 11 1 17 -2 13 -5z m40 0 c-3 -3 -12 -4
-19 -1 -8 3 -5 6 6 6 11 1 17 -2 13 -5z m40 0 c-3 -3 -12 -4 -19 -1 -8 3 -5 6
6 6 11 1 17 -2 13 -5z m40 0 c-3 -3 -12 -4 -19 -1 -8 3 -5 6 6 6 11 1 17 -2
13 -5z m-4630 -36 c-3 -7 -5 -2 -5 12 0 14 2 19 5 13 2 -7 2 -19 0 -25z m0
-100 c-3 -7 -5 -2 -5 12 0 14 2 19 5 13 2 -7 2 -19 0 -25z m1720 0 c-3 -7 -5
-2 -5 12 0 14 2 19 5 13 2 -7 2 -19 0 -25z m2290 0 c-3 -7 -5 -2 -5 12 0 14 2
19 5 13 2 -7 2 -19 0 -25z m750 0 c-3 -7 -5 -2 -5 12 0 14 2 19 5 13 2 -7 2
-19 0 -25z m-2585 -17 c-7 -4 -12 -12 -11 -17 4 -25 -2 -74 -10 -74 -14 0 -18
62 -6 83 5 9 17 17 25 17 12 0 12 -2 2 -9z m68 -42 c0 -49 -1 -50 -27 -47 -24
3 -28 8 -28 33 0 23 5 31 23 33 12 2 22 10 22 18 0 8 2 14 5 14 3 0 5 -23 5
-51z m740 1 c5 0 12 5 15 10 3 6 12 10 18 10 7 0 3 -7 -7 -15 -19 -14 -19 -15
-1 -35 10 -11 13 -20 8 -20 -6 0 -17 7 -24 16 -12 14 -14 14 -20 -3 -5 -10 -7
5 -7 37 1 30 3 43 5 28 2 -16 8 -28 13 -28z m255 20 c14 0 25 -7 28 -19 7 -27
-11 -51 -38 -51 -24 0 -25 3 -24 53 1 28 3 44 6 35 3 -11 14 -18 28 -18z
m-1315 -19 c0 -33 4 -40 23 -44 16 -3 13 -5 -10 -6 -33 -1 -33 0 -33 44 0 25
5 45 10 45 6 0 10 -18 10 -39z m455 11 c-21 -5 -19 -38 3 -52 16 -10 15 -10
-3 -8 -13 2 -22 13 -26 33 -8 44 -2 57 22 42 16 -10 17 -13 4 -15z m-337 -29
c3 -31 1 -33 -27 -33 -24 0 -31 4 -31 19 0 11 10 22 23 26 l22 7 -25 8 c-24 9
-24 9 5 7 26 -2 30 -6 33 -34z m52 -18 c8 0 18 13 21 30 6 29 7 28 8 -8 1 -36
-1 -38 -26 -35 -24 3 -28 8 -30 38 -1 34 -1 34 5 5 4 -17 14 -30 22 -30z m238
18 c3 -31 1 -33 -27 -33 -24 0 -31 4 -31 19 0 11 10 22 23 26 l22 7 -25 8
c-24 9 -24 9 5 7 26 -2 30 -6 33 -34z m130 15 c3 -14 -3 -18 -24 -18 -30 0
-23 -14 11 -23 12 -3 8 -5 -10 -4 -31 2 -43 23 -31 53 8 21 50 14 54 -8z m78
-13 c1 -30 1 -30 -3 -2 -6 38 -36 32 -44 -8 -6 -29 -7 -28 -8 8 -1 36 1 38 27
35 22 -2 27 -8 28 -33z m114 27 c0 -5 -9 -17 -21 -28 l-21 -19 24 -6 c22 -7
22 -7 -4 -8 -32 -1 -34 5 -12 34 13 18 13 20 -3 27 -14 5 -12 7 10 7 15 1 27
-3 27 -7z m50 -47 c8 0 18 13 21 30 6 29 7 28 8 -8 1 -36 -1 -38 -26 -35 -24
3 -28 8 -30 38 -1 34 -1 34 5 5 4 -17 14 -30 22 -30z m82 46 c-7 -4 -17 -21
-22 -37 -8 -29 -8 -29 -9 9 -1 32 2 37 22 37 15 0 18 -3 9 -9z m48 -46 c8 0
18 13 21 30 6 29 7 28 8 -8 1 -36 -1 -38 -26 -35 -24 3 -28 8 -30 38 -1 34 -1
34 5 5 4 -17 14 -30 22 -30z m93 45 c-13 -5 -23 -16 -23 -25 0 -9 10 -20 23
-25 22 -10 22 -10 -3 -7 -42 4 -40 68 2 66 l23 0 -22 -9z m167 -28 c0 -21 -5
-43 -12 -50 -14 -14 -38 -16 -38 -3 0 5 7 8 16 7 9 0 19 4 21 10 2 6 -7 10
-19 10 -14 -1 -24 6 -26 17 -6 30 6 47 33 47 22 0 25 -4 25 -38z m88 16 c3
-14 -3 -18 -24 -18 -30 0 -23 -14 11 -23 12 -3 8 -5 -10 -4 -31 2 -43 23 -31
53 8 21 50 14 54 -8z m160 0 c3 -14 -3 -18 -24 -18 -30 0 -23 -14 11 -23 12
-3 8 -5 -10 -4 -31 2 -43 23 -31 53 8 21 50 14 54 -8z m78 -13 c1 -30 1 -30
-3 -2 -6 38 -36 32 -44 -8 -6 -29 -7 -28 -8 8 -1 36 1 38 27 35 22 -2 27 -8
28 -33z m-3419 -27 c-3 -7 -5 -2 -5 12 0 14 2 19 5 13 2 -7 2 -19 0 -25z
m1720 0 c-3 -7 -5 -2 -5 12 0 14 2 19 5 13 2 -7 2 -19 0 -25z m2290 0 c-3 -7
-5 -2 -5 12 0 14 2 19 5 13 2 -7 2 -19 0 -25z m750 0 c-3 -7 -5 -2 -5 12 0 14
2 19 5 13 2 -7 2 -19 0 -25z m-2935 -30 l-22 -22 23 -24 22 -24 -24 7 c-13 4
-40 14 -60 23 l-36 15 50 23 c64 29 75 30 47 2z m15 -24 c-3 -3 -12 -4 -19 -1
-8 3 -5 6 6 6 11 1 17 -2 13 -5z m40 0 c-3 -3 -12 -4 -19 -1 -8 3 -5 6 6 6 11
1 17 -2 13 -5z m40 0 c-3 -3 -12 -4 -19 -1 -8 3 -5 6 6 6 11 1 17 -2 13 -5z
m40 0 c-3 -3 -12 -4 -19 -1 -8 3 -5 6 6 6 11 1 17 -2 13 -5z m40 0 c-3 -3 -12
-4 -19 -1 -8 3 -5 6 6 6 11 1 17 -2 13 -5z m40 0 c-3 -3 -12 -4 -19 -1 -8 3
-5 6 6 6 11 1 17 -2 13 -5z m40 0 c-3 -3 -12 -4 -19 -1 -8 3 -5 6 6 6 11 1 17
-2 13 -5z m40 0 c-3 -3 -12 -4 -19 -1 -8 3 -5 6 6 6 11 1 17 -2 13 -5z m40 0
c-3 -3 -12 -4 -19 -1 -8 3 -5 6 6 6 11 1 17 -2 13 -5z m40 0 c-3 -3 -12 -4
-19 -1 -8 3 -5 6 6 6 11 1 17 -2 13 -5z m40 0 c-3 -3 -12 -4 -19 -1 -8 3 -5 6
6 6 11 1 17 -2 13 -5z m40 0 c-3 -3 -12 -4 -19 -1 -8 3 -5 6 6 6 11 1 17 -2
13 -5z m40 0 c-3 -3 -12 -4 -19 -1 -8 3 -5 6 6 6 11 1 17 -2 13 -5z m40 0 c-3
-3 -12 -4 -19 -1 -8 3 -5 6 6 6 11 1 17 -2 13 -5z m40 0 c-3 -3 -12 -4 -19 -1
-8 3 -5 6 6 6 11 1 17 -2 13 -5z m40 0 c-3 -3 -12 -4 -19 -1 -8 3 -5 6 6 6 11
1 17 -2 13 -5z m40 0 c-3 -3 -12 -4 -19 -1 -8 3 -5 6 6 6 11 1 17 -2 13 -5z
m40 0 c-3 -3 -12 -4 -19 -1 -8 3 -5 6 6 6 11 1 17 -2 13 -5z m40 0 c-3 -3 -12
-4 -19 -1 -8 3 -5 6 6 6 11 1 17 -2 13 -5z m40 0 c-3 -3 -12 -4 -19 -1 -8 3
-5 6 6 6 11 1 17 -2 13 -5z m40 0 c-3 -3 -12 -4 -19 -1 -8 3 -5 6 6 6 11 1 17
-2 13 -5z m40 0 c-3 -3 -12 -4 -19 -1 -8 3 -5 6 6 6 11 1 17 -2 13 -5z m40 0
c-3 -3 -12 -4 -19 -1 -8 3 -5 6 6 6 11 1 17 -2 13 -5z m40 0 c-3 -3 -12 -4
-19 -1 -8 3 -5 6 6 6 11 1 17 -2 13 -5z m40 0 c-3 -3 -12 -4 -19 -1 -8 3 -5 6
6 6 11 1 17 -2 13 -5z m40 0 c-3 -3 -12 -4 -19 -1 -8 3 -5 6 6 6 11 1 17 -2
13 -5z m40 0 c-3 -3 -12 -4 -19 -1 -8 3 -5 6 6 6 11 1 17 -2 13 -5z m40 0 c-3
-3 -12 -4 -19 -1 -8 3 -5 6 6 6 11 1 17 -2 13 -5z m40 0 c-3 -3 -12 -4 -19 -1
-8 3 -5 6 6 6 11 1 17 -2 13 -5z m40 0 c-3 -3 -12 -4 -19 -1 -8 3 -5 6 6 6 11
1 17 -2 13 -5z m40 0 c-3 -3 -12 -4 -19 -1 -8 3 -5 6 6 6 11 1 17 -2 13 -5z
m40 0 c-3 -3 -12 -4 -19 -1 -8 3 -5 6 6 6 11 1 17 -2 13 -5z m40 0 c-3 -3 -12
-4 -19 -1 -8 3 -5 6 6 6 11 1 17 -2 13 -5z m40 0 c-3 -3 -12 -4 -19 -1 -8 3
-5 6 6 6 11 1 17 -2 13 -5z m40 0 c-3 -3 -12 -4 -19 -1 -8 3 -5 6 6 6 11 1 17
-2 13 -5z m40 0 c-3 -3 -12 -4 -19 -1 -8 3 -5 6 6 6 11 1 17 -2 13 -5z m40 0
c-3 -3 -12 -4 -19 -1 -8 3 -5 6 6 6 11 1 17 -2 13 -5z m40 0 c-3 -3 -12 -4
-19 -1 -8 3 -5 6 6 6 11 1 17 -2 13 -5z m40 0 c-3 -3 -12 -4 -19 -1 -8 3 -5 6
6 6 11 1 17 -2 13 -5z m40 0 c-3 -3 -12 -4 -19 -1 -8 3 -5 6 6 6 11 1 17 -2
13 -5z m40 0 c-3 -3 -12 -4 -19 -1 -8 3 -5 6 6 6 11 1 17 -2 13 -5z m40 0 c-3
-3 -12 -4 -19 -1 -8 3 -5 6 6 6 11 1 17 -2 13 -5z m40 0 c-3 -3 -12 -4 -19 -1
-8 3 -5 6 6 6 11 1 17 -2 13 -5z m40 0 c-3 -3 -12 -4 -19 -1 -8 3 -5 6 6 6 11
1 17 -2 13 -5z m40 0 c-3 -3 -12 -4 -19 -1 -8 3 -5 6 6 6 11 1 17 -2 13 -5z
m40 0 c-3 -3 -12 -4 -19 -1 -8 3 -5 6 6 6 11 1 17 -2 13 -5z m40 0 c-3 -3 -12
-4 -19 -1 -8 3 -5 6 6 6 11 1 17 -2 13 -5z m40 0 c-3 -3 -12 -4 -19 -1 -8 3
-5 6 6 6 11 1 17 -2 13 -5z m40 0 c-3 -3 -12 -4 -19 -1 -8 3 -5 6 6 6 11 1 17
-2 13 -5z m40 0 c-3 -3 -12 -4 -19 -1 -8 3 -5 6 6 6 11 1 17 -2 13 -5z m40 0
c-3 -3 -12 -4 -19 -1 -8 3 -5 6 6 6 11 1 17 -2 13 -5z m40 0 c-3 -3 -12 -4
-19 -1 -8 3 -5 6 6 6 11 1 17 -2 13 -5z m40 0 c-3 -3 -12 -4 -19 -1 -8 3 -5 6
6 6 11 1 17 -2 13 -5z m40 0 c-3 -3 -12 -4 -19 -1 -8 3 -5 6 6 6 11 1 17 -2
13 -5z m40 0 c-3 -3 -12 -4 -19 -1 -8 3 -5 6 6 6 11 1 17 -2 13 -5z m40 0 c-3
-3 -12 -4 -19 -1 -8 3 -5 6 6 6 11 1 17 -2 13 -5z m40 0 c-3 -3 -12 -4 -19 -1
-8 3 -5 6 6 6 11 1 17 -2 13 -5z m40 0 c-3 -3 -12 -4 -19 -1 -8 3 -5 6 6 6 11
1 17 -2 13 -5z m40 0 c-3 -3 -12 -4 -19 -1 -8 3 -5 6 6 6 11 1 17 -2 13 -5z
m40 0 c-3 -3 -12 -4 -19 -1 -8 3 -5 6 6 6 11 1 17 -2 13 -5z m40 0 c-3 -3 -12
-4 -19 -1 -8 3 -5 6 6 6 11 1 17 -2 13 -5z m40 0 c-3 -3 -12 -4 -19 -1 -8 3
-5 6 6 6 11 1 17 -2 13 -5z m40 0 c-3 -3 -12 -4 -19 -1 -8 3 -5 6 6 6 11 1 17
-2 13 -5z m40 0 c-3 -3 -12 -4 -19 -1 -8 3 -5 6 6 6 11 1 17 -2 13 -5z m40 0
c-3 -3 -12 -4 -19 -1 -8 3 -5 6 6 6 11 1 17 -2 13 -5z m40 0 c-3 -3 -12 -4
-19 -1 -8 3 -5 6 6 6 11 1 17 -2 13 -5z m40 0 c-3 -3 -12 -4 -19 -1 -8 3 -5 6
6 6 11 1 17 -2 13 -5z m40 0 c-3 -3 -12 -4 -19 -1 -8 3 -5 6 6 6 11 1 17 -2
13 -5z m40 0 c-3 -3 -12 -4 -19 -1 -8 3 -5 6 6 6 11 1 17 -2 13 -5z m40 0 c-3
-3 -12 -4 -19 -1 -8 3 -5 6 6 6 11 1 17 -2 13 -5z m40 0 c-3 -3 -12 -4 -19 -1
-8 3 -5 6 6 6 11 1 17 -2 13 -5z m40 0 c-3 -3 -12 -4 -19 -1 -8 3 -5 6 6 6 11
1 17 -2 13 -5z m40 0 c-3 -3 -12 -4 -19 -1 -8 3 -5 6 6 6 11 1 17 -2 13 -5z
m40 0 c-3 -3 -12 -4 -19 -1 -8 3 -5 6 6 6 11 1 17 -2 13 -5z m-4760 -46 c-3
-7 -5 -2 -5 12 0 14 2 19 5 13 2 -7 2 -19 0 -25z m1720 0 c-3 -7 -5 -2 -5 12
0 14 2 19 5 13 2 -7 2 -19 0 -25z m2290 0 c-3 -7 -5 -2 -5 12 0 14 2 19 5 13
2 -7 2 -19 0 -25z m750 0 c-3 -7 -5 -2 -5 12 0 14 2 19 5 13 2 -7 2 -19 0 -25z
m-4760 -100 c-3 -7 -5 -2 -5 12 0 14 2 19 5 13 2 -7 2 -19 0 -25z m1720 0 c-3
-7 -5 -2 -5 12 0 14 2 19 5 13 2 -7 2 -19 0 -25z m2290 0 c-3 -7 -5 -2 -5 12
0 14 2 19 5 13 2 -7 2 -19 0 -25z m750 0 c-3 -7 -5 -2 -5 12 0 14 2 19 5 13 2
-7 2 -19 0 -25z m-2685 -7 c-7 -4 -12 -12 -11 -17 4 -25 -2 -74 -10 -74 -14 0
-18 62 -6 83 5 9 17 17 25 17 12 0 12 -2 2 -9z m68 -42 c0 -49 -1 -50 -27 -47
-24 3 -28 8 -28 33 0 23 5 31 23 33 12 2 22 10 22 18 0 8 2 14 5 14 3 0 5 -23
5 -51z m733 19 c18 -2 22 -10 23 -38 l2 -35 -5 33 c-6 42 -35 40 -44 -3 -5
-22 -7 -16 -7 25 0 30 2 47 5 38 2 -9 14 -18 26 -20z m-1053 -17 c0 -33 4 -40
23 -44 16 -3 13 -5 -10 -6 -33 -1 -33 0 -33 44 0 25 5 45 10 45 6 0 10 -18 10
-39z m455 11 c-21 -5 -19 -38 3 -52 16 -10 15 -10 -3 -8 -13 2 -22 13 -26 33
-8 44 -2 57 22 42 16 -10 17 -13 4 -15z m-337 -29 c3 -31 1 -33 -27 -33 -24 0
-31 4 -31 19 0 11 10 22 23 26 l22 7 -25 8 c-24 9 -24 9 5 7 26 -2 30 -6 33
-34z m52 -18 c8 0 18 13 21 30 6 29 7 28 8 -8 1 -36 -1 -38 -26 -35 -24 3 -28
8 -30 38 -1 34 -1 34 5 5 4 -17 14 -30 22 -30z m238 18 c3 -31 1 -33 -27 -33
-24 0 -31 4 -31 19 0 11 10 22 23 26 l22 7 -25 8 c-24 9 -24 9 5 7 26 -2 30
-6 33 -34z m130 15 c3 -14 -3 -18 -24 -18 -30 0 -23 -14 11 -23 12 -3 8 -5
-10 -4 -31 2 -43 23 -31 53 8 21 50 14 54 -8z m78 -13 c1 -30 1 -30 -3 -2 -6
38 -36 32 -44 -8 -6 -29 -7 -28 -8 8 -1 36 1 38 27 35 22 -2 27 -8 28 -33z
m95 28 l-25 -5 25 -18 c18 -14 21 -22 13 -30 -7 -7 -20 -10 -30 -7 -16 4 -15
5 4 6 27 1 29 17 2 24 -31 8 -25 37 8 36 26 -2 26 -2 3 -6z m102 -12 c6 -25
-10 -51 -33 -51 -10 0 -21 -8 -23 -17 -3 -10 -5 6 -6 35 -1 51 0 52 28 52 20
0 30 -6 34 -19z m75 -3 c3 -14 -3 -18 -24 -18 -30 0 -23 -14 11 -23 12 -3 8
-5 -10 -4 -31 2 -43 23 -31 53 8 21 50 14 54 -8z m29 -30 c-2 -13 -4 -5 -4 17
-1 22 1 32 4 23 2 -10 2 -28 0 -40z m66 42 c-13 -5 -23 -16 -23 -25 0 -9 10
-20 23 -25 22 -10 22 -10 -3 -7 -42 4 -40 68 2 66 l23 0 -22 -9z m175 -12 c3
-14 -3 -18 -24 -18 -30 0 -23 -14 11 -23 12 -3 8 -5 -10 -4 -31 2 -43 23 -31
53 8 21 50 14 54 -8z m54 13 c-7 -4 -17 -21 -22 -37 -8 -29 -8 -29 -9 9 -1 32
2 37 22 37 15 0 18 -3 9 -9z m74 -26 c1 -30 1 -30 -3 -2 -6 38 -36 32 -44 -8
-6 -29 -7 -28 -8 8 -1 36 1 38 27 35 22 -2 27 -8 28 -33z m-3109 -37 c-3 -7
-5 -2 -5 12 0 14 2 19 5 13 2 -7 2 -19 0 -25z m1720 0 c-3 -7 -5 -2 -5 12 0
14 2 19 5 13 2 -7 2 -19 0 -25z m2290 0 c-3 -7 -5 -2 -5 12 0 14 2 19 5 13 2
-7 2 -19 0 -25z m750 0 c-3 -7 -5 -2 -5 12 0 14 2 19 5 13 2 -7 2 -19 0 -25z
m-802 -22 l50 -23 -36 -15 c-20 -9 -47 -19 -60 -23 -23 -7 -23 -7 -6 12 21 24
21 32 0 55 -21 23 -10 22 52 -6z m-2208 -22 c-3 -3 -12 -4 -19 -1 -8 3 -5 6 6
6 11 1 17 -2 13 -5z m40 0 c-3 -3 -12 -4 -19 -1 -8 3 -5 6 6 6 11 1 17 -2 13
-5z m40 0 c-3 -3 -12 -4 -19 -1 -8 3 -5 6 6 6 11 1 17 -2 13 -5z m40 0 c-3 -3
-12 -4 -19 -1 -8 3 -5 6 6 6 11 1 17 -2 13 -5z m40 0 c-3 -3 -12 -4 -19 -1 -8
3 -5 6 6 6 11 1 17 -2 13 -5z m40 0 c-3 -3 -12 -4 -19 -1 -8 3 -5 6 6 6 11 1
17 -2 13 -5z m40 0 c-3 -3 -12 -4 -19 -1 -8 3 -5 6 6 6 11 1 17 -2 13 -5z m40
0 c-3 -3 -12 -4 -19 -1 -8 3 -5 6 6 6 11 1 17 -2 13 -5z m40 0 c-3 -3 -12 -4
-19 -1 -8 3 -5 6 6 6 11 1 17 -2 13 -5z m40 0 c-3 -3 -12 -4 -19 -1 -8 3 -5 6
6 6 11 1 17 -2 13 -5z m40 0 c-3 -3 -12 -4 -19 -1 -8 3 -5 6 6 6 11 1 17 -2
13 -5z m40 0 c-3 -3 -12 -4 -19 -1 -8 3 -5 6 6 6 11 1 17 -2 13 -5z m40 0 c-3
-3 -12 -4 -19 -1 -8 3 -5 6 6 6 11 1 17 -2 13 -5z m40 0 c-3 -3 -12 -4 -19 -1
-8 3 -5 6 6 6 11 1 17 -2 13 -5z m40 0 c-3 -3 -12 -4 -19 -1 -8 3 -5 6 6 6 11
1 17 -2 13 -5z m40 0 c-3 -3 -12 -4 -19 -1 -8 3 -5 6 6 6 11 1 17 -2 13 -5z
m40 0 c-3 -3 -12 -4 -19 -1 -8 3 -5 6 6 6 11 1 17 -2 13 -5z m40 0 c-3 -3 -12
-4 -19 -1 -8 3 -5 6 6 6 11 1 17 -2 13 -5z m40 0 c-3 -3 -12 -4 -19 -1 -8 3
-5 6 6 6 11 1 17 -2 13 -5z m40 0 c-3 -3 -12 -4 -19 -1 -8 3 -5 6 6 6 11 1 17
-2 13 -5z m40 0 c-3 -3 -12 -4 -19 -1 -8 3 -5 6 6 6 11 1 17 -2 13 -5z m40 0
c-3 -3 -12 -4 -19 -1 -8 3 -5 6 6 6 11 1 17 -2 13 -5z m40 0 c-3 -3 -12 -4
-19 -1 -8 3 -5 6 6 6 11 1 17 -2 13 -5z m40 0 c-3 -3 -12 -4 -19 -1 -8 3 -5 6
6 6 11 1 17 -2 13 -5z m40 0 c-3 -3 -12 -4 -19 -1 -8 3 -5 6 6 6 11 1 17 -2
13 -5z m40 0 c-3 -3 -12 -4 -19 -1 -8 3 -5 6 6 6 11 1 17 -2 13 -5z m40 0 c-3
-3 -12 -4 -19 -1 -8 3 -5 6 6 6 11 1 17 -2 13 -5z m40 0 c-3 -3 -12 -4 -19 -1
-8 3 -5 6 6 6 11 1 17 -2 13 -5z m40 0 c-3 -3 -12 -4 -19 -1 -8 3 -5 6 6 6 11
1 17 -2 13 -5z m40 0 c-3 -3 -12 -4 -19 -1 -8 3 -5 6 6 6 11 1 17 -2 13 -5z
m40 0 c-3 -3 -12 -4 -19 -1 -8 3 -5 6 6 6 11 1 17 -2 13 -5z m40 0 c-3 -3 -12
-4 -19 -1 -8 3 -5 6 6 6 11 1 17 -2 13 -5z m40 0 c-3 -3 -12 -4 -19 -1 -8 3
-5 6 6 6 11 1 17 -2 13 -5z m40 0 c-3 -3 -12 -4 -19 -1 -8 3 -5 6 6 6 11 1 17
-2 13 -5z m40 0 c-3 -3 -12 -4 -19 -1 -8 3 -5 6 6 6 11 1 17 -2 13 -5z m40 0
c-3 -3 -12 -4 -19 -1 -8 3 -5 6 6 6 11 1 17 -2 13 -5z m40 0 c-3 -3 -12 -4
-19 -1 -8 3 -5 6 6 6 11 1 17 -2 13 -5z m40 0 c-3 -3 -12 -4 -19 -1 -8 3 -5 6
6 6 11 1 17 -2 13 -5z m40 0 c-3 -3 -12 -4 -19 -1 -8 3 -5 6 6 6 11 1 17 -2
13 -5z m40 0 c-3 -3 -12 -4 -19 -1 -8 3 -5 6 6 6 11 1 17 -2 13 -5z m40 0 c-3
-3 -12 -4 -19 -1 -8 3 -5 6 6 6 11 1 17 -2 13 -5z m40 0 c-3 -3 -12 -4 -19 -1
-8 3 -5 6 6 6 11 1 17 -2 13 -5z m40 0 c-3 -3 -12 -4 -19 -1 -8 3 -5 6 6 6 11
1 17 -2 13 -5z m40 0 c-3 -3 -12 -4 -19 -1 -8 3 -5 6 6 6 11 1 17 -2 13 -5z
m40 0 c-3 -3 -12 -4 -19 -1 -8 3 -5 6 6 6 11 1 17 -2 13 -5z m40 0 c-3 -3 -12
-4 -19 -1 -8 3 -5 6 6 6 11 1 17 -2 13 -5z m40 0 c-3 -3 -12 -4 -19 -1 -8 3
-5 6 6 6 11 1 17 -2 13 -5z m40 0 c-3 -3 -12 -4 -19 -1 -8 3 -5 6 6 6 11 1 17
-2 13 -5z m40 0 c-3 -3 -12 -4 -19 -1 -8 3 -5 6 6 6 11 1 17 -2 13 -5z m40 0
c-3 -3 -12 -4 -19 -1 -8 3 -5 6 6 6 11 1 17 -2 13 -5z m40 0 c-3 -3 -12 -4
-19 -1 -8 3 -5 6 6 6 11 1 17 -2 13 -5z m40 0 c-3 -3 -12 -4 -19 -1 -8 3 -5 6
6 6 11 1 17 -2 13 -5z m40 0 c-3 -3 -12 -4 -19 -1 -8 3 -5 6 6 6 11 1 17 -2
13 -5z m40 0 c-3 -3 -12 -4 -19 -1 -8 3 -5 6 6 6 11 1 17 -2 13 -5z m40 0 c-3
-3 -12 -4 -19 -1 -8 3 -5 6 6 6 11 1 17 -2 13 -5z m-3910 -56 c-3 -7 -5 -2 -5
12 0 14 2 19 5 13 2 -7 2 -19 0 -25z m1720 0 c-3 -7 -5 -2 -5 12 0 14 2 19 5
13 2 -7 2 -19 0 -25z m2290 0 c-3 -7 -5 -2 -5 12 0 14 2 19 5 13 2 -7 2 -19 0
-25z m750 0 c-3 -7 -5 -2 -5 12 0 14 2 19 5 13 2 -7 2 -19 0 -25z m-4760 -100
c-3 -7 -5 -2 -5 12 0 14 2 19 5 13 2 -7 2 -19 0 -25z m1720 0 c-3 -7 -5 -2 -5
12 0 14 2 19 5 13 2 -7 2 -19 0 -25z m2303 -35 c0 -24 5 -43 13 -46 7 -3 5 -6
-5 -6 -10 -1 -18 -7 -18 -13 0 -10 -3 -9 -9 1 -5 7 -4 26 3 43 9 26 8 32 -8
44 -11 8 -14 14 -8 14 7 0 12 8 12 18 0 14 2 15 10 2 5 -8 10 -34 10 -57z
m737 35 c-3 -7 -5 -2 -5 12 0 14 2 19 5 13 2 -7 2 -19 0 -25z m-2554 -20 c18
-2 22 -10 23 -38 l2 -35 -5 33 c-6 42 -35 40 -44 -3 -5 -22 -7 -16 -7 25 0 30
2 47 5 38 2 -9 14 -18 26 -20z m54 -45 c-2 -16 -4 -3 -4 27 0 30 2 43 4 28 2
-16 2 -40 0 -55z m330 0 c-2 -16 -4 -3 -4 27 0 30 2 43 4 28 2 -16 2 -40 0
-55z m338 47 c14 0 25 -7 28 -19 7 -27 -11 -51 -38 -51 -24 0 -25 3 -24 53 1
28 3 44 6 35 3 -11 14 -18 28 -18z m755 0 c-5 -17 -5 -44 0 -62 9 -30 8 -31
-5 -14 -17 23 -19 59 -5 87 16 28 20 23 10 -11z m100 20 c0 -5 -7 -10 -15 -10
-11 0 -15 -11 -15 -40 0 -22 -4 -40 -10 -40 -5 0 -10 18 -10 40 0 29 -4 40
-15 40 -8 0 -15 5 -15 10 0 6 18 10 40 10 22 0 40 -4 40 -10z m135 -1 c4 -6 1
-10 -6 -8 -25 3 -39 -1 -39 -11 0 -5 6 -10 14 -10 21 0 46 -28 40 -45 -6 -16
-64 -21 -64 -6 0 4 11 6 25 3 18 -3 25 0 25 11 0 8 -11 18 -25 21 -16 4 -25
13 -25 25 0 27 42 42 55 20z m241 3 c6 -4 11 -25 10 -47 -1 -37 -3 -40 -31
-42 -27 -2 -28 -1 -6 5 28 9 40 32 17 32 -9 0 -16 5 -16 10 0 6 7 10 15 10 8
0 15 5 15 10 0 6 -12 10 -26 10 -14 0 -23 4 -19 10 7 12 25 13 41 2z m64 -52
c0 -14 -7 -35 -15 -46 -13 -17 -14 -16 -4 14 8 23 8 41 0 65 -10 29 -9 30 4
13 8 -11 15 -32 15 -46z m-2399 13 l12 -38 18 40 c10 22 18 34 18 27 1 -19
-27 -82 -36 -82 -5 0 -15 20 -24 45 -9 25 -13 45 -9 45 5 0 14 -17 21 -37z
m824 9 c-21 -5 -19 -38 3 -52 16 -10 15 -10 -3 -8 -13 2 -22 13 -26 33 -8 44
-2 57 22 42 16 -10 17 -13 4 -15z m183 -50 c11 2 19 17 23 43 l7 40 -2 -45
c-1 -39 -4 -45 -25 -48 -29 -5 -41 12 -40 58 l1 35 10 -43 c7 -32 14 -42 26
-40z m297 50 c-21 -5 -19 -38 3 -52 15 -10 15 -10 -3 -8 -13 2 -21 12 -23 31
-5 37 -29 34 -41 -5 l-9 -33 -1 38 c-1 33 2 37 24 37 14 0 25 5 25 10 0 6 8 5
20 -2 17 -10 18 -14 5 -16z m685 -11 c0 -33 4 -40 23 -44 16 -3 13 -5 -10 -6
-33 -1 -33 0 -33 44 0 25 5 45 10 45 6 0 10 -18 10 -39z m-1862 -3 c3 -14 -3
-18 -24 -18 -30 0 -23 -14 11 -23 12 -3 8 -5 -10 -4 -31 2 -43 23 -31 53 8 21
50 14 54 -8z m54 13 c-7 -4 -17 -21 -22 -37 -8 -29 -8 -29 -9 9 -1 32 2 37 22
37 15 0 18 -3 9 -9z m59 2 l-25 -5 25 -18 c18 -14 21 -22 13 -30 -7 -7 -20
-10 -30 -7 -16 4 -15 5 4 6 27 1 29 17 2 24 -31 8 -25 37 8 36 26 -2 26 -2 3
-6z m62 -3 c-13 -5 -23 -16 -23 -25 0 -9 10 -20 23 -25 22 -10 22 -10 -3 -7
-42 4 -40 68 2 66 l23 0 -22 -9z m187 -45 c8 0 18 13 21 30 6 29 7 28 8 -8 1
-36 -1 -38 -26 -35 -24 3 -28 8 -30 38 -1 34 -1 34 5 5 4 -17 14 -30 22 -30z
m91 48 l-25 -5 25 -18 c18 -14 21 -22 13 -30 -7 -7 -20 -10 -30 -7 -16 4 -15
5 4 6 27 1 29 17 2 24 -31 8 -25 37 8 36 26 -2 26 -2 3 -6z m60 0 l-25 -5 25
-18 c18 -14 21 -22 13 -30 -7 -7 -20 -10 -30 -7 -16 4 -15 5 4 6 27 1 29 17 2
24 -31 8 -25 37 8 36 26 -2 26 -2 3 -6z m97 -15 c3 -14 -3 -18 -24 -18 -30 0
-23 -14 11 -23 12 -3 8 -5 -10 -4 -31 2 -43 23 -31 53 8 21 50 14 54 -8z m170
0 c3 -14 -3 -18 -24 -18 -30 0 -23 -14 11 -23 12 -3 8 -5 -10 -4 -31 2 -43 23
-31 53 8 21 50 14 54 -8z m300 0 c3 -14 -3 -18 -24 -18 -30 0 -23 -14 11 -23
12 -3 8 -5 -10 -4 -31 2 -43 23 -31 53 8 21 50 14 54 -8z m154 13 c-7 -4 -17
-21 -22 -37 -8 -29 -8 -29 -9 9 -1 32 2 37 22 37 15 0 18 -3 9 -9z m86 -28 c3
-31 1 -33 -27 -33 -24 0 -31 4 -31 19 0 11 10 22 23 26 l22 7 -25 8 c-24 9
-24 9 5 7 26 -2 30 -6 33 -34z m82 -1 c0 -21 -5 -43 -12 -50 -14 -14 -38 -16
-38 -3 0 5 7 8 16 7 9 0 19 4 21 10 2 6 -7 10 -19 10 -14 -1 -24 6 -26 17 -6
30 6 47 33 47 22 0 25 -4 25 -38z m50 -17 c8 0 18 13 21 30 6 29 7 28 8 -8 1
-36 -1 -38 -26 -35 -24 3 -28 8 -30 38 -1 34 -1 34 5 5 4 -17 14 -30 22 -30z
m106 20 c1 -30 1 -30 -3 -2 -6 38 -36 32 -44 -8 -6 -29 -7 -28 -8 8 -1 36 1
38 27 35 22 -2 27 -8 28 -33z m84 -3 c0 -21 -5 -43 -12 -50 -14 -14 -38 -16
-38 -3 0 5 7 8 16 7 9 0 19 4 21 10 2 6 -7 10 -19 10 -14 -1 -24 6 -26 17 -6
30 6 47 33 47 22 0 25 -4 25 -38z m-3593 -44 c-3 -7 -5 -2 -5 12 0 14 2 19 5
13 2 -7 2 -19 0 -25z m1720 0 c-3 -7 -5 -2 -5 12 0 14 2 19 5 13 2 -7 2 -19 0
-25z m2373 22 c0 -5 -5 -10 -11 -10 -5 0 -7 5 -4 10 3 6 8 10 11 10 2 0 4 -4
4 -10z m667 -22 c-3 -7 -5 -2 -5 12 0 14 2 19 5 13 2 -7 2 -19 0 -25z m-4760
-100 c-3 -7 -5 -2 -5 12 0 14 2 19 5 13 2 -7 2 -19 0 -25z m1720 0 c-3 -7 -5
-2 -5 12 0 14 2 19 5 13 2 -7 2 -19 0 -25z m2290 0 c-3 -7 -5 -2 -5 12 0 14 2
19 5 13 2 -7 2 -19 0 -25z m750 0 c-3 -7 -5 -2 -5 12 0 14 2 19 5 13 2 -7 2
-19 0 -25z m-4760 -100 c-3 -7 -5 -2 -5 12 0 14 2 19 5 13 2 -7 2 -19 0 -25z
m1720 0 c-3 -7 -5 -2 -5 12 0 14 2 19 5 13 2 -7 2 -19 0 -25z m2292 -40 c0
-40 -3 -67 -6 -60 -2 6 -9 10 -13 7 -5 -3 -4 8 1 25 8 21 8 39 0 60 -6 18 -6
28 -1 25 6 -4 10 -1 10 4 0 6 2 11 5 11 3 0 5 -33 4 -72z m748 40 c-3 -7 -5
-2 -5 12 0 14 2 19 5 13 2 -7 2 -19 0 -25z m-2454 -10 c18 -2 22 -10 23 -38
l2 -35 -5 33 c-6 42 -35 40 -44 -3 -5 -22 -7 -16 -7 25 0 30 2 47 5 38 2 -9
14 -18 26 -20z m54 -45 c-2 -16 -4 -3 -4 27 0 30 2 43 4 28 2 -16 2 -40 0 -55z
m330 0 c-2 -16 -4 -3 -4 27 0 30 2 43 4 28 2 -16 2 -40 0 -55z m266 20 c10
-24 12 -43 7 -43 -6 0 -10 5 -10 10 0 6 -11 10 -25 10 -14 0 -25 -4 -25 -10 0
-5 -4 -10 -10 -10 -6 0 -6 9 0 25 6 14 15 37 20 52 12 31 21 24 43 -34z m507
27 c-5 -17 -5 -44 0 -62 9 -30 8 -31 -5 -14 -17 23 -19 59 -5 87 16 28 20 23
10 -11z m100 20 c0 -5 -7 -10 -15 -10 -11 0 -15 -11 -15 -40 0 -22 -4 -40 -10
-40 -5 0 -10 18 -10 40 0 29 -4 40 -15 40 -8 0 -15 5 -15 10 0 6 18 10 40 10
22 0 40 -4 40 -10z m145 -1 c4 -6 1 -10 -6 -8 -25 3 -39 -1 -39 -11 0 -5 6
-10 14 -10 21 0 46 -28 40 -45 -6 -16 -64 -21 -64 -6 0 4 11 6 25 3 18 -3 25
0 25 11 0 8 -11 18 -25 21 -16 4 -25 13 -25 25 0 27 42 42 55 20z m118 -81 c7
-4 -1 -7 -18 -7 -16 0 -24 3 -17 6 6 2 12 20 12 39 0 25 -4 34 -17 35 -15 0
-15 2 2 8 18 7 20 4 23 -33 2 -22 9 -44 15 -48z m113 84 c6 -4 11 -25 10 -47
-1 -37 -3 -40 -31 -42 -27 -2 -28 -1 -6 5 28 9 40 32 17 32 -9 0 -16 5 -16 10
0 6 7 10 15 10 8 0 15 5 15 10 0 6 -12 10 -26 10 -14 0 -23 4 -19 10 7 12 25
13 41 2z m-2015 -39 l12 -38 18 40 c10 22 18 34 18 27 1 -19 -27 -82 -36 -82
-5 0 -15 20 -24 45 -9 25 -13 45 -9 45 5 0 14 -17 21 -37z m824 9 c-21 -5 -19
-38 3 -52 16 -10 15 -10 -3 -8 -13 2 -22 13 -26 33 -8 44 -2 57 22 42 16 -10
17 -13 4 -15z m340 0 c-21 -5 -19 -38 3 -52 16 -10 15 -10 -3 -8 -13 2 -22 13
-26 33 -8 44 -2 57 22 42 16 -10 17 -13 4 -15z m290 0 c-21 -5 -19 -38 3 -52
15 -10 15 -10 -3 -8 -13 2 -21 12 -23 31 -5 37 -29 34 -41 -5 l-9 -33 -1 38
c-1 33 2 37 24 37 14 0 25 5 25 10 0 6 8 5 20 -2 17 -10 18 -14 5 -16z m215
-11 c0 -33 4 -40 23 -44 16 -3 13 -5 -10 -6 -33 -1 -33 0 -33 44 0 25 5 45 10
45 6 0 10 -18 10 -39z m-1542 -3 c3 -14 -3 -18 -24 -18 -30 0 -23 -14 11 -23
12 -3 8 -5 -10 -4 -31 2 -43 23 -31 53 8 21 50 14 54 -8z m54 13 c-7 -4 -17
-21 -22 -37 -8 -29 -8 -29 -9 9 -1 32 2 37 22 37 15 0 18 -3 9 -9z m59 2 l-25
-5 25 -18 c18 -14 21 -22 13 -30 -7 -7 -20 -10 -30 -7 -16 4 -15 5 4 6 27 1
29 17 2 24 -31 8 -25 37 8 36 26 -2 26 -2 3 -6z m62 -3 c-13 -5 -23 -16 -23
-25 0 -9 10 -20 23 -25 22 -10 22 -10 -3 -7 -42 4 -40 68 2 66 l23 0 -22 -9z
m187 -45 c8 0 18 13 21 30 6 29 7 28 8 -8 1 -36 -1 -38 -26 -35 -24 3 -28 8
-30 38 -1 34 -1 34 5 5 4 -17 14 -30 22 -30z m91 48 l-25 -5 25 -18 c18 -14
21 -22 13 -30 -7 -7 -20 -10 -30 -7 -16 4 -15 5 4 6 27 1 29 17 2 24 -31 8
-25 37 8 36 26 -2 26 -2 3 -6z m60 0 l-25 -5 25 -18 c18 -14 21 -22 13 -30 -7
-7 -20 -10 -30 -7 -16 4 -15 5 4 6 27 1 29 17 2 24 -31 8 -25 37 8 36 26 -2
26 -2 3 -6z m97 -15 c3 -14 -3 -18 -24 -18 -30 0 -23 -14 11 -23 12 -3 8 -5
-10 -4 -31 2 -43 23 -31 53 8 21 50 14 54 -8z m170 0 c3 -14 -3 -18 -24 -18
-30 0 -23 -14 11 -23 12 -3 8 -5 -10 -4 -31 2 -43 23 -31 53 8 21 50 14 54 -8z
m208 -13 c1 -30 1 -30 -3 -2 -6 38 -36 32 -44 -8 -6 -29 -7 -28 -8 8 -1 36 1
38 27 35 22 -2 27 -8 28 -33z m101 13 c6 28 20 28 29 0 l7 -23 9 24 c12 33 19
22 9 -15 -9 -34 -23 -35 -32 -2 -6 23 -6 22 -14 -4 -9 -34 -21 -36 -29 -5 -10
36 -6 54 6 27 11 -25 11 -25 15 -2z m138 -13 c0 -25 -4 -30 -25 -30 -16 0 -26
6 -28 18 -6 30 6 49 30 45 18 -2 23 -9 23 -33z m595 -25 c0 -5 -5 -10 -11 -10
-5 0 -7 5 -4 10 3 6 8 10 11 10 2 0 4 -4 4 -10z m-3873 -32 c-3 -7 -5 -2 -5
12 0 14 2 19 5 13 2 -7 2 -19 0 -25z m1720 0 c-3 -7 -5 -2 -5 12 0 14 2 19 5
13 2 -7 2 -19 0 -25z m3040 0 c-3 -7 -5 -2 -5 12 0 14 2 19 5 13 2 -7 2 -19 0
-25z m-4760 -100 c-3 -7 -5 -2 -5 12 0 14 2 19 5 13 2 -7 2 -19 0 -25z m1720
0 c-3 -7 -5 -2 -5 12 0 14 2 19 5 13 2 -7 2 -19 0 -25z m2290 0 c-3 -7 -5 -2
-5 12 0 14 2 19 5 13 2 -7 2 -19 0 -25z m750 0 c-3 -7 -5 -2 -5 12 0 14 2 19
5 13 2 -7 2 -19 0 -25z m-4760 -100 c-3 -7 -5 -2 -5 12 0 14 2 19 5 13 2 -7 2
-19 0 -25z m1720 0 c-3 -7 -5 -2 -5 12 0 14 2 19 5 13 2 -7 2 -19 0 -25z m146
-25 c10 -24 12 -43 7 -43 -6 0 -10 5 -10 10 0 6 -11 10 -25 10 -14 0 -25 -4
-25 -10 0 -5 -4 -10 -10 -10 -6 0 -6 9 0 25 6 14 15 37 20 52 12 31 21 24 43
-34z m200 25 c18 -2 22 -10 23 -38 l2 -35 -5 33 c-6 42 -35 40 -44 -3 -5 -22
-7 -16 -7 25 0 30 2 47 5 38 2 -9 14 -18 26 -20z m347 22 c0 -5 -7 -7 -16 -3
-10 4 -15 1 -14 -8 5 -33 -1 -79 -9 -79 -14 0 -18 62 -6 83 10 18 45 24 45 7z
m852 -2 c21 -18 27 -39 17 -65 -9 -25 -47 -31 -67 -11 -18 18 -15 65 6 77 22
13 25 13 44 -1z m101 -45 c10 -24 12 -43 7 -43 -6 0 -10 5 -10 10 0 6 -11 10
-25 10 -14 0 -25 -4 -25 -10 0 -5 -4 -10 -10 -10 -6 0 -6 9 0 25 6 14 15 37
20 52 12 31 21 24 43 -34z m190 25 c18 -2 22 -10 23 -38 l2 -35 -5 33 c-6 42
-35 40 -44 -3 -5 -22 -7 -16 -7 25 0 30 2 47 5 38 2 -9 14 -18 26 -20z m151
10 c8 -13 5 -22 -13 -42 l-23 -24 24 -5 c18 -3 16 -5 -9 -6 -38 -1 -41 8 -13
34 26 23 26 45 -1 45 -11 0 -17 4 -14 11 9 14 36 7 49 -13z m114 13 c8 -5 12
-23 10 -47 -3 -34 -6 -39 -28 -39 -21 0 -26 5 -28 33 -2 18 2 40 9 48 13 16
19 17 37 5z m189 -23 c-3 -7 -5 -2 -5 12 0 14 2 19 5 13 2 -7 2 -19 0 -25z
m750 0 c-3 -7 -5 -2 -5 12 0 14 2 19 5 13 2 -7 2 -19 0 -25z m-2752 -6 c-21
-5 -19 -38 3 -52 16 -10 15 -10 -3 -8 -13 2 -22 13 -26 33 -8 44 -2 57 22 42
16 -10 17 -13 4 -15z m290 0 c-21 -5 -19 -38 3 -52 16 -10 15 -10 -3 -8 -13 2
-22 13 -26 33 -8 44 -2 57 22 42 16 -10 17 -13 4 -15z m1200 0 c-21 -5 -19
-38 3 -52 16 -10 15 -10 -3 -8 -13 2 -22 13 -26 33 -8 44 -2 57 22 42 16 -10
17 -13 4 -15z m-1575 -47 c8 0 18 13 21 30 6 29 7 28 8 -8 1 -36 -1 -38 -26
-35 -24 3 -28 8 -30 38 -1 34 -1 34 5 5 4 -17 14 -30 22 -30z m248 33 c3 -14
-3 -18 -24 -18 -30 0 -23 -14 11 -23 12 -3 8 -5 -10 -4 -31 2 -43 23 -31 53 8
21 50 14 54 -8z m78 -13 c1 -30 1 -30 -3 -2 -6 38 -36 32 -44 -8 -6 -29 -7
-28 -8 8 -1 36 1 38 27 35 22 -2 27 -8 28 -33z m81 -17 c-2 -13 -4 -5 -4 17
-1 22 1 32 4 23 2 -10 2 -28 0 -40z m80 0 c-2 -13 -4 -5 -4 17 -1 22 1 32 4
23 2 -10 2 -28 0 -40z m83 44 c0 -5 -9 -17 -21 -28 l-21 -19 24 -6 c22 -7 22
-7 -4 -8 -32 -1 -34 5 -12 34 13 18 13 20 -3 27 -14 5 -12 7 10 7 15 1 27 -3
27 -7z m27 -44 c-2 -13 -4 -5 -4 17 -1 22 1 32 4 23 2 -10 2 -28 0 -40z m81
30 c3 -14 -3 -18 -24 -18 -30 0 -23 -14 11 -23 12 -3 8 -5 -10 -4 -31 2 -43
23 -31 53 8 21 50 14 54 -8z m54 13 c-7 -4 -17 -21 -22 -37 -8 -29 -8 -29 -9
9 -1 32 2 37 22 37 15 0 18 -3 9 -9z m58 -46 c8 0 18 13 21 30 6 29 7 28 8 -8
1 -36 -1 -38 -26 -35 -24 3 -28 8 -30 38 -1 34 -1 34 5 5 4 -17 14 -30 22 -30z
m106 20 c1 -30 1 -30 -3 -2 -6 38 -36 32 -44 -8 -6 -29 -7 -28 -8 8 -1 36 1
38 27 35 22 -2 27 -8 28 -33z m84 -3 c0 -21 -5 -43 -12 -50 -14 -14 -38 -16
-38 -3 0 5 7 8 16 7 9 0 19 4 21 10 2 6 -7 10 -19 10 -14 -1 -24 6 -26 17 -6
30 6 47 33 47 22 0 25 -4 25 -38z m109 12 c15 39 24 28 10 -12 -13 -39 -26
-41 -39 -6 -15 38 -10 54 5 19 l13 -30 11 29z m38 -26 c-2 -13 -4 -5 -4 17 -1
22 1 32 4 23 2 -10 2 -28 0 -40z m91 15 c3 -31 1 -33 -27 -33 -24 0 -31 4 -31
19 0 11 10 22 23 26 l22 7 -25 8 c-24 9 -24 9 5 7 26 -2 30 -6 33 -34z m282
-18 c8 0 18 13 21 30 6 29 7 28 8 -8 1 -36 -1 -38 -26 -35 -24 3 -28 8 -30 38
-1 34 -1 34 5 5 4 -17 14 -30 22 -30z m330 -5 c0 -5 -5 -10 -11 -10 -5 0 -7 5
-4 10 3 6 8 10 11 10 2 0 4 -4 4 -10z m-3753 -42 c-3 -7 -5 -2 -5 12 0 14 2
19 5 13 2 -7 2 -19 0 -25z m1720 0 c-3 -7 -5 -2 -5 12 0 14 2 19 5 13 2 -7 2
-19 0 -25z m2290 0 c-3 -7 -5 -2 -5 12 0 14 2 19 5 13 2 -7 2 -19 0 -25z m750
0 c-3 -7 -5 -2 -5 12 0 14 2 19 5 13 2 -7 2 -19 0 -25z m-4760 -100 c-3 -7 -5
-2 -5 12 0 14 2 19 5 13 2 -7 2 -19 0 -25z m1720 0 c-3 -7 -5 -2 -5 12 0 14 2
19 5 13 2 -7 2 -19 0 -25z m2290 0 c-3 -7 -5 -2 -5 12 0 14 2 19 5 13 2 -7 2
-19 0 -25z m750 0 c-3 -7 -5 -2 -5 12 0 14 2 19 5 13 2 -7 2 -19 0 -25z
m-4760 -90 c-3 -8 -6 -5 -6 6 -1 11 2 17 5 13 3 -3 4 -12 1 -19z m1938 -1
c116 -1 21 -2 -210 -2 -231 0 -329 1 -217 2 151 3 202 6 202 16 0 9 2 9 8 0 6
-9 65 -13 217 -16z m2225 0 c80 -1 15 -3 -145 -3 -159 0 -228 2 -152 3 99 3
137 7 137 16 0 9 2 9 8 0 5 -9 52 -13 152 -16z m770 0 c91 -1 14 -3 -170 -3
-184 0 -262 2 -172 3 119 3 162 7 162 16 0 9 2 9 8 0 6 -9 56 -13 172 -16z
m-3633 -219 c-1 -40 -3 -10 -3 67 0 77 1 110 3 73 2 -37 2 -100 0 -140z m860
0 c-1 -40 -3 -10 -3 67 0 77 1 110 3 73 2 -37 2 -100 0 -140z m1560 0 c-1 -40
-3 -10 -3 67 0 77 1 110 3 73 2 -37 2 -100 0 -140z m600 0 c-1 -40 -3 -10 -3
67 0 77 1 110 3 73 2 -37 2 -100 0 -140z m100 0 c-1 -40 -3 -10 -3 67 0 77 1
110 3 73 2 -37 2 -100 0 -140z m690 0 c-1 -40 -3 -10 -3 67 0 77 1 110 3 73 2
-37 2 -100 0 -140z m-5382 167 c1 -11 4 -26 9 -33 12 -19 -13 -42 -45 -42 -28
0 -29 2 -29 51 l0 50 33 -3 c24 -2 32 -8 32 -23z m321 10 c9 -8 11 -15 5 -15
-6 0 -11 -13 -11 -30 0 -39 22 -39 49 -1 l21 30 -22 4 c-17 3 -14 5 10 6 37 1
40 -8 12 -34 -26 -23 -25 -33 3 -38 12 -3 -3 -4 -33 -3 l-55 1 -3 48 c-3 50 1
56 24 32z m-226 -20 c16 -19 4 -35 -28 -35 -28 0 -21 -14 13 -23 12 -3 8 -5
-10 -4 -23 2 -31 7 -33 25 -6 42 33 68 58 37z m78 2 c14 -9 17 -67 3 -67 -6 0
-11 15 -13 33 -2 17 -7 32 -13 32 -5 0 -11 -15 -13 -32 -4 -46 -22 -41 -22 5
0 33 3 38 23 37 12 0 28 -4 35 -8z m52 -28 c0 -19 5 -29 15 -29 10 0 15 10 15
30 0 17 5 30 10 30 6 0 10 -16 10 -36 0 -34 -1 -35 -32 -32 -30 3 -33 6 -36
42 -2 25 0 36 7 31 6 -3 11 -19 11 -36z m260 26 c16 -19 4 -35 -28 -35 -28 0
-21 -14 13 -23 12 -3 8 -5 -10 -4 -23 2 -31 7 -33 25 -6 42 33 68 58 37z m57
4 c-10 -6 -17 -22 -17 -39 0 -17 -4 -30 -10 -30 -5 0 -10 17 -10 38 0 33 3 37
27 39 22 1 24 -1 10 -8z m1418 -39 c3 -5 1 -10 -4 -10 -6 0 -11 5 -11 10 0 6
2 10 4 10 3 0 8 -4 11 -10z m-285 -53 c0 -50 -12 -77 -34 -77 -6 0 -5 5 2 12
7 7 12 36 12 65 0 29 5 53 10 53 6 0 10 -24 10 -53z m233 46 c-13 -2 -23 -11
-23 -19 0 -8 10 -15 23 -15 l22 -2 -22 -4 c-16 -3 -23 -11 -23 -29 0 -13 -4
-24 -10 -24 -5 0 -10 23 -10 50 l0 50 33 -1 c23 -1 26 -3 10 -6z m103 -8 c9
-8 11 -15 5 -15 -15 0 -14 -57 2 -64 6 -3 3 -5 -8 -3 -16 2 -21 11 -23 50 -3
50 1 56 24 32z m149 -31 c9 -25 14 -48 11 -51 -3 -3 -8 2 -12 11 -8 20 -43 21
-50 1 -4 -8 -10 -15 -15 -15 -5 0 -4 11 1 25 6 14 14 36 20 50 14 36 25 31 45
-21z m1965 39 c-42 -8 -46 -22 -11 -34 24 -9 31 -16 29 -33 -2 -16 -11 -22
-35 -24 -18 -2 -33 1 -33 6 0 5 11 7 24 5 36 -7 41 14 6 32 -47 25 -39 56 14
54 27 -2 28 -2 6 -6z m720 -2 c0 -4 -10 -6 -23 -4 -14 3 -29 -2 -37 -11 -18
-22 2 -66 30 -66 22 0 28 25 8 33 -7 3 -3 6 10 6 19 1 23 -4 20 -21 -4 -27
-50 -37 -74 -17 -17 14 -19 60 -2 77 14 14 68 16 68 3z m95 -21 c0 -18 -6 -26
-22 -28 -15 -2 -23 -10 -23 -23 0 -10 -4 -19 -10 -19 -5 0 -10 23 -10 51 l0
50 33 -3 c27 -2 32 -7 32 -28z m75 23 c-42 -8 -46 -22 -11 -34 24 -9 31 -16
29 -33 -2 -16 -11 -22 -35 -24 -18 -2 -33 1 -33 6 0 5 11 7 24 5 36 -7 41 14
6 32 -47 25 -39 56 14 54 27 -2 28 -2 6 -6z m155 -39 c9 -25 14 -48 11 -51 -3
-3 -8 2 -12 11 -8 20 -43 21 -50 1 -4 -8 -10 -15 -15 -15 -5 0 -4 11 1 25 6
14 14 36 20 50 14 36 25 31 45 -21z m90 16 c0 -18 -6 -26 -22 -28 -15 -2 -23
-10 -23 -23 0 -10 -4 -19 -10 -19 -5 0 -10 23 -10 51 l0 50 33 -3 c27 -2 32
-7 32 -28z m45 -20 c0 -27 -4 -50 -10 -50 -5 0 -10 23 -10 50 0 28 5 50 10 50
6 0 10 -22 10 -50z m-3550 15 c7 -9 10 -25 6 -41 -5 -20 -12 -25 -34 -22 -21
2 -28 9 -30 32 -5 42 32 62 58 31z m68 9 c42 -12 23 -105 -21 -103 -21 0 -21
1 3 11 l25 11 -25 6 c-25 7 -37 38 -26 67 6 16 11 16 44 8z m142 -40 c0 -19
-4 -34 -10 -34 -5 0 -10 18 -10 41 0 24 4 38 10 34 6 -3 10 -22 10 -41z m280
31 c18 -22 8 -60 -17 -63 -13 -2 -23 -10 -23 -18 0 -8 -4 -14 -10 -14 -5 0
-10 24 -10 53 0 48 2 53 24 55 13 1 29 -5 36 -13z m90 0 c18 -22 8 -60 -17
-63 -13 -2 -23 -10 -23 -18 0 -8 -4 -14 -10 -14 -5 0 -10 24 -10 53 0 48 2 53
24 55 13 1 29 -5 36 -13z m1880 0 c16 -19 4 -35 -28 -35 -28 0 -21 -14 13 -23
12 -3 8 -5 -10 -4 -23 2 -31 7 -33 25 -6 42 33 68 58 37z m67 4 c-10 -6 -17
-22 -17 -39 0 -17 -4 -30 -10 -30 -5 0 -10 17 -10 38 0 33 3 37 27 39 22 1 24
-1 10 -8z m69 -20 c8 19 17 32 19 29 8 -7 -24 -78 -34 -78 -5 0 -14 14 -20 31
-16 46 -12 60 6 19 l15 -35 14 34z m94 16 c16 -19 4 -35 -28 -35 -28 0 -21
-14 13 -23 12 -3 8 -5 -10 -4 -23 2 -31 7 -33 25 -6 42 33 68 58 37z m67 4
c-10 -6 -17 -22 -17 -39 0 -17 -4 -30 -10 -30 -5 0 -10 17 -10 38 0 33 3 37
27 39 22 1 24 -1 10 -8z m-2440 -35 c-3 -3 -12 -4 -19 -1 -8 3 -5 6 6 6 11 1
17 -2 13 -5z m3010 0 c-3 -3 -12 -4 -19 -1 -8 3 -5 6 6 6 11 1 17 -2 13 -5z
m-4800 -10 c-3 -3 -12 -4 -19 -1 -8 3 -5 6 6 6 11 1 17 -2 13 -5z m-47 -7 c0
-2 -10 -12 -22 -23 l-23 -19 19 23 c18 21 26 27 26 19z m95 -17 c10 -11 16
-20 13 -20 -3 0 -13 9 -23 20 -10 11 -16 20 -13 20 3 0 13 -9 23 -20z m-138
-62 c-3 -8 -6 -5 -6 6 -1 11 2 17 5 13 3 -3 4 -12 1 -19z m160 0 c-3 -8 -6 -5
-6 6 -1 11 2 17 5 13 3 -3 4 -12 1 -19z m-132 -48 c10 -11 16 -20 13 -20 -3 0
-13 9 -23 20 -10 11 -16 20 -13 20 3 0 13 -9 23 -20z m125 17 c0 -2 -10 -12
-22 -23 l-23 -19 19 23 c18 21 26 27 26 19z m1868 -14 c-114 -2 -303 -2 -420
0 -117 1 -24 2 207 2 231 0 327 -1 213 -2z m2225 0 c-78 -2 -208 -2 -290 0
-81 1 -17 3 142 3 160 0 226 -2 148 -3z m765 0 c-93 -2 -243 -2 -335 0 -93 1
-17 3 167 3 184 0 260 -2 168 -3z m-4926 -63 l-4 -40 63 -2 64 -2 -62 -3 -63
-4 0 -92 c0 -60 4 -98 13 -107 10 -12 9 -12 -4 -2 -10 8 -19 8 -27 2 -9 -7 -9
-7 -2 2 6 7 10 54 10 105 l0 93 -62 2 -63 2 64 3 63 4 -4 40 c-2 23 1 39 7 39
6 0 9 -16 7 -40z m-52 -293 c0 -2 -10 -12 -22 -23 l-23 -19 19 23 c18 21 26
27 26 19z m115 -17 c10 -11 16 -20 13 -20 -3 0 -13 9 -23 20 -10 11 -16 20
-13 20 3 0 13 -9 23 -20z"/>
<path d="M2247 3210 c-3 -13 0 -20 9 -20 15 0 19 26 5 34 -5 3 -11 -3 -14 -14z"/>
<path d="M5020 3219 c0 -24 23 -21 28 4 2 10 -3 17 -12 17 -10 0 -16 -9 -16
-21z"/>
<path d="M5257 3210 c-3 -13 0 -20 9 -20 15 0 19 26 5 34 -5 3 -11 -3 -14 -14z"/>
<path d="M5340 3219 c0 -24 23 -21 28 4 2 10 -3 17 -12 17 -10 0 -16 -9 -16
-21z"/>
<path d="M1840 3205 c-15 -18 -6 -45 15 -45 9 0 15 9 15 24 0 31 -14 40 -30
21z"/>
<path d="M1914 3206 c-8 -22 3 -49 19 -43 6 2 12 14 12 27 0 27 -22 39 -31 16z"/>
<path d="M2337 3214 c-4 -4 -7 -18 -7 -31 0 -26 27 -32 37 -7 6 17 -19 49 -30
38z"/>
<path d="M2427 3214 c-4 -4 -7 -18 -7 -31 0 -26 27 -32 37 -7 6 17 -19 49 -30
38z"/>
<path d="M4305 3210 c-3 -5 1 -10 10 -10 9 0 13 5 10 10 -3 6 -8 10 -10 10 -2
0 -7 -4 -10 -10z"/>
<path d="M4535 3210 c-3 -5 1 -10 10 -10 9 0 13 5 10 10 -3 6 -8 10 -10 10 -2
0 -7 -4 -10 -10z"/>
<path d="M80 3145 c0 -10 7 -15 18 -13 21 4 19 22 -2 26 -10 2 -16 -3 -16 -13z"/>
<path d="M80 3100 c0 -15 5 -20 18 -18 9 2 17 10 17 18 0 8 -8 16 -17 18 -13
2 -18 -3 -18 -18z"/>
<path d="M180 3130 c-12 -8 -10 -10 8 -10 13 0 20 4 17 10 -7 12 -6 12 -25 0z"/>
<path d="M570 3130 c-12 -8 -10 -10 8 -10 13 0 20 4 17 10 -7 12 -6 12 -25 0z"/>
<path d="M773 2824 c-8 -21 13 -42 28 -27 13 13 5 43 -11 43 -6 0 -13 -7 -17
-16z"/>
<path d="M573 2813 c-18 -7 -16 -23 2 -23 8 0 15 7 15 15 0 8 -1 15 -2 14 -2
0 -9 -3 -15 -6z"/>
<path d="M863 2813 c-18 -7 -16 -23 2 -23 8 0 15 7 15 15 0 8 -1 15 -2 14 -2
0 -9 -3 -15 -6z"/>
<path d="M985 2830 c-3 -5 3 -10 14 -10 12 0 21 5 21 10 0 6 -6 10 -14 10 -8
0 -18 -4 -21 -10z"/>
<path d="M1193 2813 c-18 -7 -16 -23 2 -23 8 0 15 7 15 15 0 8 -1 15 -2 14 -2
0 -9 -3 -15 -6z"/>
<path d="M1465 2830 c-3 -5 3 -10 14 -10 12 0 21 5 21 10 0 6 -6 10 -14 10 -8
0 -18 -4 -21 -10z"/>
<path d="M1815 2830 c-3 -5 3 -10 14 -10 12 0 21 5 21 10 0 6 -6 10 -14 10 -8
0 -18 -4 -21 -10z"/>
<path d="M2493 2534 c-8 -21 13 -42 28 -27 13 13 5 43 -11 43 -6 0 -13 -7 -17
-16z"/>
<path d="M2998 2538 c-7 -19 2 -38 18 -38 8 0 14 10 14 25 0 26 -24 35 -32 13z"/>
<path d="M2303 2523 c-18 -7 -16 -23 2 -23 8 0 15 7 15 15 0 8 -1 15 -2 14 -2
0 -9 -3 -15 -6z"/>
<path d="M2593 2523 c-18 -7 -16 -23 2 -23 8 0 15 7 15 15 0 8 -1 15 -2 14 -2
0 -9 -3 -15 -6z"/>
<path d="M2715 2540 c-3 -5 3 -10 14 -10 12 0 21 5 21 10 0 6 -6 10 -14 10 -8
0 -18 -4 -21 -10z"/>
<path d="M2923 2523 c-18 -7 -16 -23 2 -23 8 0 15 7 15 15 0 8 -1 15 -2 14 -2
0 -9 -3 -15 -6z"/>
<path d="M3255 2540 c-3 -5 3 -10 14 -10 12 0 21 5 21 10 0 6 -6 10 -14 10 -8
0 -18 -4 -21 -10z"/>
<path d="M2593 2234 c-8 -21 13 -42 28 -27 13 13 5 43 -11 43 -6 0 -13 -7 -17
-16z"/>
<path d="M3618 2238 c-7 -19 2 -38 18 -38 8 0 14 10 14 25 0 26 -24 35 -32 13z"/>
<path d="M2403 2223 c-18 -7 -16 -23 2 -23 8 0 15 7 15 15 0 8 -1 15 -2 14 -2
0 -9 -3 -15 -6z"/>
<path d="M2693 2223 c-18 -7 -16 -23 2 -23 8 0 15 7 15 15 0 8 -1 15 -2 14 -2
0 -9 -3 -15 -6z"/>
<path d="M2815 2240 c-3 -5 3 -10 14 -10 12 0 21 5 21 10 0 6 -6 10 -14 10 -8
0 -18 -4 -21 -10z"/>
<path d="M3443 2234 c-8 -21 13 -42 28 -27 13 13 5 43 -11 43 -6 0 -13 -7 -17
-16z"/>
<path d="M3535 2240 c-3 -5 3 -10 14 -10 12 0 21 5 21 10 0 6 -6 10 -14 10 -8
0 -18 -4 -21 -10z"/>
<path d="M3695 2240 c-3 -5 3 -10 14 -10 12 0 21 5 21 10 0 6 -6 10 -14 10 -8
0 -18 -4 -21 -10z"/>
<path d="M2493 1944 c-8 -21 13 -42 28 -27 13 13 5 43 -11 43 -6 0 -13 -7 -17
-16z"/>
<path d="M2303 1933 c-18 -7 -16 -23 2 -23 8 0 15 7 15 15 0 8 -1 15 -2 14 -2
0 -9 -3 -15 -6z"/>
<path d="M2593 1933 c-18 -7 -16 -23 2 -23 8 0 15 7 15 15 0 8 -1 15 -2 14 -2
0 -9 -3 -15 -6z"/>
<path d="M2715 1950 c-3 -5 3 -10 14 -10 12 0 21 5 21 10 0 6 -6 10 -14 10 -8
0 -18 -4 -21 -10z"/>
<path d="M2988 1948 c-7 -19 2 -38 18 -38 8 0 14 10 14 25 0 26 -24 35 -32 13z"/>
<path d="M3065 1950 c-3 -5 3 -10 14 -10 12 0 21 5 21 10 0 6 -6 10 -14 10 -8
0 -18 -4 -21 -10z"/>
<path d="M3335 1950 c-3 -5 3 -10 14 -10 12 0 21 5 21 10 0 6 -6 10 -14 10 -8
0 -18 -4 -21 -10z"/>
<path d="M3308 1658 c-7 -19 2 -38 18 -38 8 0 14 10 14 25 0 26 -24 35 -32 13z"/>
<path d="M2305 1660 c-3 -5 3 -10 14 -10 12 0 21 5 21 10 0 6 -6 10 -14 10 -8
0 -18 -4 -21 -10z"/>
<path d="M2915 1660 c-3 -5 3 -10 14 -10 12 0 21 5 21 10 0 6 -6 10 -14 10 -8
0 -18 -4 -21 -10z"/>
<path d="M3085 1660 c-3 -5 3 -10 14 -10 12 0 21 5 21 10 0 6 -6 10 -14 10 -8
0 -18 -4 -21 -10z"/>
<path d="M3385 1660 c-3 -5 3 -10 14 -10 12 0 21 5 21 10 0 6 -6 10 -14 10 -8
0 -18 -4 -21 -10z"/>
<path d="M3633 1643 c-18 -7 -16 -23 2 -23 8 0 15 7 15 15 0 8 -1 15 -2 14 -2
0 -9 -3 -15 -6z"/>
<path d="M3703 1654 c-8 -21 13 -42 28 -27 13 13 5 43 -11 43 -6 0 -13 -7 -17
-16z"/>
<path d="M3943 1654 c-8 -21 13 -42 28 -27 13 13 5 43 -11 43 -6 0 -13 -7 -17
-16z"/>
<path d="M3315 1380 c-8 -13 -1 -24 14 -19 6 3 7 10 2 18 -6 10 -10 10 -16 1z"/>
<path d="M2405 1370 c-3 -5 3 -10 14 -10 12 0 21 5 21 10 0 6 -6 10 -14 10 -8
0 -18 -4 -21 -10z"/>
<path d="M3015 1370 c-3 -5 3 -10 14 -10 12 0 21 5 21 10 0 6 -6 10 -14 10 -8
0 -18 -4 -21 -10z"/>
<path d="M3185 1370 c-3 -5 3 -10 14 -10 12 0 21 5 21 10 0 6 -6 10 -14 10 -8
0 -18 -4 -21 -10z"/>
<path d="M3633 1364 c-8 -21 13 -42 28 -27 13 13 5 43 -11 43 -6 0 -13 -7 -17
-16z"/>
<path d="M2225 1090 c-8 -13 -1 -24 14 -19 6 3 7 10 2 18 -6 10 -10 10 -16 1z"/>
<path d="M3625 1106 c-26 -19 -13 -69 18 -64 15 2 23 11 25 29 4 35 -18 53
-43 35z"/>
<path d="M3725 1090 c-8 -13 -1 -24 14 -19 6 3 7 10 2 18 -6 10 -10 10 -16 1z"/>
<path d="M4184 1096 c-9 -23 0 -51 16 -51 10 0 16 12 18 33 2 24 -1 32 -13 32
-8 0 -18 -6 -21 -14z"/>
<path d="M2525 1080 c-3 -5 3 -10 14 -10 12 0 21 5 21 10 0 6 -6 10 -14 10 -8
0 -18 -4 -21 -10z"/>
<path d="M2955 1080 c-3 -5 3 -10 14 -10 12 0 21 5 21 10 0 6 -6 10 -14 10 -8
0 -18 -4 -21 -10z"/>
<path d="M3253 1074 c-8 -21 13 -42 28 -27 13 13 5 43 -11 43 -6 0 -13 -7 -17
-16z"/>
<path d="M3503 1063 c-18 -7 -16 -23 2 -23 8 0 15 7 15 15 0 8 -1 15 -2 14 -2
0 -9 -3 -15 -6z"/>
<path d="M80 755 c0 -10 7 -15 18 -13 21 4 19 22 -2 26 -10 2 -16 -3 -16 -13z"/>
<path d="M80 710 c0 -15 5 -20 18 -18 9 2 17 10 17 18 0 8 -8 16 -17 18 -13 2
-18 -3 -18 -18z"/>
<path d="M180 740 c-12 -8 -10 -10 8 -10 13 0 20 4 17 10 -7 12 -6 12 -25 0z"/>
<path d="M570 740 c-12 -8 -10 -10 8 -10 13 0 20 4 17 10 -7 12 -6 12 -25 0z"/>
<path d="M2247 670 c-3 -13 0 -20 9 -20 15 0 19 26 5 34 -5 3 -11 -3 -14 -14z"/>
<path d="M5020 679 c0 -24 23 -21 28 4 2 10 -3 17 -12 17 -10 0 -16 -9 -16
-21z"/>
<path d="M5257 670 c-3 -13 0 -20 9 -20 15 0 19 26 5 34 -5 3 -11 -3 -14 -14z"/>
<path d="M5340 679 c0 -24 23 -21 28 4 2 10 -3 17 -12 17 -10 0 -16 -9 -16
-21z"/>
<path d="M1840 665 c-15 -18 -6 -45 15 -45 9 0 15 9 15 24 0 31 -14 40 -30 21z"/>
<path d="M1914 666 c-8 -22 3 -49 19 -43 6 2 12 14 12 27 0 27 -22 39 -31 16z"/>
<path d="M2337 674 c-4 -4 -7 -18 -7 -31 0 -26 27 -32 37 -7 6 17 -19 49 -30
38z"/>
<path d="M2427 674 c-4 -4 -7 -18 -7 -31 0 -26 27 -32 37 -7 6 17 -19 49 -30
38z"/>
<path d="M4305 670 c-3 -5 1 -10 10 -10 9 0 13 5 10 10 -3 6 -8 10 -10 10 -2
0 -7 -4 -10 -10z"/>
<path d="M4535 670 c-3 -5 1 -10 10 -10 9 0 13 5 10 10 -3 6 -8 10 -10 10 -2
0 -7 -4 -10 -10z"/>
</g>
</svg>
