<?xml version="1.0" standalone="no"?>
<!DOCTYPE svg PUBLIC "-//W3C//DTD SVG 20010904//EN"
 "http://www.w3.org/TR/2001/REC-SVG-20010904/DTD/svg10.dtd">
<svg version="1.0" xmlns="http://www.w3.org/2000/svg"
 width="611.000000pt" height="326.000000pt" viewBox="0 0 611.000000 326.000000"
 preserveAspectRatio="xMidYMid meet">

<g transform="translate(0.000000,326.000000) scale(0.100000,-0.100000)"
fill="#000000" stroke="none">
<path d="M0 1630 l0 -1630 3055 0 3055 0 0 1630 0 1630 -3055 0 -3055 0 0
-1630z m407 1574 c-3 -3 -12 -4 -19 -1 -8 3 -5 6 6 6 11 1 17 -2 13 -5z m-47
-7 c0 -2 -10 -12 -22 -23 l-23 -19 19 23 c18 21 26 27 26 19z m95 -17 c10 -11
16 -20 13 -20 -3 0 -13 9 -23 20 -10 11 -16 20 -13 20 3 0 13 -9 23 -20z
m-138 -62 c-3 -8 -6 -5 -6 6 -1 11 2 17 5 13 3 -3 4 -12 1 -19z m160 0 c-3 -8
-6 -5 -6 6 -1 11 2 17 5 13 3 -3 4 -12 1 -19z m-132 -48 c10 -11 16 -20 13
-20 -3 0 -13 9 -23 20 -10 11 -16 20 -13 20 3 0 13 -9 23 -20z m125 17 c0 -2
-10 -12 -22 -23 l-23 -19 19 23 c18 21 26 27 26 19z m-68 -77 l-4 -40 63 -2
64 -2 -62 -3 -63 -4 0 -92 c0 -60 4 -98 13 -107 10 -12 9 -12 -4 -2 -10 8 -19
8 -27 2 -9 -7 -9 -7 -2 2 6 7 10 54 10 105 l0 93 -62 2 -63 2 64 3 63 4 -4 40
c-2 23 1 39 7 39 6 0 9 -16 7 -40z m3106 -257 c-114 -2 -303 -2 -420 0 -117 1
-24 2 207 2 231 0 327 -1 213 -2z m2557 -138 l1 -140 -3 137 -4 138 -289 3
-290 2 292 0 293 0 0 -140z m-3198 -72 c-2 -38 -3 -7 -3 67 0 74 1 105 3 68 2
-38 2 -98 0 -135z m860 0 c-2 -38 -3 -7 -3 67 0 74 1 105 3 68 2 -38 2 -98 0
-135z m1740 0 c-2 -38 -3 -7 -3 67 0 74 1 105 3 68 2 -38 2 -98 0 -135z
m-5117 174 c0 -2 -10 -12 -22 -23 l-23 -19 19 23 c18 21 26 27 26 19z m115
-17 c10 -11 16 -20 13 -20 -3 0 -13 9 -23 20 -10 11 -16 20 -13 20 3 0 13 -9
23 -20z m2800 -40 c3 -5 1 -10 -4 -10 -6 0 -11 5 -11 10 0 6 2 10 4 10 3 0 8
-4 11 -10z m-295 -53 c0 -50 -12 -77 -34 -77 -6 0 -5 5 2 12 7 7 12 36 12 65
0 29 5 53 10 53 6 0 10 -24 10 -53z m233 46 c-13 -2 -23 -11 -23 -19 0 -8 10
-15 23 -15 l22 -2 -22 -4 c-16 -3 -23 -11 -23 -29 0 -13 -4 -24 -10 -24 -5 0
-10 23 -10 50 l0 50 33 -1 c23 -1 26 -3 10 -6z m103 -8 c9 -8 11 -15 5 -15
-15 0 -14 -57 2 -64 6 -3 3 -5 -8 -3 -16 2 -21 11 -23 50 -3 50 1 56 24 32z
m149 -31 c9 -25 14 -48 11 -51 -3 -3 -8 2 -12 11 -8 20 -43 21 -50 1 -4 -8
-10 -15 -15 -15 -5 0 -4 11 1 25 6 14 14 36 20 50 14 36 25 31 45 -21z m2145
39 c-42 -8 -46 -22 -11 -34 24 -9 31 -16 29 -33 -2 -16 -11 -22 -35 -24 -18
-2 -33 1 -33 6 0 5 11 7 24 5 36 -7 41 14 6 32 -47 25 -39 56 14 54 27 -2 28
-2 6 -6z m-2550 -28 c7 -9 10 -25 6 -41 -5 -20 -12 -25 -34 -22 -21 2 -28 9
-30 32 -5 42 32 62 58 31z m78 9 c42 -12 23 -105 -21 -103 -21 0 -21 1 3 11
l25 11 -25 6 c-25 7 -37 38 -26 67 6 16 11 16 44 8z m142 -40 c0 -19 -4 -34
-10 -34 -5 0 -10 18 -10 41 0 24 4 38 10 34 6 -3 10 -22 10 -41z m280 31 c18
-22 8 -60 -17 -63 -13 -2 -23 -10 -23 -18 0 -8 -4 -14 -10 -14 -5 0 -10 24
-10 53 0 48 2 53 24 55 13 1 29 -5 36 -13z m80 0 c18 -22 8 -60 -17 -63 -13
-2 -23 -10 -23 -18 0 -8 -4 -14 -10 -14 -5 0 -10 24 -10 53 0 48 2 53 24 55
13 1 29 -5 36 -13z m2070 0 c16 -19 4 -35 -28 -35 -28 0 -21 -14 13 -23 12 -3
8 -5 -10 -4 -23 2 -31 7 -33 25 -6 42 33 68 58 37z m57 4 c-10 -6 -17 -22 -17
-39 0 -17 -4 -30 -10 -30 -5 0 -10 17 -10 38 0 33 3 37 27 39 22 1 24 -1 10
-8z m69 -20 c8 19 17 32 19 29 8 -7 -24 -78 -34 -78 -5 0 -14 14 -20 31 -16
46 -12 60 6 19 l15 -35 14 34z m104 16 c16 -19 4 -35 -28 -35 -28 0 -21 -14
13 -23 12 -3 8 -5 -10 -4 -23 2 -31 7 -33 25 -6 42 33 68 58 37z m57 4 c-10
-6 -17 -22 -17 -39 0 -17 -4 -30 -10 -30 -5 0 -10 17 -10 38 0 33 3 37 27 39
22 1 24 -1 10 -8z m-2620 -35 c-3 -3 -12 -4 -19 -1 -8 3 -5 6 6 6 11 1 17 -2
13 -5z m-3242 -39 c1 -11 4 -26 9 -33 12 -19 -13 -42 -45 -42 -28 0 -29 2 -29
51 l0 50 33 -3 c24 -2 32 -8 32 -23z m321 10 c9 -8 11 -15 5 -15 -6 0 -11 -13
-11 -30 0 -39 22 -39 49 -1 l21 30 -22 4 c-17 3 -14 5 10 6 37 1 40 -8 12 -34
-26 -23 -25 -33 3 -38 12 -3 -3 -4 -33 -3 l-55 1 -3 48 c-3 50 1 56 24 32z
m-226 -20 c16 -19 4 -35 -28 -35 -28 0 -21 -14 13 -23 12 -3 8 -5 -10 -4 -23
2 -31 7 -33 25 -6 42 33 68 58 37z m78 2 c14 -9 17 -67 3 -67 -6 0 -11 15 -13
33 -2 17 -7 32 -13 32 -5 0 -11 -15 -13 -32 -4 -46 -22 -41 -22 5 0 33 3 38
23 37 12 0 28 -4 35 -8z m52 -28 c0 -19 5 -29 15 -29 10 0 15 10 15 30 0 17 5
30 10 30 6 0 10 -16 10 -36 0 -34 -1 -35 -32 -32 -30 3 -33 6 -36 42 -2 25 0
36 7 31 6 -3 11 -19 11 -36z m260 26 c16 -19 4 -35 -28 -35 -28 0 -21 -14 13
-23 12 -3 8 -5 -10 -4 -23 2 -31 7 -33 25 -6 42 33 68 58 37z m57 4 c-10 -6
-17 -22 -17 -39 0 -17 -4 -30 -10 -30 -5 0 -10 17 -10 38 0 33 3 37 27 39 22
1 24 -1 10 -8z m2836 -96 c-111 -2 -295 -2 -410 0 -114 1 -23 2 202 2 226 0
319 -1 208 -2z m2410 0 c-79 -2 -207 -2 -285 0 -79 1 -15 3 142 3 157 0 221
-2 143 -3z m-5516 -45 c-3 -7 -5 -2 -5 12 0 14 2 19 5 13 2 -7 2 -19 0 -25z
m2890 0 c-3 -7 -5 -2 -5 12 0 14 2 19 5 13 2 -7 2 -19 0 -25z m2470 0 c-3 -7
-5 -2 -5 12 0 14 2 19 5 13 2 -7 2 -19 0 -25z m-5360 -100 c-3 -7 -5 -2 -5 12
0 14 2 19 5 13 2 -7 2 -19 0 -25z m2890 0 c-3 -7 -5 -2 -5 12 0 14 2 19 5 13
2 -7 2 -19 0 -25z m2470 0 c-3 -7 -5 -2 -5 12 0 14 2 19 5 13 2 -7 2 -19 0
-25z m-5217 -28 c0 -5 -9 -10 -20 -10 -11 0 -20 -4 -20 -10 0 -5 9 -10 20 -10
11 0 20 -4 20 -10 0 -5 -9 -10 -20 -10 -27 0 -25 -28 3 -33 16 -3 13 -5 -10
-6 -32 -1 -33 0 -33 42 0 24 3 47 7 50 10 11 53 8 53 -3z m102 1 c-7 -4 -12
-12 -11 -17 1 -5 1 -24 0 -41 -1 -41 -21 -44 -21 -3 0 41 -27 39 -39 -2 l-9
-33 -1 38 c-1 33 2 37 24 37 14 0 28 7 31 15 4 8 14 15 23 15 12 0 13 -2 3 -9z
m105 -68 c-2 -16 -4 -3 -4 27 0 30 2 43 4 28 2 -16 2 -40 0 -55z m400 0 c-2
-16 -4 -3 -4 27 0 30 2 43 4 28 2 -16 2 -40 0 -55z m293 67 c0 -5 -7 -10 -15
-10 -8 0 -15 -4 -15 -10 0 -5 7 -10 15 -10 8 0 15 -4 15 -10 0 -5 -7 -10 -15
-10 -8 0 -15 -9 -15 -20 0 -11 -4 -20 -10 -20 -11 0 -14 83 -3 93 10 11 43 8
43 -3z m380 -41 c0 -49 -1 -50 -27 -47 -24 3 -28 8 -28 33 0 23 5 31 23 33 12
2 22 10 22 18 0 8 2 14 5 14 3 0 5 -23 5 -51z m173 19 c18 -2 22 -10 23 -38
l2 -35 -5 33 c-6 42 -35 40 -44 -3 -5 -22 -7 -16 -7 25 0 30 2 47 5 38 2 -9
14 -18 26 -20z m349 23 c-7 -4 -12 -12 -11 -17 4 -25 -2 -74 -10 -74 -14 0
-18 62 -6 83 5 9 17 17 25 17 12 0 12 -2 2 -9z m-1337 -29 c-21 -5 -19 -38 3
-52 16 -10 15 -10 -3 -8 -13 2 -22 13 -26 33 -8 44 -2 57 22 42 16 -10 17 -13
4 -15z m361 3 c-10 -40 -26 -78 -31 -73 -6 6 25 98 32 98 3 0 2 -11 -1 -25z
m-651 -30 c0 -25 -4 -30 -25 -30 -16 0 -26 6 -28 18 -6 30 6 49 30 45 18 -2
23 -9 23 -33z m115 -3 c0 -21 -5 -43 -12 -50 -14 -14 -38 -16 -38 -3 0 5 7 8
16 7 9 0 19 4 21 10 2 6 -7 10 -19 10 -14 -1 -24 6 -26 17 -6 30 6 47 33 47
22 0 25 -4 25 -38z m88 16 c3 -14 -3 -18 -24 -18 -30 0 -23 -14 11 -23 12 -3
8 -5 -10 -4 -31 2 -43 23 -31 53 8 21 50 14 54 -8z m170 0 c3 -14 -3 -18 -24
-18 -30 0 -23 -14 11 -23 12 -3 8 -5 -10 -4 -31 2 -43 23 -31 53 8 21 50 14
54 -8z m29 -30 c-2 -13 -4 -5 -4 17 -1 22 1 32 4 23 2 -10 2 -28 0 -40z m121
30 c3 -14 -3 -18 -24 -18 -30 0 -23 -14 11 -23 12 -3 8 -5 -10 -4 -31 2 -43
23 -31 53 8 21 50 14 54 -8z m78 -13 c1 -30 1 -30 -3 -2 -6 38 -36 32 -44 -8
-6 -29 -7 -28 -8 8 -1 36 1 38 27 35 22 -2 27 -8 28 -33z m176 26 c-7 -4 -17
-21 -22 -37 -8 -29 -8 -29 -9 9 -1 32 2 37 22 37 15 0 18 -3 9 -9z m76 -13 c3
-14 -3 -18 -24 -18 -30 0 -23 -14 11 -23 12 -3 8 -5 -10 -4 -31 2 -43 23 -31
53 8 21 50 14 54 -8z m52 -33 c8 0 18 13 21 30 6 29 7 28 8 -8 1 -36 -1 -38
-26 -35 -24 3 -28 8 -30 38 -1 34 -1 34 5 5 4 -17 14 -30 22 -30z m116 20 c1
-30 1 -30 -3 -2 -6 38 -36 32 -44 -8 -6 -29 -7 -28 -8 8 -1 36 1 38 27 35 22
-2 27 -8 28 -33z m162 13 c3 -14 -3 -18 -24 -18 -30 0 -23 -14 11 -23 12 -3 8
-5 -10 -4 -31 2 -43 23 -31 53 8 21 50 14 54 -8z m159 -30 c-2 -13 -4 -5 -4
17 -1 22 1 32 4 23 2 -10 2 -28 0 -40z m79 17 c1 -30 1 -30 -3 -2 -6 38 -36
32 -44 -8 -6 -29 -7 -28 -8 8 -1 36 1 38 27 35 22 -2 27 -8 28 -33z m74 27 c0
-5 -9 -17 -21 -28 l-21 -19 24 -6 c22 -7 22 -7 -4 -8 -32 -1 -34 5 -12 34 13
18 13 20 -3 27 -14 5 -12 7 10 7 15 1 27 -3 27 -7z m50 -47 c8 0 18 13 21 30
6 29 7 28 8 -8 1 -36 -1 -38 -26 -35 -24 3 -28 8 -30 38 -1 34 -1 34 5 5 4
-17 14 -30 22 -30z m130 0 c8 0 18 13 21 30 6 29 7 28 8 -8 1 -36 -1 -38 -26
-35 -24 3 -28 8 -30 38 -1 34 -1 34 5 5 4 -17 14 -30 22 -30z m110 17 c0 -21
-5 -43 -12 -50 -14 -14 -38 -16 -38 -3 0 5 7 8 16 7 9 0 19 4 21 10 2 6 -7 10
-19 10 -14 -1 -24 6 -26 17 -6 30 6 47 33 47 22 0 25 -4 25 -38z m88 16 c3
-14 -3 -18 -24 -18 -30 0 -23 -14 11 -23 12 -3 8 -5 -10 -4 -31 2 -43 23 -31
53 8 21 50 14 54 -8z m78 -13 c1 -30 1 -30 -3 -2 -6 38 -36 32 -44 -8 -6 -29
-7 -28 -8 8 -1 36 1 38 27 35 22 -2 27 -8 28 -33z m-2269 -17 c-3 -7 -5 -2 -5
12 0 14 2 19 5 13 2 -7 2 -19 0 -25z m2890 0 c-3 -7 -5 -2 -5 12 0 14 2 19 5
13 2 -7 2 -19 0 -25z m2470 0 c-3 -7 -5 -2 -5 12 0 14 2 19 5 13 2 -7 2 -19 0
-25z m-2519 -52 c40 -16 52 -24 51 -40 -1 -17 -2 -18 -6 -3 -6 21 -2 21 -58
-3 -57 -24 -62 -25 -42 -2 24 26 24 28 2 52 -11 13 -15 21 -10 19 6 -2 34 -13
63 -23z m-2824 -24 c-6 -4 -14 -14 -17 -22 -4 -10 -6 -8 -6 8 -1 15 5 22 17
22 10 0 13 -3 6 -8z m43 2 c-3 -3 -12 -4 -19 -1 -8 3 -5 6 6 6 11 1 17 -2 13
-5z m40 0 c-3 -3 -12 -4 -19 -1 -8 3 -5 6 6 6 11 1 17 -2 13 -5z m40 0 c-3 -3
-12 -4 -19 -1 -8 3 -5 6 6 6 11 1 17 -2 13 -5z m40 0 c-3 -3 -12 -4 -19 -1 -8
3 -5 6 6 6 11 1 17 -2 13 -5z m40 0 c-3 -3 -12 -4 -19 -1 -8 3 -5 6 6 6 11 1
17 -2 13 -5z m40 0 c-3 -3 -12 -4 -19 -1 -8 3 -5 6 6 6 11 1 17 -2 13 -5z m40
0 c-3 -3 -12 -4 -19 -1 -8 3 -5 6 6 6 11 1 17 -2 13 -5z m40 0 c-3 -3 -12 -4
-19 -1 -8 3 -5 6 6 6 11 1 17 -2 13 -5z m40 0 c-3 -3 -12 -4 -19 -1 -8 3 -5 6
6 6 11 1 17 -2 13 -5z m40 0 c-3 -3 -12 -4 -19 -1 -8 3 -5 6 6 6 11 1 17 -2
13 -5z m40 0 c-3 -3 -12 -4 -19 -1 -8 3 -5 6 6 6 11 1 17 -2 13 -5z m40 0 c-3
-3 -12 -4 -19 -1 -8 3 -5 6 6 6 11 1 17 -2 13 -5z m40 0 c-3 -3 -12 -4 -19 -1
-8 3 -5 6 6 6 11 1 17 -2 13 -5z m40 0 c-3 -3 -12 -4 -19 -1 -8 3 -5 6 6 6 11
1 17 -2 13 -5z m40 0 c-3 -3 -12 -4 -19 -1 -8 3 -5 6 6 6 11 1 17 -2 13 -5z
m40 0 c-3 -3 -12 -4 -19 -1 -8 3 -5 6 6 6 11 1 17 -2 13 -5z m40 0 c-3 -3 -12
-4 -19 -1 -8 3 -5 6 6 6 11 1 17 -2 13 -5z m40 0 c-3 -3 -12 -4 -19 -1 -8 3
-5 6 6 6 11 1 17 -2 13 -5z m40 0 c-3 -3 -12 -4 -19 -1 -8 3 -5 6 6 6 11 1 17
-2 13 -5z m40 0 c-3 -3 -12 -4 -19 -1 -8 3 -5 6 6 6 11 1 17 -2 13 -5z m40 0
c-3 -3 -12 -4 -19 -1 -8 3 -5 6 6 6 11 1 17 -2 13 -5z m40 0 c-3 -3 -12 -4
-19 -1 -8 3 -5 6 6 6 11 1 17 -2 13 -5z m40 0 c-3 -3 -12 -4 -19 -1 -8 3 -5 6
6 6 11 1 17 -2 13 -5z m40 0 c-3 -3 -12 -4 -19 -1 -8 3 -5 6 6 6 11 1 17 -2
13 -5z m40 0 c-3 -3 -12 -4 -19 -1 -8 3 -5 6 6 6 11 1 17 -2 13 -5z m40 0 c-3
-3 -12 -4 -19 -1 -8 3 -5 6 6 6 11 1 17 -2 13 -5z m40 0 c-3 -3 -12 -4 -19 -1
-8 3 -5 6 6 6 11 1 17 -2 13 -5z m40 0 c-3 -3 -12 -4 -19 -1 -8 3 -5 6 6 6 11
1 17 -2 13 -5z m40 0 c-3 -3 -12 -4 -19 -1 -8 3 -5 6 6 6 11 1 17 -2 13 -5z
m40 0 c-3 -3 -12 -4 -19 -1 -8 3 -5 6 6 6 11 1 17 -2 13 -5z m40 0 c-3 -3 -12
-4 -19 -1 -8 3 -5 6 6 6 11 1 17 -2 13 -5z m40 0 c-3 -3 -12 -4 -19 -1 -8 3
-5 6 6 6 11 1 17 -2 13 -5z m40 0 c-3 -3 -12 -4 -19 -1 -8 3 -5 6 6 6 11 1 17
-2 13 -5z m40 0 c-3 -3 -12 -4 -19 -1 -8 3 -5 6 6 6 11 1 17 -2 13 -5z m40 0
c-3 -3 -12 -4 -19 -1 -8 3 -5 6 6 6 11 1 17 -2 13 -5z m40 0 c-3 -3 -12 -4
-19 -1 -8 3 -5 6 6 6 11 1 17 -2 13 -5z m40 0 c-3 -3 -12 -4 -19 -1 -8 3 -5 6
6 6 11 1 17 -2 13 -5z m40 0 c-3 -3 -12 -4 -19 -1 -8 3 -5 6 6 6 11 1 17 -2
13 -5z m40 0 c-3 -3 -12 -4 -19 -1 -8 3 -5 6 6 6 11 1 17 -2 13 -5z m40 0 c-3
-3 -12 -4 -19 -1 -8 3 -5 6 6 6 11 1 17 -2 13 -5z m40 0 c-3 -3 -12 -4 -19 -1
-8 3 -5 6 6 6 11 1 17 -2 13 -5z m40 0 c-3 -3 -12 -4 -19 -1 -8 3 -5 6 6 6 11
1 17 -2 13 -5z m40 0 c-3 -3 -12 -4 -19 -1 -8 3 -5 6 6 6 11 1 17 -2 13 -5z
m40 0 c-3 -3 -12 -4 -19 -1 -8 3 -5 6 6 6 11 1 17 -2 13 -5z m40 0 c-3 -3 -12
-4 -19 -1 -8 3 -5 6 6 6 11 1 17 -2 13 -5z m40 0 c-3 -3 -12 -4 -19 -1 -8 3
-5 6 6 6 11 1 17 -2 13 -5z m40 0 c-3 -3 -12 -4 -19 -1 -8 3 -5 6 6 6 11 1 17
-2 13 -5z m40 0 c-3 -3 -12 -4 -19 -1 -8 3 -5 6 6 6 11 1 17 -2 13 -5z m40 0
c-3 -3 -12 -4 -19 -1 -8 3 -5 6 6 6 11 1 17 -2 13 -5z m40 0 c-3 -3 -12 -4
-19 -1 -8 3 -5 6 6 6 11 1 17 -2 13 -5z m40 0 c-3 -3 -12 -4 -19 -1 -8 3 -5 6
6 6 11 1 17 -2 13 -5z m40 0 c-3 -3 -12 -4 -19 -1 -8 3 -5 6 6 6 11 1 17 -2
13 -5z m40 0 c-3 -3 -12 -4 -19 -1 -8 3 -5 6 6 6 11 1 17 -2 13 -5z m40 0 c-3
-3 -12 -4 -19 -1 -8 3 -5 6 6 6 11 1 17 -2 13 -5z m40 0 c-3 -3 -12 -4 -19 -1
-8 3 -5 6 6 6 11 1 17 -2 13 -5z m40 0 c-3 -3 -12 -4 -19 -1 -8 3 -5 6 6 6 11
1 17 -2 13 -5z m40 0 c-3 -3 -12 -4 -19 -1 -8 3 -5 6 6 6 11 1 17 -2 13 -5z
m40 0 c-3 -3 -12 -4 -19 -1 -8 3 -5 6 6 6 11 1 17 -2 13 -5z m40 0 c-3 -3 -12
-4 -19 -1 -8 3 -5 6 6 6 11 1 17 -2 13 -5z m40 0 c-3 -3 -12 -4 -19 -1 -8 3
-5 6 6 6 11 1 17 -2 13 -5z m40 0 c-3 -3 -12 -4 -19 -1 -8 3 -5 6 6 6 11 1 17
-2 13 -5z m40 0 c-3 -3 -12 -4 -19 -1 -8 3 -5 6 6 6 11 1 17 -2 13 -5z m40 0
c-3 -3 -12 -4 -19 -1 -8 3 -5 6 6 6 11 1 17 -2 13 -5z m40 0 c-3 -3 -12 -4
-19 -1 -8 3 -5 6 6 6 11 1 17 -2 13 -5z m40 0 c-3 -3 -12 -4 -19 -1 -8 3 -5 6
6 6 11 1 17 -2 13 -5z m40 0 c-3 -3 -12 -4 -19 -1 -8 3 -5 6 6 6 11 1 17 -2
13 -5z m40 0 c-3 -3 -12 -4 -19 -1 -8 3 -5 6 6 6 11 1 17 -2 13 -5z m40 0 c-3
-3 -12 -4 -19 -1 -8 3 -5 6 6 6 11 1 17 -2 13 -5z m40 0 c-3 -3 -12 -4 -19 -1
-8 3 -5 6 6 6 11 1 17 -2 13 -5z m2580 -26 c-3 -7 -5 -2 -5 12 0 14 2 19 5 13
2 -7 2 -19 0 -25z m-5360 -100 c-3 -7 -5 -2 -5 12 0 14 2 19 5 13 2 -7 2 -19
0 -25z m2890 0 c-3 -7 -5 -2 -5 12 0 14 2 19 5 13 2 -7 2 -19 0 -25z m2470 0
c-3 -7 -5 -2 -5 12 0 14 2 19 5 13 2 -7 2 -19 0 -25z m-2322 -19 c4 -6 1 -10
-6 -8 -25 3 -39 -1 -39 -11 0 -5 6 -10 14 -10 21 0 46 -28 40 -45 -6 -16 -64
-21 -64 -6 0 4 11 6 25 3 18 -3 25 0 25 11 0 8 -11 18 -25 21 -16 4 -25 13
-25 25 0 27 42 42 55 20z m292 -66 c-2 -16 -4 -3 -4 27 0 30 2 43 4 28 2 -16
2 -40 0 -55z m207 67 c20 -7 26 -17 26 -38 0 -36 -16 -52 -52 -52 -26 0 -28 3
-28 43 0 59 7 65 54 47z m749 -22 c18 -2 22 -10 23 -38 l2 -35 -5 33 c-6 42
-35 40 -44 -3 -5 -22 -7 -16 -7 25 0 30 2 47 5 38 2 -9 14 -18 26 -20z m-598
-6 c-21 -5 -19 -38 3 -52 16 -10 15 -10 -3 -8 -13 2 -22 13 -26 33 -8 44 -2
57 22 42 16 -10 17 -13 4 -15z m-570 -27 c0 -25 -4 -30 -25 -30 -16 0 -26 6
-28 18 -6 30 6 49 30 45 18 -2 23 -9 23 -33z m75 27 c0 -5 -9 -17 -21 -28
l-21 -19 24 -6 c22 -7 22 -7 -4 -8 -32 -1 -34 5 -12 34 13 18 13 20 -3 27 -14
5 -12 7 10 7 15 1 27 -3 27 -7z m27 -44 c-2 -13 -4 -5 -4 17 -1 22 1 32 4 23
2 -10 2 -28 0 -40z m81 15 c3 -31 1 -33 -27 -33 -24 0 -31 4 -31 19 0 11 10
22 23 26 l22 7 -25 8 c-24 9 -24 9 5 7 26 -2 30 -6 33 -34z m120 15 c3 -14 -3
-18 -24 -18 -30 0 -23 -14 11 -23 12 -3 8 -5 -10 -4 -31 2 -43 23 -31 53 8 21
50 14 54 -8z m220 -15 c3 -31 1 -33 -27 -33 -24 0 -31 4 -31 19 0 11 10 22 23
26 l22 7 -25 8 c-24 9 -24 9 5 7 26 -2 30 -6 33 -34z m130 15 c3 -14 -3 -18
-24 -18 -30 0 -23 -14 11 -23 12 -3 8 -5 -10 -4 -31 2 -43 23 -31 53 8 21 50
14 54 -8z m78 -13 c1 -30 1 -30 -3 -2 -6 38 -36 32 -44 -8 -6 -29 -7 -28 -8 8
-1 36 1 38 27 35 22 -2 27 -8 28 -33z m95 28 l-25 -5 25 -18 c18 -14 21 -22
13 -30 -7 -7 -20 -10 -30 -7 -16 4 -15 5 4 6 27 1 29 17 2 24 -31 8 -25 37 8
36 26 -2 26 -2 3 -6z m102 -12 c6 -25 -10 -51 -33 -51 -10 0 -21 -8 -23 -17
-3 -10 -5 6 -6 35 -1 51 0 52 28 52 20 0 30 -6 34 -19z m75 -3 c3 -14 -3 -18
-24 -18 -30 0 -23 -14 11 -23 12 -3 8 -5 -10 -4 -31 2 -43 23 -31 53 8 21 50
14 54 -8z m29 -30 c-2 -13 -4 -5 -4 17 -1 22 1 32 4 23 2 -10 2 -28 0 -40z
m66 42 c-13 -5 -23 -16 -23 -25 0 -9 10 -20 23 -25 22 -10 22 -10 -3 -7 -42 4
-40 68 2 66 l23 0 -22 -9z m175 -12 c3 -14 -3 -18 -24 -18 -30 0 -23 -14 11
-23 12 -3 8 -5 -10 -4 -31 2 -43 23 -31 53 8 21 50 14 54 -8z m54 13 c-7 -4
-17 -21 -22 -37 -8 -29 -8 -29 -9 9 -1 32 2 37 22 37 15 0 18 -3 9 -9z m84
-26 c1 -30 1 -30 -3 -2 -6 38 -36 32 -44 -8 -6 -29 -7 -28 -8 8 -1 36 1 38 27
35 22 -2 27 -8 28 -33z m-4529 -27 c-3 -7 -5 -2 -5 12 0 14 2 19 5 13 2 -7 2
-19 0 -25z m2890 0 c-3 -7 -5 -2 -5 12 0 14 2 19 5 13 2 -7 2 -19 0 -25z
m2470 0 c-3 -7 -5 -2 -5 12 0 14 2 19 5 13 2 -7 2 -19 0 -25z m-52 -42 c45
-20 55 -29 54 -48 -2 -23 -2 -23 -6 -1 l-4 22 -50 -19 c-62 -25 -66 -25 -44 0
14 15 15 20 4 21 -11 0 -11 2 -1 6 10 4 9 9 -4 24 -22 25 -16 24 51 -5z
m-2397 -23 c-10 -2 -18 -14 -19 -26 0 -12 -3 -16 -6 -9 -8 20 5 42 24 41 17
-1 17 -2 1 -6z m49 1 c-3 -3 -12 -4 -19 -1 -8 3 -5 6 6 6 11 1 17 -2 13 -5z
m40 0 c-3 -3 -12 -4 -19 -1 -8 3 -5 6 6 6 11 1 17 -2 13 -5z m40 0 c-3 -3 -12
-4 -19 -1 -8 3 -5 6 6 6 11 1 17 -2 13 -5z m40 0 c-3 -3 -12 -4 -19 -1 -8 3
-5 6 6 6 11 1 17 -2 13 -5z m40 0 c-3 -3 -12 -4 -19 -1 -8 3 -5 6 6 6 11 1 17
-2 13 -5z m40 0 c-3 -3 -12 -4 -19 -1 -8 3 -5 6 6 6 11 1 17 -2 13 -5z m40 0
c-3 -3 -12 -4 -19 -1 -8 3 -5 6 6 6 11 1 17 -2 13 -5z m40 0 c-3 -3 -12 -4
-19 -1 -8 3 -5 6 6 6 11 1 17 -2 13 -5z m40 0 c-3 -3 -12 -4 -19 -1 -8 3 -5 6
6 6 11 1 17 -2 13 -5z m40 0 c-3 -3 -12 -4 -19 -1 -8 3 -5 6 6 6 11 1 17 -2
13 -5z m40 0 c-3 -3 -12 -4 -19 -1 -8 3 -5 6 6 6 11 1 17 -2 13 -5z m40 0 c-3
-3 -12 -4 -19 -1 -8 3 -5 6 6 6 11 1 17 -2 13 -5z m40 0 c-3 -3 -12 -4 -19 -1
-8 3 -5 6 6 6 11 1 17 -2 13 -5z m40 0 c-3 -3 -12 -4 -19 -1 -8 3 -5 6 6 6 11
1 17 -2 13 -5z m40 0 c-3 -3 -12 -4 -19 -1 -8 3 -5 6 6 6 11 1 17 -2 13 -5z
m40 0 c-3 -3 -12 -4 -19 -1 -8 3 -5 6 6 6 11 1 17 -2 13 -5z m40 0 c-3 -3 -12
-4 -19 -1 -8 3 -5 6 6 6 11 1 17 -2 13 -5z m40 0 c-3 -3 -12 -4 -19 -1 -8 3
-5 6 6 6 11 1 17 -2 13 -5z m40 0 c-3 -3 -12 -4 -19 -1 -8 3 -5 6 6 6 11 1 17
-2 13 -5z m40 0 c-3 -3 -12 -4 -19 -1 -8 3 -5 6 6 6 11 1 17 -2 13 -5z m40 0
c-3 -3 -12 -4 -19 -1 -8 3 -5 6 6 6 11 1 17 -2 13 -5z m40 0 c-3 -3 -12 -4
-19 -1 -8 3 -5 6 6 6 11 1 17 -2 13 -5z m40 0 c-3 -3 -12 -4 -19 -1 -8 3 -5 6
6 6 11 1 17 -2 13 -5z m40 0 c-3 -3 -12 -4 -19 -1 -8 3 -5 6 6 6 11 1 17 -2
13 -5z m40 0 c-3 -3 -12 -4 -19 -1 -8 3 -5 6 6 6 11 1 17 -2 13 -5z m40 0 c-3
-3 -12 -4 -19 -1 -8 3 -5 6 6 6 11 1 17 -2 13 -5z m40 0 c-3 -3 -12 -4 -19 -1
-8 3 -5 6 6 6 11 1 17 -2 13 -5z m40 0 c-3 -3 -12 -4 -19 -1 -8 3 -5 6 6 6 11
1 17 -2 13 -5z m40 0 c-3 -3 -12 -4 -19 -1 -8 3 -5 6 6 6 11 1 17 -2 13 -5z
m40 0 c-3 -3 -12 -4 -19 -1 -8 3 -5 6 6 6 11 1 17 -2 13 -5z m40 0 c-3 -3 -12
-4 -19 -1 -8 3 -5 6 6 6 11 1 17 -2 13 -5z m40 0 c-3 -3 -12 -4 -19 -1 -8 3
-5 6 6 6 11 1 17 -2 13 -5z m40 0 c-3 -3 -12 -4 -19 -1 -8 3 -5 6 6 6 11 1 17
-2 13 -5z m40 0 c-3 -3 -12 -4 -19 -1 -8 3 -5 6 6 6 11 1 17 -2 13 -5z m40 0
c-3 -3 -12 -4 -19 -1 -8 3 -5 6 6 6 11 1 17 -2 13 -5z m40 0 c-3 -3 -12 -4
-19 -1 -8 3 -5 6 6 6 11 1 17 -2 13 -5z m40 0 c-3 -3 -12 -4 -19 -1 -8 3 -5 6
6 6 11 1 17 -2 13 -5z m40 0 c-3 -3 -12 -4 -19 -1 -8 3 -5 6 6 6 11 1 17 -2
13 -5z m40 0 c-3 -3 -12 -4 -19 -1 -8 3 -5 6 6 6 11 1 17 -2 13 -5z m40 0 c-3
-3 -12 -4 -19 -1 -8 3 -5 6 6 6 11 1 17 -2 13 -5z m40 0 c-3 -3 -12 -4 -19 -1
-8 3 -5 6 6 6 11 1 17 -2 13 -5z m40 0 c-3 -3 -12 -4 -19 -1 -8 3 -5 6 6 6 11
1 17 -2 13 -5z m40 0 c-3 -3 -12 -4 -19 -1 -8 3 -5 6 6 6 11 1 17 -2 13 -5z
m40 0 c-3 -3 -12 -4 -19 -1 -8 3 -5 6 6 6 11 1 17 -2 13 -5z m40 0 c-3 -3 -12
-4 -19 -1 -8 3 -5 6 6 6 11 1 17 -2 13 -5z m40 0 c-3 -3 -12 -4 -19 -1 -8 3
-5 6 6 6 11 1 17 -2 13 -5z m40 0 c-3 -3 -12 -4 -19 -1 -8 3 -5 6 6 6 11 1 17
-2 13 -5z m40 0 c-3 -3 -12 -4 -19 -1 -8 3 -5 6 6 6 11 1 17 -2 13 -5z m40 0
c-3 -3 -12 -4 -19 -1 -8 3 -5 6 6 6 11 1 17 -2 13 -5z m40 0 c-3 -3 -12 -4
-19 -1 -8 3 -5 6 6 6 11 1 17 -2 13 -5z m40 0 c-3 -3 -12 -4 -19 -1 -8 3 -5 6
6 6 11 1 17 -2 13 -5z m40 0 c-3 -3 -12 -4 -19 -1 -8 3 -5 6 6 6 11 1 17 -2
13 -5z m40 0 c-3 -3 -12 -4 -19 -1 -8 3 -5 6 6 6 11 1 17 -2 13 -5z m40 0 c-3
-3 -12 -4 -19 -1 -8 3 -5 6 6 6 11 1 17 -2 13 -5z m40 0 c-3 -3 -12 -4 -19 -1
-8 3 -5 6 6 6 11 1 17 -2 13 -5z m40 0 c-3 -3 -12 -4 -19 -1 -8 3 -5 6 6 6 11
1 17 -2 13 -5z m40 0 c-3 -3 -12 -4 -19 -1 -8 3 -5 6 6 6 11 1 17 -2 13 -5z
m40 0 c-3 -3 -12 -4 -19 -1 -8 3 -5 6 6 6 11 1 17 -2 13 -5z m-5240 -36 c-3
-7 -5 -2 -5 12 0 14 2 19 5 13 2 -7 2 -19 0 -25z m0 -100 c-3 -7 -5 -2 -5 12
0 14 2 19 5 13 2 -7 2 -19 0 -25z m2890 0 c-3 -7 -5 -2 -5 12 0 14 2 19 5 13
2 -7 2 -19 0 -25z m2470 0 c-3 -7 -5 -2 -5 12 0 14 2 19 5 13 2 -7 2 -19 0
-25z m-5127 -18 c0 -5 -7 -10 -15 -10 -8 0 -15 -4 -15 -10 0 -5 7 -10 15 -10
8 0 15 -4 15 -10 0 -5 -7 -10 -15 -10 -8 0 -15 -9 -15 -20 0 -11 -4 -20 -10
-20 -11 0 -14 83 -3 93 10 11 43 8 43 -3z m380 -41 c0 -49 -1 -50 -27 -47 -24
3 -28 8 -28 33 0 23 5 31 23 33 12 2 22 10 22 18 0 8 2 14 5 14 3 0 5 -23 5
-51z m177 -26 c-2 -16 -4 -3 -4 27 0 30 2 43 4 28 2 -16 2 -40 0 -55z m453 67
c0 -5 -9 -10 -20 -10 -11 0 -20 -4 -20 -10 0 -5 9 -10 20 -10 11 0 20 -4 20
-10 0 -5 -9 -10 -20 -10 -27 0 -25 -28 3 -33 16 -3 13 -5 -10 -6 -32 -1 -33 0
-33 42 0 24 3 47 7 50 10 11 53 8 53 -3z m102 1 c-7 -4 -12 -12 -11 -17 1 -5
1 -24 0 -41 -1 -41 -21 -44 -21 -3 0 41 -27 39 -39 -2 l-9 -33 -1 38 c-1 33 2
37 24 37 14 0 28 7 31 15 4 8 14 15 23 15 12 0 13 -2 3 -9z m105 -68 c-2 -16
-4 -3 -4 27 0 30 2 43 4 28 2 -16 2 -40 0 -55z m348 47 c14 0 25 -7 28 -19 7
-27 -11 -51 -38 -51 -24 0 -25 3 -24 53 1 28 3 44 6 35 3 -11 14 -18 28 -18z
m217 21 c-7 -4 -12 -12 -11 -17 4 -25 -2 -74 -10 -74 -14 0 -18 62 -6 83 5 9
17 17 25 17 12 0 12 -2 2 -9z m-1067 -29 c-21 -5 -19 -38 3 -52 16 -10 15 -10
-3 -8 -13 2 -22 13 -26 33 -8 44 -2 57 22 42 16 -10 17 -13 4 -15z m211 3
c-10 -40 -26 -78 -31 -73 -6 6 25 98 32 98 3 0 2 -11 -1 -25z m-874 -4 c-7 -4
-17 -21 -22 -37 -8 -29 -8 -29 -9 9 -1 32 2 37 22 37 15 0 18 -3 9 -9z m76
-13 c3 -14 -3 -18 -24 -18 -30 0 -23 -14 11 -23 12 -3 8 -5 -10 -4 -31 2 -43
23 -31 53 8 21 50 14 54 -8z m52 -33 c8 0 18 13 21 30 6 29 7 28 8 -8 1 -36
-1 -38 -26 -35 -24 3 -28 8 -30 38 -1 34 -1 34 5 5 4 -17 14 -30 22 -30z m116
20 c1 -30 1 -30 -3 -2 -6 38 -36 32 -44 -8 -6 -29 -7 -28 -8 8 -1 36 1 38 27
35 22 -2 27 -8 28 -33z m162 13 c3 -14 -3 -18 -24 -18 -30 0 -23 -14 11 -23
12 -3 8 -5 -10 -4 -31 2 -43 23 -31 53 8 21 50 14 54 -8z m53 15 l-25 -5 25
-18 c18 -14 21 -22 13 -30 -7 -7 -20 -10 -30 -7 -16 4 -15 5 4 6 27 1 29 17 2
24 -31 8 -25 37 8 36 26 -2 26 -2 3 -6z m86 -45 c-2 -13 -4 -5 -4 17 -1 22 1
32 4 23 2 -10 2 -28 0 -40z m54 45 l-25 -5 25 -18 c18 -14 21 -22 13 -30 -7
-7 -20 -10 -30 -7 -16 4 -15 5 4 6 27 1 29 17 2 24 -31 8 -25 37 8 36 26 -2
26 -2 3 -6z m147 -15 c3 -14 -3 -18 -24 -18 -30 0 -23 -14 11 -23 12 -3 8 -5
-10 -4 -31 2 -43 23 -31 53 8 21 50 14 54 -8z m78 -13 c1 -30 1 -30 -3 -2 -6
38 -36 32 -44 -8 -6 -29 -7 -28 -8 8 -1 36 1 38 27 35 22 -2 27 -8 28 -33z
m309 0 c0 -25 -4 -30 -25 -30 -16 0 -26 6 -28 18 -6 30 6 49 30 45 18 -2 23
-9 23 -33z m115 -3 c0 -21 -5 -43 -12 -50 -14 -14 -38 -16 -38 -3 0 5 7 8 16
7 9 0 19 4 21 10 2 6 -7 10 -19 10 -14 -1 -24 6 -26 17 -6 30 6 47 33 47 22 0
25 -4 25 -38z m88 16 c3 -14 -3 -18 -24 -18 -30 0 -23 -14 11 -23 12 -3 8 -5
-10 -4 -31 2 -43 23 -31 53 8 21 50 14 54 -8z m120 -15 c3 -31 1 -33 -27 -33
-24 0 -31 4 -31 19 0 11 10 22 23 26 l22 7 -25 8 c-24 9 -24 9 5 7 26 -2 30
-6 33 -34z m134 28 c-7 -4 -17 -21 -22 -37 -8 -29 -8 -29 -9 9 -1 32 2 37 22
37 15 0 18 -3 9 -9z m48 -46 c8 0 18 13 21 30 6 29 7 28 8 -8 1 -36 -1 -38
-26 -35 -24 3 -28 8 -30 38 -1 34 -1 34 5 5 4 -17 14 -30 22 -30z m158 33 c3
-14 -3 -18 -24 -18 -30 0 -23 -14 11 -23 12 -3 8 -5 -10 -4 -31 2 -43 23 -31
53 8 21 50 14 54 -8z m78 -13 c1 -30 1 -30 -3 -2 -6 38 -36 32 -44 -8 -6 -29
-7 -28 -8 8 -1 36 1 38 27 35 22 -2 27 -8 28 -33z m-2159 -27 c-3 -7 -5 -2 -5
12 0 14 2 19 5 13 2 -7 2 -19 0 -25z m2890 0 c-3 -7 -5 -2 -5 12 0 14 2 19 5
13 2 -7 2 -19 0 -25z m2470 0 c-3 -7 -5 -2 -5 12 0 14 2 19 5 13 2 -7 2 -19 0
-25z m-5265 -31 l-22 -24 20 -18 c30 -27 19 -28 -40 -3 l-54 22 50 22 c63 29
72 29 46 1z m15 -23 c-3 -3 -12 -4 -19 -1 -8 3 -5 6 6 6 11 1 17 -2 13 -5z
m40 0 c-3 -3 -12 -4 -19 -1 -8 3 -5 6 6 6 11 1 17 -2 13 -5z m40 0 c-3 -3 -12
-4 -19 -1 -8 3 -5 6 6 6 11 1 17 -2 13 -5z m40 0 c-3 -3 -12 -4 -19 -1 -8 3
-5 6 6 6 11 1 17 -2 13 -5z m40 0 c-3 -3 -12 -4 -19 -1 -8 3 -5 6 6 6 11 1 17
-2 13 -5z m40 0 c-3 -3 -12 -4 -19 -1 -8 3 -5 6 6 6 11 1 17 -2 13 -5z m40 0
c-3 -3 -12 -4 -19 -1 -8 3 -5 6 6 6 11 1 17 -2 13 -5z m40 0 c-3 -3 -12 -4
-19 -1 -8 3 -5 6 6 6 11 1 17 -2 13 -5z m40 0 c-3 -3 -12 -4 -19 -1 -8 3 -5 6
6 6 11 1 17 -2 13 -5z m40 0 c-3 -3 -12 -4 -19 -1 -8 3 -5 6 6 6 11 1 17 -2
13 -5z m40 0 c-3 -3 -12 -4 -19 -1 -8 3 -5 6 6 6 11 1 17 -2 13 -5z m40 0 c-3
-3 -12 -4 -19 -1 -8 3 -5 6 6 6 11 1 17 -2 13 -5z m40 0 c-3 -3 -12 -4 -19 -1
-8 3 -5 6 6 6 11 1 17 -2 13 -5z m40 0 c-3 -3 -12 -4 -19 -1 -8 3 -5 6 6 6 11
1 17 -2 13 -5z m40 0 c-3 -3 -12 -4 -19 -1 -8 3 -5 6 6 6 11 1 17 -2 13 -5z
m40 0 c-3 -3 -12 -4 -19 -1 -8 3 -5 6 6 6 11 1 17 -2 13 -5z m40 0 c-3 -3 -12
-4 -19 -1 -8 3 -5 6 6 6 11 1 17 -2 13 -5z m40 0 c-3 -3 -12 -4 -19 -1 -8 3
-5 6 6 6 11 1 17 -2 13 -5z m40 0 c-3 -3 -12 -4 -19 -1 -8 3 -5 6 6 6 11 1 17
-2 13 -5z m40 0 c-3 -3 -12 -4 -19 -1 -8 3 -5 6 6 6 11 1 17 -2 13 -5z m40 0
c-3 -3 -12 -4 -19 -1 -8 3 -5 6 6 6 11 1 17 -2 13 -5z m40 0 c-3 -3 -12 -4
-19 -1 -8 3 -5 6 6 6 11 1 17 -2 13 -5z m40 0 c-3 -3 -12 -4 -19 -1 -8 3 -5 6
6 6 11 1 17 -2 13 -5z m40 0 c-3 -3 -12 -4 -19 -1 -8 3 -5 6 6 6 11 1 17 -2
13 -5z m40 0 c-3 -3 -12 -4 -19 -1 -8 3 -5 6 6 6 11 1 17 -2 13 -5z m40 0 c-3
-3 -12 -4 -19 -1 -8 3 -5 6 6 6 11 1 17 -2 13 -5z m40 0 c-3 -3 -12 -4 -19 -1
-8 3 -5 6 6 6 11 1 17 -2 13 -5z m40 0 c-3 -3 -12 -4 -19 -1 -8 3 -5 6 6 6 11
1 17 -2 13 -5z m40 0 c-3 -3 -12 -4 -19 -1 -8 3 -5 6 6 6 11 1 17 -2 13 -5z
m40 0 c-3 -3 -12 -4 -19 -1 -8 3 -5 6 6 6 11 1 17 -2 13 -5z m40 0 c-3 -3 -12
-4 -19 -1 -8 3 -5 6 6 6 11 1 17 -2 13 -5z m40 0 c-3 -3 -12 -4 -19 -1 -8 3
-5 6 6 6 11 1 17 -2 13 -5z m40 0 c-3 -3 -12 -4 -19 -1 -8 3 -5 6 6 6 11 1 17
-2 13 -5z m40 0 c-3 -3 -12 -4 -19 -1 -8 3 -5 6 6 6 11 1 17 -2 13 -5z m40 0
c-3 -3 -12 -4 -19 -1 -8 3 -5 6 6 6 11 1 17 -2 13 -5z m40 0 c-3 -3 -12 -4
-19 -1 -8 3 -5 6 6 6 11 1 17 -2 13 -5z m40 0 c-3 -3 -12 -4 -19 -1 -8 3 -5 6
6 6 11 1 17 -2 13 -5z m40 0 c-3 -3 -12 -4 -19 -1 -8 3 -5 6 6 6 11 1 17 -2
13 -5z m40 0 c-3 -3 -12 -4 -19 -1 -8 3 -5 6 6 6 11 1 17 -2 13 -5z m40 0 c-3
-3 -12 -4 -19 -1 -8 3 -5 6 6 6 11 1 17 -2 13 -5z m40 0 c-3 -3 -12 -4 -19 -1
-8 3 -5 6 6 6 11 1 17 -2 13 -5z m40 0 c-3 -3 -12 -4 -19 -1 -8 3 -5 6 6 6 11
1 17 -2 13 -5z m40 0 c-3 -3 -12 -4 -19 -1 -8 3 -5 6 6 6 11 1 17 -2 13 -5z
m40 0 c-3 -3 -12 -4 -19 -1 -8 3 -5 6 6 6 11 1 17 -2 13 -5z m40 0 c-3 -3 -12
-4 -19 -1 -8 3 -5 6 6 6 11 1 17 -2 13 -5z m40 0 c-3 -3 -12 -4 -19 -1 -8 3
-5 6 6 6 11 1 17 -2 13 -5z m40 0 c-3 -3 -12 -4 -19 -1 -8 3 -5 6 6 6 11 1 17
-2 13 -5z m40 0 c-3 -3 -12 -4 -19 -1 -8 3 -5 6 6 6 11 1 17 -2 13 -5z m40 0
c-3 -3 -12 -4 -19 -1 -8 3 -5 6 6 6 11 1 17 -2 13 -5z m40 0 c-3 -3 -12 -4
-19 -1 -8 3 -5 6 6 6 11 1 17 -2 13 -5z m40 0 c-3 -3 -12 -4 -19 -1 -8 3 -5 6
6 6 11 1 17 -2 13 -5z m40 0 c-3 -3 -12 -4 -19 -1 -8 3 -5 6 6 6 11 1 17 -2
13 -5z m40 0 c-3 -3 -12 -4 -19 -1 -8 3 -5 6 6 6 11 1 17 -2 13 -5z m40 0 c-3
-3 -12 -4 -19 -1 -8 3 -5 6 6 6 11 1 17 -2 13 -5z m40 0 c-3 -3 -12 -4 -19 -1
-8 3 -5 6 6 6 11 1 17 -2 13 -5z m40 0 c-3 -3 -12 -4 -19 -1 -8 3 -5 6 6 6 11
1 17 -2 13 -5z m40 0 c-3 -3 -12 -4 -19 -1 -8 3 -5 6 6 6 11 1 17 -2 13 -5z
m40 0 c-3 -3 -12 -4 -19 -1 -8 3 -5 6 6 6 11 1 17 -2 13 -5z m40 0 c-3 -3 -12
-4 -19 -1 -8 3 -5 6 6 6 11 1 17 -2 13 -5z m40 0 c-3 -3 -12 -4 -19 -1 -8 3
-5 6 6 6 11 1 17 -2 13 -5z m40 0 c-3 -3 -12 -4 -19 -1 -8 3 -5 6 6 6 11 1 17
-2 13 -5z m40 0 c-3 -3 -12 -4 -19 -1 -8 3 -5 6 6 6 11 1 17 -2 13 -5z m40 0
c-3 -3 -12 -4 -19 -1 -8 3 -5 6 6 6 11 1 17 -2 13 -5z m40 0 c-3 -3 -12 -4
-19 -1 -8 3 -5 6 6 6 11 1 17 -2 13 -5z m40 0 c-3 -3 -12 -4 -19 -1 -8 3 -5 6
6 6 11 1 17 -2 13 -5z m40 0 c-3 -3 -12 -4 -19 -1 -8 3 -5 6 6 6 11 1 17 -2
13 -5z m40 0 c-3 -3 -12 -4 -19 -1 -8 3 -5 6 6 6 11 1 17 -2 13 -5z m40 0 c-3
-3 -12 -4 -19 -1 -8 3 -5 6 6 6 11 1 17 -2 13 -5z m40 0 c-3 -3 -12 -4 -19 -1
-8 3 -5 6 6 6 11 1 17 -2 13 -5z m40 0 c-3 -3 -12 -4 -19 -1 -8 3 -5 6 6 6 11
1 17 -2 13 -5z m40 0 c-3 -3 -12 -4 -19 -1 -8 3 -5 6 6 6 11 1 17 -2 13 -5z
m40 0 c-3 -3 -12 -4 -19 -1 -8 3 -5 6 6 6 11 1 17 -2 13 -5z m40 0 c-3 -3 -12
-4 -19 -1 -8 3 -5 6 6 6 11 1 17 -2 13 -5z m40 0 c-3 -3 -12 -4 -19 -1 -8 3
-5 6 6 6 11 1 17 -2 13 -5z m40 0 c-3 -3 -12 -4 -19 -1 -8 3 -5 6 6 6 11 1 17
-2 13 -5z m40 0 c-3 -3 -12 -4 -19 -1 -8 3 -5 6 6 6 11 1 17 -2 13 -5z m40 0
c-3 -3 -12 -4 -19 -1 -8 3 -5 6 6 6 11 1 17 -2 13 -5z m40 0 c-3 -3 -12 -4
-19 -1 -8 3 -5 6 6 6 11 1 17 -2 13 -5z m40 0 c-3 -3 -12 -4 -19 -1 -8 3 -5 6
6 6 11 1 17 -2 13 -5z m40 0 c-3 -3 -12 -4 -19 -1 -8 3 -5 6 6 6 11 1 17 -2
13 -5z m40 0 c-3 -3 -12 -4 -19 -1 -8 3 -5 6 6 6 11 1 17 -2 13 -5z m40 0 c-3
-3 -12 -4 -19 -1 -8 3 -5 6 6 6 11 1 17 -2 13 -5z m40 0 c-3 -3 -12 -4 -19 -1
-8 3 -5 6 6 6 11 1 17 -2 13 -5z m40 0 c-3 -3 -12 -4 -19 -1 -8 3 -5 6 6 6 11
1 17 -2 13 -5z m40 0 c-3 -3 -12 -4 -19 -1 -8 3 -5 6 6 6 11 1 17 -2 13 -5z
m40 0 c-3 -3 -12 -4 -19 -1 -8 3 -5 6 6 6 11 1 17 -2 13 -5z m40 0 c-3 -3 -12
-4 -19 -1 -8 3 -5 6 6 6 11 1 17 -2 13 -5z m40 0 c-3 -3 -12 -4 -19 -1 -8 3
-5 6 6 6 11 1 17 -2 13 -5z m40 0 c-3 -3 -12 -4 -19 -1 -8 3 -5 6 6 6 11 1 17
-2 13 -5z m40 0 c-3 -3 -12 -4 -19 -1 -8 3 -5 6 6 6 11 1 17 -2 13 -5z m40 0
c-3 -3 -12 -4 -19 -1 -8 3 -5 6 6 6 11 1 17 -2 13 -5z m40 0 c-3 -3 -12 -4
-19 -1 -8 3 -5 6 6 6 11 1 17 -2 13 -5z m40 0 c-3 -3 -12 -4 -19 -1 -8 3 -5 6
6 6 11 1 17 -2 13 -5z m40 0 c-3 -3 -12 -4 -19 -1 -8 3 -5 6 6 6 11 1 17 -2
13 -5z m40 0 c-3 -3 -12 -4 -19 -1 -8 3 -5 6 6 6 11 1 17 -2 13 -5z m40 0 c-3
-3 -12 -4 -19 -1 -8 3 -5 6 6 6 11 1 17 -2 13 -5z m40 0 c-3 -3 -12 -4 -19 -1
-8 3 -5 6 6 6 11 1 17 -2 13 -5z m40 0 c-3 -3 -12 -4 -19 -1 -8 3 -5 6 6 6 11
1 17 -2 13 -5z m40 0 c-3 -3 -12 -4 -19 -1 -8 3 -5 6 6 6 11 1 17 -2 13 -5z
m40 0 c-3 -3 -12 -4 -19 -1 -8 3 -5 6 6 6 11 1 17 -2 13 -5z m40 0 c-3 -3 -12
-4 -19 -1 -8 3 -5 6 6 6 11 1 17 -2 13 -5z m40 0 c-3 -3 -12 -4 -19 -1 -8 3
-5 6 6 6 11 1 17 -2 13 -5z m40 0 c-3 -3 -12 -4 -19 -1 -8 3 -5 6 6 6 11 1 17
-2 13 -5z m40 0 c-3 -3 -12 -4 -19 -1 -8 3 -5 6 6 6 11 1 17 -2 13 -5z m40 0
c-3 -3 -12 -4 -19 -1 -8 3 -5 6 6 6 11 1 17 -2 13 -5z m40 0 c-3 -3 -12 -4
-19 -1 -8 3 -5 6 6 6 11 1 17 -2 13 -5z m40 0 c-3 -3 -12 -4 -19 -1 -8 3 -5 6
6 6 11 1 17 -2 13 -5z m40 0 c-3 -3 -12 -4 -19 -1 -8 3 -5 6 6 6 11 1 17 -2
13 -5z m40 0 c-3 -3 -12 -4 -19 -1 -8 3 -5 6 6 6 11 1 17 -2 13 -5z m40 0 c-3
-3 -12 -4 -19 -1 -8 3 -5 6 6 6 11 1 17 -2 13 -5z m40 0 c-3 -3 -12 -4 -19 -1
-8 3 -5 6 6 6 11 1 17 -2 13 -5z m40 0 c-3 -3 -12 -4 -19 -1 -8 3 -5 6 6 6 11
1 17 -2 13 -5z m40 0 c-3 -3 -12 -4 -19 -1 -8 3 -5 6 6 6 11 1 17 -2 13 -5z
m40 0 c-3 -3 -12 -4 -19 -1 -8 3 -5 6 6 6 11 1 17 -2 13 -5z m40 0 c-3 -3 -12
-4 -19 -1 -8 3 -5 6 6 6 11 1 17 -2 13 -5z m40 0 c-3 -3 -12 -4 -19 -1 -8 3
-5 6 6 6 11 1 17 -2 13 -5z m40 0 c-3 -3 -12 -4 -19 -1 -8 3 -5 6 6 6 11 1 17
-2 13 -5z m40 0 c-3 -3 -12 -4 -19 -1 -8 3 -5 6 6 6 11 1 17 -2 13 -5z m40 0
c-3 -3 -12 -4 -19 -1 -8 3 -5 6 6 6 11 1 17 -2 13 -5z m40 0 c-3 -3 -12 -4
-19 -1 -8 3 -5 6 6 6 11 1 17 -2 13 -5z m40 0 c-3 -3 -12 -4 -19 -1 -8 3 -5 6
6 6 11 1 17 -2 13 -5z m40 0 c-3 -3 -12 -4 -19 -1 -8 3 -5 6 6 6 11 1 17 -2
13 -5z m40 0 c-3 -3 -12 -4 -19 -1 -8 3 -5 6 6 6 11 1 17 -2 13 -5z m40 0 c-3
-3 -12 -4 -19 -1 -8 3 -5 6 6 6 11 1 17 -2 13 -5z m40 0 c-3 -3 -12 -4 -19 -1
-8 3 -5 6 6 6 11 1 17 -2 13 -5z m40 0 c-3 -3 -12 -4 -19 -1 -8 3 -5 6 6 6 11
1 17 -2 13 -5z m40 0 c-3 -3 -12 -4 -19 -1 -8 3 -5 6 6 6 11 1 17 -2 13 -5z
m40 0 c-3 -3 -12 -4 -19 -1 -8 3 -5 6 6 6 11 1 17 -2 13 -5z m40 0 c-3 -3 -12
-4 -19 -1 -8 3 -5 6 6 6 11 1 17 -2 13 -5z m40 0 c-3 -3 -12 -4 -19 -1 -8 3
-5 6 6 6 11 1 17 -2 13 -5z m40 0 c-3 -3 -12 -4 -19 -1 -8 3 -5 6 6 6 11 1 17
-2 13 -5z m40 0 c-3 -3 -12 -4 -19 -1 -8 3 -5 6 6 6 11 1 17 -2 13 -5z m-5350
-46 c-3 -7 -5 -2 -5 12 0 14 2 19 5 13 2 -7 2 -19 0 -25z m2890 0 c-3 -7 -5
-2 -5 12 0 14 2 19 5 13 2 -7 2 -19 0 -25z m2470 0 c-3 -7 -5 -2 -5 12 0 14 2
19 5 13 2 -7 2 -19 0 -25z m-5360 -100 c-3 -7 -5 -2 -5 12 0 14 2 19 5 13 2
-7 2 -19 0 -25z m2890 0 c-3 -7 -5 -2 -5 12 0 14 2 19 5 13 2 -7 2 -19 0 -25z
m2470 0 c-3 -7 -5 -2 -5 12 0 14 2 19 5 13 2 -7 2 -19 0 -25z m-5126 -8 c18 0
9 -42 -11 -47 -11 -3 -20 -14 -20 -24 0 -11 -4 -19 -10 -19 -11 0 -14 83 -3
94 4 3 13 4 21 1 7 -3 18 -5 23 -5z m502 -22 c18 -2 22 -10 23 -38 l2 -35 -5
33 c-6 42 -35 40 -44 -3 -5 -22 -7 -16 -7 25 0 30 2 47 5 38 2 -9 14 -18 26
-20z m367 22 c0 -5 -9 -10 -20 -10 -11 0 -20 -4 -20 -10 0 -5 9 -10 20 -10 11
0 20 -4 20 -10 0 -5 -9 -10 -20 -10 -27 0 -25 -28 3 -33 16 -3 13 -5 -10 -6
-32 -1 -33 0 -33 42 0 24 3 47 7 50 10 11 53 8 53 -3z m347 -67 c-2 -16 -4 -3
-4 27 0 30 2 43 4 28 2 -16 2 -40 0 -55z m40 0 c-2 -16 -4 -3 -4 27 0 30 2 43
4 28 2 -16 2 -40 0 -55z m503 27 c5 0 12 5 15 10 3 6 12 10 18 10 7 0 3 -7 -7
-15 -19 -14 -19 -15 -1 -35 10 -11 13 -20 8 -20 -6 0 -17 7 -24 16 -12 14 -14
14 -20 -3 -5 -10 -7 5 -7 37 1 30 3 43 5 28 2 -16 8 -28 13 -28z m242 41 c-7
-4 -12 -12 -11 -17 4 -25 -2 -74 -10 -74 -14 0 -18 62 -6 83 5 9 17 17 25 17
12 0 12 -2 2 -9z m-1707 -29 c-21 -5 -19 -38 3 -52 16 -10 15 -10 -3 -8 -13 2
-22 13 -26 33 -8 44 -2 57 22 42 16 -10 17 -13 4 -15z m810 0 c-21 -5 -19 -38
3 -52 16 -10 15 -10 -3 -8 -13 2 -22 13 -26 33 -8 44 -2 57 22 42 16 -10 17
-13 4 -15z m-1053 -1 c-7 -4 -17 -21 -22 -37 -8 -29 -8 -29 -9 9 -1 32 2 37
22 37 15 0 18 -3 9 -9z m35 -43 c-2 -13 -4 -5 -4 17 -1 22 1 32 4 23 2 -10 2
-28 0 -40z m62 26 c15 39 24 28 10 -12 -13 -39 -26 -41 -39 -6 -15 38 -10 54
5 19 l13 -30 11 29z m99 -11 c3 -31 1 -33 -27 -33 -24 0 -31 4 -31 19 0 11 10
22 23 26 l22 7 -25 8 c-24 9 -24 9 5 7 26 -2 30 -6 33 -34z m103 30 l-25 -5
25 -18 c18 -14 21 -22 13 -30 -7 -7 -20 -10 -30 -7 -16 4 -15 5 4 6 27 1 29
17 2 24 -31 8 -25 37 8 36 26 -2 26 -2 3 -6z m102 -12 c6 -25 -10 -51 -33 -51
-10 0 -21 -8 -23 -17 -3 -10 -5 6 -6 35 -1 51 0 52 28 52 20 0 30 -6 34 -19z
m155 -18 c3 -31 1 -33 -27 -33 -24 0 -31 4 -31 19 0 11 10 22 23 26 l22 7 -25
8 c-24 9 -24 9 5 7 26 -2 30 -6 33 -34z m54 28 c-7 -4 -17 -21 -22 -37 -8 -29
-8 -29 -9 9 -1 32 2 37 22 37 15 0 18 -3 9 -9z m86 -13 c3 -14 -3 -18 -24 -18
-30 0 -23 -14 11 -23 12 -3 8 -5 -10 -4 -31 2 -43 23 -31 53 8 21 50 14 54 -8z
m159 -30 c-2 -13 -4 -5 -4 17 -1 22 1 32 4 23 2 -10 2 -28 0 -40z m79 17 c1
-30 1 -30 -3 -2 -6 38 -36 32 -44 -8 -6 -29 -7 -28 -8 8 -1 36 1 38 27 35 22
-2 27 -8 28 -33z m55 28 l-25 -5 25 -18 c18 -14 21 -22 13 -30 -7 -7 -20 -10
-30 -7 -16 4 -15 5 4 6 27 1 29 17 2 24 -31 8 -25 37 8 36 26 -2 26 -2 3 -6z
m147 -15 c3 -14 -3 -18 -24 -18 -30 0 -23 -14 11 -23 12 -3 8 -5 -10 -4 -31 2
-43 23 -31 53 8 21 50 14 54 -8z m132 -33 c8 0 18 13 21 30 6 29 7 28 8 -8 1
-36 -1 -38 -26 -35 -24 3 -28 8 -30 38 -1 34 -1 34 5 5 4 -17 14 -30 22 -30z
m106 20 c1 -30 1 -30 -3 -2 -6 38 -36 32 -44 -8 -6 -29 -7 -28 -8 8 -1 36 1
38 27 35 22 -2 27 -8 28 -33z m84 -3 c0 -21 -5 -43 -12 -50 -14 -14 -38 -16
-38 -3 0 5 7 8 16 7 9 0 19 4 21 10 2 6 -7 10 -19 10 -14 -1 -24 6 -26 17 -6
30 6 47 33 47 22 0 25 -4 25 -38z m78 16 c3 -14 -3 -18 -24 -18 -30 0 -23 -14
11 -23 12 -3 8 -5 -10 -4 -31 2 -43 23 -31 53 8 21 50 14 54 -8z m78 -13 c1
-30 1 -30 -3 -2 -6 38 -36 32 -44 -8 -6 -29 -7 -28 -8 8 -1 36 1 38 27 35 22
-2 27 -8 28 -33z m199 0 c0 -25 -4 -30 -25 -30 -16 0 -26 6 -28 18 -6 30 6 49
30 45 18 -2 23 -9 23 -33z m81 0 c1 -30 1 -30 -3 -2 -6 38 -36 32 -44 -8 -6
-29 -7 -28 -8 8 -1 36 1 38 27 35 22 -2 27 -8 28 -33z m81 -17 c-2 -13 -4 -5
-4 17 -1 22 1 32 4 23 2 -10 2 -28 0 -40z m93 14 c0 -21 -5 -43 -12 -50 -14
-14 -38 -16 -38 -3 0 5 7 8 16 7 9 0 19 4 21 10 2 6 -7 10 -19 10 -14 -1 -24
6 -26 17 -6 30 6 47 33 47 22 0 25 -4 25 -38z m50 -17 c8 0 18 13 21 30 6 29
7 28 8 -8 1 -36 -1 -38 -26 -35 -24 3 -28 8 -30 38 -1 34 -1 34 5 5 4 -17 14
-30 22 -30z m82 46 c-7 -4 -17 -21 -22 -37 -8 -29 -8 -29 -9 9 -1 32 2 37 22
37 15 0 18 -3 9 -9z m25 -43 c-2 -13 -4 -5 -4 17 -1 22 1 32 4 23 2 -10 2 -28
0 -40z m91 30 c3 -14 -3 -18 -24 -18 -30 0 -23 -14 11 -23 12 -3 8 -5 -10 -4
-31 2 -43 23 -31 53 8 21 50 14 54 -8z m54 13 c-7 -4 -17 -21 -22 -37 -8 -29
-8 -29 -9 9 -1 32 2 37 22 37 15 0 18 -3 9 -9z m76 -13 c3 -14 -3 -18 -24 -18
-30 0 -23 -14 11 -23 12 -3 8 -5 -10 -4 -31 2 -43 23 -31 53 8 21 50 14 54 -8z
m78 -13 c1 -30 1 -30 -3 -2 -6 38 -36 32 -44 -8 -6 -29 -7 -28 -8 8 -1 36 1
38 27 35 22 -2 27 -8 28 -33z m-1779 -1 c-3 -3 -12 -4 -19 -1 -8 3 -5 6 6 6
11 1 17 -2 13 -5z m-1030 -36 c-3 -7 -5 -2 -5 12 0 14 2 19 5 13 2 -7 2 -19 0
-25z m2890 0 c-3 -7 -5 -2 -5 12 0 14 2 19 5 13 2 -7 2 -19 0 -25z m2470 0
c-3 -7 -5 -2 -5 12 0 14 2 19 5 13 2 -7 2 -19 0 -25z m-5360 -100 c-3 -7 -5
-2 -5 12 0 14 2 19 5 13 2 -7 2 -19 0 -25z m2890 0 c-3 -7 -5 -2 -5 12 0 14 2
19 5 13 2 -7 2 -19 0 -25z m2470 0 c-3 -7 -5 -2 -5 12 0 14 2 19 5 13 2 -7 2
-19 0 -25z m-5360 -100 c-3 -7 -5 -2 -5 12 0 14 2 19 5 13 2 -7 2 -19 0 -25z
m2890 0 c-3 -7 -5 -2 -5 12 0 14 2 19 5 13 2 -7 2 -19 0 -25z m2470 0 c-3 -7
-5 -2 -5 12 0 14 2 19 5 13 2 -7 2 -19 0 -25z m-2215 -41 l17 -42 0 33 c1 30
3 33 29 30 23 -3 27 -8 28 -38 l2 -35 -5 33 c-5 42 -36 41 -41 -1 -3 -25 -32
-41 -32 -17 0 6 -11 10 -25 10 -14 0 -25 -4 -25 -10 0 -5 -4 -10 -10 -10 -6 0
-6 9 0 25 6 14 15 37 20 51 12 31 19 27 42 -29z m972 43 c20 -7 26 -17 26 -38
0 -36 -16 -52 -52 -52 -26 0 -28 3 -28 43 0 59 7 65 54 47z m411 -20 c14 0 25
-7 28 -19 7 -27 -11 -51 -38 -51 -24 0 -25 3 -24 53 1 28 3 44 6 35 3 -11 14
-18 28 -18z m552 -47 c-2 -16 -4 -3 -4 27 0 30 2 43 4 28 2 -16 2 -40 0 -55z
m40 0 c-2 -16 -4 -3 -4 27 0 30 2 43 4 28 2 -16 2 -40 0 -55z m-1202 39 c-21
-5 -19 -38 3 -52 16 -10 15 -10 -3 -8 -13 2 -22 13 -26 33 -8 44 -2 57 22 42
16 -10 17 -13 4 -15z m350 0 c-21 -5 -19 -38 3 -52 16 -10 15 -10 -3 -8 -13 2
-22 13 -26 33 -8 44 -2 57 22 42 16 -10 17 -13 4 -15z m580 0 c-21 -5 -19 -38
3 -52 16 -10 15 -10 -3 -8 -13 2 -22 13 -26 33 -8 44 -2 57 22 42 16 -10 17
-13 4 -15z m120 0 c-21 -5 -19 -38 3 -52 15 -10 15 -10 -3 -8 -13 2 -21 12
-23 31 -3 22 -8 27 -30 27 l-27 0 25 -20 c19 -14 22 -22 14 -30 -7 -7 -20 -10
-30 -7 -16 4 -15 5 4 6 27 1 29 17 2 24 -33 8 -25 37 10 37 17 0 30 5 30 10 0
6 8 5 20 -2 17 -10 18 -14 5 -16z m-1660 -27 c0 -25 -4 -30 -25 -30 -16 0 -26
6 -28 18 -6 30 6 49 30 45 18 -2 23 -9 23 -33z m81 0 c1 -30 1 -30 -3 -2 -6
38 -36 32 -44 -8 -6 -29 -7 -28 -8 8 -1 36 1 38 27 35 22 -2 27 -8 28 -33z
m54 -5 c4 0 10 10 13 22 4 12 9 19 12 16 10 -9 -32 -98 -46 -98 -8 0 -8 4 1
15 10 12 10 21 1 41 -14 32 -13 57 1 27 6 -13 14 -23 18 -23z m152 26 c11 -16
10 -56 -2 -56 -5 0 -10 14 -10 31 0 39 -23 34 -29 -7 l-4 -29 -6 30 c-4 17
-13 30 -21 30 -8 0 -18 -13 -21 -30 -6 -29 -7 -29 -8 7 l-1 37 48 -1 c26 0 50
-6 54 -12z m25 -38 c-2 -13 -4 -5 -4 17 -1 22 1 32 4 23 2 -10 2 -28 0 -40z
m64 45 l-25 -5 25 -18 c18 -14 21 -22 13 -30 -7 -7 -20 -10 -30 -7 -16 4 -15
5 4 6 27 1 29 17 2 24 -31 8 -25 37 8 36 26 -2 26 -2 3 -6z m46 -45 c-2 -13
-4 -5 -4 17 -1 22 1 32 4 23 2 -10 2 -28 0 -40z m81 30 c3 -14 -3 -18 -24 -18
-30 0 -23 -14 11 -23 12 -3 8 -5 -10 -4 -31 2 -43 23 -31 53 8 21 50 14 54 -8z
m54 13 c-7 -4 -17 -21 -22 -37 -8 -29 -8 -29 -9 9 -1 32 2 37 22 37 15 0 18
-3 9 -9z m136 -13 c3 -14 -3 -18 -24 -18 -30 0 -23 -14 11 -23 12 -3 8 -5 -10
-4 -31 2 -43 23 -31 53 8 21 50 14 54 -8z m220 -15 c3 -31 1 -33 -27 -33 -24
0 -31 4 -31 19 0 11 10 22 23 26 l22 7 -25 8 c-24 9 -24 9 5 7 26 -2 30 -6 33
-34z m130 15 c3 -14 -3 -18 -24 -18 -30 0 -23 -14 11 -23 12 -3 8 -5 -10 -4
-31 2 -43 23 -31 53 8 21 50 14 54 -8z m78 -13 c1 -30 1 -30 -3 -2 -6 38 -36
32 -44 -8 -6 -29 -7 -28 -8 8 -1 36 1 38 27 35 22 -2 27 -8 28 -33z m212 13
c3 -14 -3 -18 -24 -18 -30 0 -23 -14 11 -23 12 -3 8 -5 -10 -4 -31 2 -43 23
-31 53 8 21 50 14 54 -8z m54 13 c-7 -4 -17 -21 -22 -37 -8 -29 -8 -29 -9 9
-1 32 2 37 22 37 15 0 18 -3 9 -9z m76 -13 c3 -14 -3 -18 -24 -18 -30 0 -23
-14 11 -23 12 -3 8 -5 -10 -4 -31 2 -43 23 -31 53 8 21 50 14 54 -8z m29 -30
c-2 -13 -4 -5 -4 17 -1 22 1 32 4 23 2 -10 2 -28 0 -40z m251 30 c3 -14 -3
-18 -24 -18 -30 0 -23 -14 11 -23 12 -3 8 -5 -10 -4 -31 2 -43 23 -31 53 8 21
50 14 54 -8z m160 0 c3 -14 -3 -18 -24 -18 -30 0 -23 -14 11 -23 12 -3 8 -5
-10 -4 -31 2 -43 23 -31 53 8 21 50 14 54 -8z m78 -13 c1 -30 1 -30 -3 -2 -6
38 -36 32 -44 -8 -6 -29 -7 -28 -8 8 -1 36 1 38 27 35 22 -2 27 -8 28 -33z
m-5289 -47 c-3 -7 -5 -2 -5 12 0 14 2 19 5 13 2 -7 2 -19 0 -25z m2890 0 c-3
-7 -5 -2 -5 12 0 14 2 19 5 13 2 -7 2 -19 0 -25z m2470 0 c-3 -7 -5 -2 -5 12
0 14 2 19 5 13 2 -7 2 -19 0 -25z m-5360 -100 c-3 -7 -5 -2 -5 12 0 14 2 19 5
13 2 -7 2 -19 0 -25z m2890 0 c-3 -7 -5 -2 -5 12 0 14 2 19 5 13 2 -7 2 -19 0
-25z m2470 0 c-3 -7 -5 -2 -5 12 0 14 2 19 5 13 2 -7 2 -19 0 -25z m-5360
-100 c-3 -7 -5 -2 -5 12 0 14 2 19 5 13 2 -7 2 -19 0 -25z m3101 -1 c114 -1
23 -2 -203 -2 -225 0 -321 1 -212 2 178 3 197 5 198 21 1 16 2 16 6 0 4 -16
25 -18 211 -21z m2410 0 c81 -1 19 -3 -138 -3 -157 0 -225 2 -152 3 116 3 132
6 133 21 1 16 2 16 6 0 4 -15 22 -18 151 -21z m159 -229 c-1 -40 -3 -8 -3 72
0 80 2 112 3 73 2 -40 2 -106 0 -145z m-3200 5 c-2 -38 -3 -7 -3 67 0 74 1
105 3 68 2 -38 2 -98 0 -135z m860 0 c-2 -38 -3 -7 -3 67 0 74 1 105 3 68 2
-38 2 -98 0 -135z m1740 0 c-2 -38 -3 -7 -3 67 0 74 1 105 3 68 2 -38 2 -98 0
-135z m-5342 162 c1 -11 4 -26 9 -33 12 -19 -13 -42 -45 -42 -28 0 -29 2 -29
51 l0 50 33 -3 c24 -2 32 -8 32 -23z m321 10 c9 -8 11 -15 5 -15 -6 0 -11 -13
-11 -30 0 -39 22 -39 49 -1 l21 30 -22 4 c-17 3 -14 5 10 6 37 1 40 -8 12 -34
-26 -23 -25 -33 3 -38 12 -3 -3 -4 -33 -3 l-55 1 -3 48 c-3 50 1 56 24 32z
m-226 -20 c16 -19 4 -35 -28 -35 -28 0 -21 -14 13 -23 12 -3 8 -5 -10 -4 -23
2 -31 7 -33 25 -6 42 33 68 58 37z m78 2 c14 -9 17 -67 3 -67 -6 0 -11 15 -13
33 -2 17 -7 32 -13 32 -5 0 -11 -15 -13 -32 -4 -46 -22 -41 -22 5 0 33 3 38
23 37 12 0 28 -4 35 -8z m52 -28 c0 -19 5 -29 15 -29 10 0 15 10 15 30 0 17 5
30 10 30 6 0 10 -16 10 -36 0 -34 -1 -35 -32 -32 -30 3 -33 6 -36 42 -2 25 0
36 7 31 6 -3 11 -19 11 -36z m260 26 c16 -19 4 -35 -28 -35 -28 0 -21 -14 13
-23 12 -3 8 -5 -10 -4 -23 2 -31 7 -33 25 -6 42 33 68 58 37z m57 4 c-10 -6
-17 -22 -17 -39 0 -17 -4 -30 -10 -30 -5 0 -10 17 -10 38 0 33 3 37 27 39 22
1 24 -1 10 -8z m2598 -39 c3 -5 1 -10 -4 -10 -6 0 -11 5 -11 10 0 6 2 10 4 10
3 0 8 -4 11 -10z m-295 -53 c0 -50 -12 -77 -34 -77 -6 0 -5 5 2 12 7 7 12 36
12 65 0 29 5 53 10 53 6 0 10 -24 10 -53z m233 46 c-13 -2 -23 -11 -23 -19 0
-8 10 -15 23 -15 l22 -2 -22 -4 c-16 -3 -23 -11 -23 -29 0 -13 -4 -24 -10 -24
-5 0 -10 23 -10 50 l0 50 33 -1 c23 -1 26 -3 10 -6z m103 -8 c9 -8 11 -15 5
-15 -15 0 -14 -57 2 -64 6 -3 3 -5 -8 -3 -16 2 -21 11 -23 50 -3 50 1 56 24
32z m149 -31 c9 -25 14 -48 11 -51 -3 -3 -8 2 -12 11 -8 20 -43 21 -50 1 -4
-8 -10 -15 -15 -15 -5 0 -4 11 1 25 6 14 14 36 20 50 14 36 25 31 45 -21z
m2145 39 c-42 -8 -46 -22 -11 -34 24 -9 31 -16 29 -33 -2 -16 -11 -22 -35 -24
-18 -2 -33 1 -33 6 0 5 11 7 24 5 36 -7 41 14 6 32 -47 25 -39 56 14 54 27 -2
28 -2 6 -6z m-2550 -28 c7 -9 10 -25 6 -41 -5 -20 -12 -25 -34 -22 -21 2 -28
9 -30 32 -5 42 32 62 58 31z m78 9 c42 -12 23 -105 -21 -103 -21 0 -21 1 3 11
l25 11 -25 6 c-25 7 -37 38 -26 67 6 16 11 16 44 8z m142 -40 c0 -19 -4 -34
-10 -34 -5 0 -10 18 -10 41 0 24 4 38 10 34 6 -3 10 -22 10 -41z m280 31 c18
-22 8 -60 -17 -63 -13 -2 -23 -10 -23 -18 0 -8 -4 -14 -10 -14 -5 0 -10 24
-10 53 0 48 2 53 24 55 13 1 29 -5 36 -13z m80 0 c18 -22 8 -60 -17 -63 -13
-2 -23 -10 -23 -18 0 -8 -4 -14 -10 -14 -5 0 -10 24 -10 53 0 48 2 53 24 55
13 1 29 -5 36 -13z m2070 0 c16 -19 4 -35 -28 -35 -28 0 -21 -14 13 -23 12 -3
8 -5 -10 -4 -23 2 -31 7 -33 25 -6 42 33 68 58 37z m57 4 c-10 -6 -17 -22 -17
-39 0 -17 -4 -30 -10 -30 -5 0 -10 17 -10 38 0 33 3 37 27 39 22 1 24 -1 10
-8z m69 -20 c8 19 17 32 19 29 8 -7 -24 -78 -34 -78 -5 0 -14 14 -20 31 -16
46 -12 60 6 19 l15 -35 14 34z m104 16 c16 -19 4 -35 -28 -35 -28 0 -21 -14
13 -23 12 -3 8 -5 -10 -4 -23 2 -31 7 -33 25 -6 42 33 68 58 37z m57 4 c-10
-6 -17 -22 -17 -39 0 -17 -4 -30 -10 -30 -5 0 -10 17 -10 38 0 33 3 37 27 39
22 1 24 -1 10 -8z m-5580 -35 c-3 -3 -12 -4 -19 -1 -8 3 -5 6 6 6 11 1 17 -2
13 -5z m2960 0 c-3 -3 -12 -4 -19 -1 -8 3 -5 6 6 6 11 1 17 -2 13 -5z m-3007
-7 c0 -2 -10 -12 -22 -23 l-23 -19 19 23 c18 21 26 27 26 19z m95 -17 c10 -11
16 -20 13 -20 -3 0 -13 9 -23 20 -10 11 -16 20 -13 20 3 0 13 -9 23 -20z
m-138 -62 c-3 -8 -6 -5 -6 6 -1 11 2 17 5 13 3 -3 4 -12 1 -19z m160 0 c-3 -8
-6 -5 -6 6 -1 11 2 17 5 13 3 -3 4 -12 1 -19z m-132 -48 c10 -11 16 -20 13
-20 -3 0 -13 9 -23 20 -10 11 -16 20 -13 20 3 0 13 -9 23 -20z m125 17 c0 -2
-10 -12 -22 -23 l-23 -19 19 23 c18 21 26 27 26 19z m3033 -24 c-111 -2 -295
-2 -410 0 -114 1 -23 2 202 2 226 0 319 -1 208 -2z m2410 0 c-79 -2 -207 -2
-285 0 -79 1 -15 3 142 3 157 0 221 -2 143 -3z m-5511 -53 l-4 -40 63 -2 64
-2 -62 -3 -63 -4 0 -92 c0 -60 4 -98 13 -107 10 -12 9 -12 -4 -2 -10 8 -19 8
-27 2 -9 -7 -9 -7 -2 2 6 7 10 54 10 105 l0 93 -62 2 -63 2 64 3 63 4 -4 40
c-2 23 1 39 7 39 6 0 9 -16 7 -40z m-52 -293 c0 -2 -10 -12 -22 -23 l-23 -19
19 23 c18 21 26 27 26 19z m115 -17 c10 -11 16 -20 13 -20 -3 0 -13 9 -23 20
-10 11 -16 20 -13 20 3 0 13 -9 23 -20z"/>
<path d="M3417 2620 c-3 -13 0 -20 9 -20 15 0 19 26 5 34 -5 3 -11 -3 -14 -14z"/>
<path d="M3010 2615 c-15 -18 -6 -45 15 -45 9 0 15 9 15 24 0 31 -14 40 -30
21z"/>
<path d="M3094 2616 c-8 -22 3 -49 19 -43 6 2 12 14 12 27 0 27 -22 39 -31 16z"/>
<path d="M3517 2624 c-4 -4 -7 -18 -7 -31 0 -26 27 -32 37 -7 6 17 -19 49 -30
38z"/>
<path d="M3597 2624 c-4 -4 -7 -18 -7 -31 0 -26 27 -32 37 -7 6 17 -19 49 -30
38z"/>
<path d="M5665 2620 c-3 -5 1 -10 10 -10 9 0 13 5 10 10 -3 6 -8 10 -10 10 -2
0 -7 -4 -10 -10z"/>
<path d="M5895 2620 c-3 -5 1 -10 10 -10 9 0 13 5 10 10 -3 6 -8 10 -10 10 -2
0 -7 -4 -10 -10z"/>
<path d="M80 2555 c0 -10 7 -15 18 -13 21 4 19 22 -2 26 -10 2 -16 -3 -16 -13z"/>
<path d="M80 2510 c0 -15 5 -20 18 -18 9 2 17 10 17 18 0 8 -8 16 -17 18 -13
2 -18 -3 -18 -18z"/>
<path d="M180 2540 c-12 -8 -10 -10 8 -10 13 0 20 4 17 10 -7 12 -6 12 -25 0z"/>
<path d="M570 2540 c-12 -8 -10 -10 8 -10 13 0 20 4 17 10 -7 12 -6 12 -25 0z"/>
<path d="M1773 2234 c-8 -21 13 -42 28 -27 13 13 5 43 -11 43 -6 0 -13 -7 -17
-16z"/>
<path d="M673 2234 c-8 -21 13 -42 28 -27 13 13 5 43 -11 43 -6 0 -13 -7 -17
-16z"/>
<path d="M783 2234 c-8 -21 13 -42 28 -27 13 13 5 43 -11 43 -6 0 -13 -7 -17
-16z"/>
<path d="M875 2240 c-3 -5 3 -10 14 -10 12 0 21 5 21 10 0 6 -6 10 -14 10 -8
0 -18 -4 -21 -10z"/>
<path d="M1045 2240 c-3 -5 3 -10 14 -10 12 0 21 5 21 10 0 6 -6 10 -14 10 -8
0 -18 -4 -21 -10z"/>
<path d="M1195 2240 c-3 -5 3 -10 14 -10 12 0 21 5 21 10 0 6 -6 10 -14 10 -8
0 -18 -4 -21 -10z"/>
<path d="M1525 2240 c-3 -5 3 -10 14 -10 12 0 21 5 21 10 0 6 -6 10 -14 10 -8
0 -18 -4 -21 -10z"/>
<path d="M1855 2240 c-3 -5 3 -10 14 -10 12 0 21 5 21 10 0 6 -6 10 -14 10 -8
0 -18 -4 -21 -10z"/>
<path d="M2453 2234 c-8 -21 13 -42 28 -27 13 13 5 43 -11 43 -6 0 -13 -7 -17
-16z"/>
<path d="M2545 2240 c-3 -5 3 -10 14 -10 12 0 21 5 21 10 0 6 -6 10 -14 10 -8
0 -18 -4 -21 -10z"/>
<path d="M3900 1944 c0 -28 4 -35 16 -32 40 8 44 68 4 68 -16 0 -20 -6 -20
-36z"/>
<path d="M3473 1944 c-8 -21 13 -42 28 -27 13 13 5 43 -11 43 -6 0 -13 -7 -17
-16z"/>
<path d="M3663 1933 c-18 -7 -16 -23 2 -23 8 0 15 7 15 15 0 8 -1 15 -2 14 -2
0 -9 -3 -15 -6z"/>
<path d="M3775 1950 c-3 -5 3 -10 14 -10 12 0 21 5 21 10 0 6 -6 10 -14 10 -8
0 -18 -4 -21 -10z"/>
<path d="M4003 1933 c-18 -7 -16 -23 2 -23 8 0 15 7 15 15 0 8 -1 15 -2 14 -2
0 -9 -3 -15 -6z"/>
<path d="M4125 1950 c-3 -5 3 -10 14 -10 12 0 21 5 21 10 0 6 -6 10 -14 10 -8
0 -18 -4 -21 -10z"/>
<path d="M4398 1948 c-7 -19 2 -38 18 -38 8 0 14 10 14 25 0 26 -24 35 -32 13z"/>
<path d="M4475 1950 c-3 -5 3 -10 14 -10 12 0 21 5 21 10 0 6 -6 10 -14 10 -8
0 -18 -4 -21 -10z"/>
<path d="M4745 1950 c-3 -5 3 -10 14 -10 12 0 21 5 21 10 0 6 -6 10 -14 10 -8
0 -18 -4 -21 -10z"/>
<path d="M963 1644 c-8 -21 13 -42 28 -27 13 13 5 43 -11 43 -6 0 -13 -7 -17
-16z"/>
<path d="M2178 1648 c-7 -19 2 -38 18 -38 8 0 14 10 14 25 0 26 -24 35 -32 13z"/>
<path d="M715 1650 c-3 -5 3 -10 14 -10 12 0 21 5 21 10 0 6 -6 10 -14 10 -8
0 -18 -4 -21 -10z"/>
<path d="M1045 1650 c-3 -5 3 -10 14 -10 12 0 21 5 21 10 0 6 -6 10 -14 10 -8
0 -18 -4 -21 -10z"/>
<path d="M1385 1650 c-3 -5 3 -10 14 -10 12 0 21 5 21 10 0 6 -6 10 -14 10 -8
0 -18 -4 -21 -10z"/>
<path d="M1773 1644 c-8 -21 13 -42 28 -27 13 13 5 43 -11 43 -6 0 -13 -7 -17
-16z"/>
<path d="M1883 1644 c-8 -21 13 -42 28 -27 13 13 5 43 -11 43 -6 0 -13 -7 -17
-16z"/>
<path d="M1975 1650 c-3 -5 3 -10 14 -10 12 0 21 5 21 10 0 6 -6 10 -14 10 -8
0 -18 -4 -21 -10z"/>
<path d="M2103 1633 c-18 -7 -16 -23 2 -23 8 0 15 7 15 15 0 8 -1 15 -2 14 -2
0 -9 -3 -15 -6z"/>
<path d="M2435 1650 c-3 -5 3 -10 14 -10 12 0 21 5 21 10 0 6 -6 10 -14 10 -8
0 -18 -4 -21 -10z"/>
<path d="M600 1375 c0 -8 7 -15 15 -15 8 0 15 7 15 15 0 8 -7 15 -15 15 -8 0
-15 -7 -15 -15z"/>
<path d="M843 1343 c-18 -7 -16 -23 2 -23 8 0 15 7 15 15 0 8 -1 15 -2 14 -2
0 -9 -3 -15 -6z"/>
<path d="M1038 1358 c-7 -19 2 -38 18 -38 8 0 14 10 14 25 0 26 -24 35 -32 13z"/>
<path d="M1203 1343 c-18 -7 -16 -23 2 -23 8 0 15 7 15 15 0 8 -1 15 -2 14 -2
0 -9 -3 -15 -6z"/>
<path d="M1335 1360 c-3 -5 3 -10 14 -10 12 0 21 5 21 10 0 6 -6 10 -14 10 -8
0 -18 -4 -21 -10z"/>
<path d="M1775 1360 c-3 -5 3 -10 14 -10 12 0 21 5 21 10 0 6 -6 10 -14 10 -8
0 -18 -4 -21 -10z"/>
<path d="M2093 1354 c-8 -21 13 -42 28 -27 13 13 5 43 -11 43 -6 0 -13 -7 -17
-16z"/>
<path d="M2175 1360 c-3 -5 3 -10 14 -10 12 0 21 5 21 10 0 6 -6 10 -14 10 -8
0 -18 -4 -21 -10z"/>
<path d="M2453 1354 c-8 -21 13 -42 28 -27 13 13 5 43 -11 43 -6 0 -13 -7 -17
-16z"/>
<path d="M2703 1354 c-8 -21 13 -42 28 -27 13 13 5 43 -11 43 -6 0 -13 -7 -17
-16z"/>
<path d="M2955 1360 c-3 -5 3 -10 14 -10 12 0 21 5 21 10 0 6 -6 10 -14 10 -8
0 -18 -4 -21 -10z"/>
<path d="M3085 1360 c-3 -5 3 -10 14 -10 12 0 21 5 21 10 0 6 -6 10 -14 10 -8
0 -18 -4 -21 -10z"/>
<path d="M3505 1080 c-8 -13 -1 -24 14 -19 6 3 7 10 2 18 -6 10 -10 10 -16 1z"/>
<path d="M4480 1064 c0 -28 4 -35 16 -32 40 8 44 68 4 68 -16 0 -20 -6 -20
-36z"/>
<path d="M4908 1068 c-7 -19 2 -38 18 -38 8 0 14 10 14 25 0 26 -24 35 -32 13z"/>
<path d="M3663 1064 c-8 -21 13 -42 28 -27 13 13 5 43 -11 43 -6 0 -13 -7 -17
-16z"/>
<path d="M4165 1070 c-3 -5 3 -10 14 -10 12 0 21 5 21 10 0 6 -6 10 -14 10 -8
0 -18 -4 -21 -10z"/>
<path d="M4355 1070 c-3 -5 3 -10 14 -10 12 0 21 5 21 10 0 6 -6 10 -14 10 -8
0 -18 -4 -21 -10z"/>
<path d="M4583 1053 c-18 -7 -16 -23 2 -23 8 0 15 7 15 15 0 8 -1 15 -2 14 -2
0 -9 -3 -15 -6z"/>
<path d="M4705 1070 c-3 -5 3 -10 14 -10 12 0 21 5 21 10 0 6 -6 10 -14 10 -8
0 -18 -4 -21 -10z"/>
<path d="M4995 1070 c-3 -5 3 -10 14 -10 12 0 21 5 21 10 0 6 -6 10 -14 10 -8
0 -18 -4 -21 -10z"/>
<path d="M5125 1070 c-3 -5 3 -10 14 -10 12 0 21 5 21 10 0 6 -6 10 -14 10 -8
0 -18 -4 -21 -10z"/>
<path d="M5405 1070 c-3 -5 3 -10 14 -10 12 0 21 5 21 10 0 6 -6 10 -14 10 -8
0 -18 -4 -21 -10z"/>
<path d="M5565 1070 c-3 -5 3 -10 14 -10 12 0 21 5 21 10 0 6 -6 10 -14 10 -8
0 -18 -4 -21 -10z"/>
<path d="M80 745 c0 -10 7 -15 18 -13 21 4 19 22 -2 26 -10 2 -16 -3 -16 -13z"/>
<path d="M80 700 c0 -15 5 -20 18 -18 9 2 17 10 17 18 0 8 -8 16 -17 18 -13 2
-18 -3 -18 -18z"/>
<path d="M180 730 c-12 -8 -10 -10 8 -10 13 0 20 4 17 10 -7 12 -6 12 -25 0z"/>
<path d="M570 730 c-12 -8 -10 -10 8 -10 13 0 20 4 17 10 -7 12 -6 12 -25 0z"/>
<path d="M3417 660 c-3 -13 0 -20 9 -20 15 0 19 26 5 34 -5 3 -11 -3 -14 -14z"/>
<path d="M3010 655 c-15 -18 -6 -45 15 -45 9 0 15 9 15 24 0 31 -14 40 -30 21z"/>
<path d="M3094 656 c-8 -22 3 -49 19 -43 6 2 12 14 12 27 0 27 -22 39 -31 16z"/>
<path d="M3517 664 c-4 -4 -7 -18 -7 -31 0 -26 27 -32 37 -7 6 17 -19 49 -30
38z"/>
<path d="M3597 664 c-4 -4 -7 -18 -7 -31 0 -26 27 -32 37 -7 6 17 -19 49 -30
38z"/>
<path d="M5665 660 c-3 -5 1 -10 10 -10 9 0 13 5 10 10 -3 6 -8 10 -10 10 -2
0 -7 -4 -10 -10z"/>
<path d="M5895 660 c-3 -5 1 -10 10 -10 9 0 13 5 10 10 -3 6 -8 10 -10 10 -2
0 -7 -4 -10 -10z"/>
</g>
</svg>
